<?xml version="1.0" encoding="utf-8"?>
<!-- Generator: Adobe Illustrator 16.0.0, SVG Export Plug-In . SVG Version: 6.00 Build 0)  -->
<!DOCTYPE svg PUBLIC "-//W3C//DTD SVG 1.1//EN" "http://www.w3.org/Graphics/SVG/1.1/DTD/svg11.dtd">
<svg version="1.1" id="Layer_1" xmlns="http://www.w3.org/2000/svg" xmlns:xlink="http://www.w3.org/1999/xlink" x="0px" y="0px"
	 width="200px" height="200px" viewBox="0 0 200 200" enable-background="new 0 0 200 200" xml:space="preserve">
<g>
	<g id="annotation-550329d03e50ca34835b277b-TCGA-38-4631">
		<rect y="150" fill="#FF0000" width="3.078" height="9.091"/>
		<rect y="163.635" fill="#EFEAF4" width="3.078" height="9.091"/>
		<rect y="177.273" fill="#EEEEEE" width="3.078" height="9.091"/>
		<rect y="190.909" fill="#EEEEEE" width="3.078" height="9.091"/>
	</g>
	<g>
		<g>
			<rect fill="#FF7F00" stroke="#000000" stroke-opacity="0" width="3.078" height="18.182"/>
		</g>
		<g>
			<rect y="36.365" fill="#FF7F00" stroke="#000000" stroke-opacity="0" width="3.078" height="18.179"/>
			<path fill="#888888" stroke="#CCCCCC" stroke-width="0.5" d="M0,43.634h3.078v3.641H0V43.634z"/>
		</g>
		<g>
			<rect y="54.544" fill="#FF7F00" stroke="#000000" stroke-opacity="0" width="3.078" height="18.183"/>
			<path fill="#888888" stroke="#CCCCCC" stroke-width="0.5" d="M0,61.816h3.078v3.641H0V61.816z"/>
		</g>
		<g>
			<rect y="72.727" fill="#FF7F00" stroke="#000000" stroke-opacity="0" width="3.078" height="18.182"/>
		</g>
	</g>
	<g id="annotation-550329d03e50ca34835b277b-TCGA-67-3771">
		<rect x="3.078" y="150" fill="#FF0000" width="3.076" height="9.091"/>
		<rect x="3.078" y="163.635" fill="#EEEEEE" width="3.076" height="9.091"/>
		<rect x="3.078" y="177.273" fill="#9E9E9E" width="3.076" height="9.091"/>
		<rect x="3.078" y="190.909" fill="#EEEEEE" width="3.076" height="9.091"/>
	</g>
	<g>
		<g>
			<rect x="3.078" fill="#FF7F00" stroke="#000000" stroke-opacity="0" width="3.076" height="18.182"/>
			<path fill="#888888" stroke="#CCCCCC" stroke-width="0.5" d="M3.078,7.272h3.076v3.637H3.078V7.272z"/>
		</g>
		<g>
			<rect x="3.078" y="36.365" fill="#FF7F00" stroke="#000000" stroke-opacity="0" width="3.076" height="18.179"/>
			<path fill="#888888" stroke="#CCCCCC" stroke-width="0.5" d="M3.078,43.634h3.076v3.641H3.078V43.634z"/>
		</g>
		<g>
			<rect x="3.078" y="90.909" fill="#FF7F00" stroke="#000000" stroke-opacity="0" width="3.076" height="18.183"/>
		</g>
	</g>
	<g id="annotation-55032a253e50ca348ce25eae-TCGA-39-5022">
		<rect x="9.23" y="150" fill="#0000FF" width="3.078" height="9.091"/>
		<rect x="9.23" y="163.635" fill="#C0ABD4" width="3.078" height="9.091"/>
		<rect x="9.23" y="177.273" fill="#EEEEEE" width="3.078" height="9.091"/>
		<rect x="9.23" y="190.909" fill="#EEEEEE" width="3.078" height="9.091"/>
	</g>
	<g>
		<g>
			<rect x="9.23" fill="#CAB2D6" stroke="#000000" stroke-opacity="0" width="3.078" height="18.182"/>
		</g>
	</g>
	<g id="annotation-55032a253e50ca348ce25eae-TCGA-39-5039">
		<rect x="12.308" y="150" fill="#0000FF" width="3.078" height="9.091"/>
		<rect x="12.308" y="163.635" fill="#E9E1F0" width="3.078" height="9.091"/>
		<rect x="12.308" y="177.273" fill="#D3D3D3" width="3.078" height="9.091"/>
		<rect x="12.308" y="190.909" fill="#EEEEEE" width="3.078" height="9.091"/>
	</g>
	<g>
		<g>
			<rect x="12.308" fill="#CAB2D6" stroke="#000000" stroke-opacity="0" width="3.078" height="18.182"/>
		</g>
	</g>
	<g id="annotation-55032a253e50ca348ce25eae-TCGA-60-2720">
		<rect x="21.539" y="150" fill="#FF0000" width="3.078" height="9.091"/>
		<rect x="21.539" y="163.635" fill="#EEEEEE" width="3.078" height="9.091"/>
		<rect x="21.539" y="177.273" fill="#C7C7C7" width="3.078" height="9.091"/>
		<rect x="21.539" y="190.909" fill="#EEEEEE" width="3.078" height="9.091"/>
	</g>
	<g>
		<g>
			<rect x="21.539" fill="#CAB2D6" stroke="#000000" stroke-opacity="0" width="3.078" height="18.182"/>
		</g>
	</g>
	<g id="annotation-55032a253e50ca348ce25eae-TCGA-63-6202">
		<rect x="24.616" y="150" fill="#0000FF" width="3.077" height="9.091"/>
		<rect x="24.616" y="163.635" fill="#EEEEEE" width="3.077" height="9.091"/>
		<rect x="24.616" y="177.273" fill="#D6D6D6" width="3.077" height="9.091"/>
		<rect x="24.616" y="190.909" fill="#EEEEEE" width="3.077" height="9.091"/>
	</g>
	<g>
		<g>
			<rect x="24.616" fill="#CAB2D6" stroke="#000000" stroke-opacity="0" width="3.077" height="18.182"/>
		</g>
	</g>
	<g id="annotation-55032a253e50ca348ce25eae-TCGA-21-1078">
		<rect x="6.153" y="150" fill="#0000FF" width="3.077" height="9.091"/>
		<rect x="6.153" y="163.635" fill="#EBE5F2" width="3.077" height="9.091"/>
		<rect x="6.153" y="177.273" fill="#171717" width="3.077" height="9.091"/>
		<rect x="6.153" y="190.909" fill="#EEEEEE" width="3.077" height="9.091"/>
	</g>
	<g>
		<g>
			<rect x="6.153" fill="#CAB2D6" stroke="#000000" stroke-opacity="0" width="3.077" height="18.182"/>
			<path fill="#888888" stroke="#CCCCCC" stroke-width="0.5" d="M6.153,7.272H9.23v3.637H6.153V7.272z"/>
		</g>
	</g>
	<g id="annotation-55032a253e50ca348ce25eae-TCGA-43-3394">
		<rect x="15.386" y="150" fill="#0000FF" width="3.075" height="9.091"/>
		<rect x="15.386" y="163.635" fill="#EEEEEE" width="3.075" height="9.091"/>
		<rect x="15.386" y="177.273" fill="#EEEEEE" width="3.075" height="9.091"/>
		<rect x="15.386" y="190.909" fill="#EEEEEE" width="3.075" height="9.091"/>
	</g>
	<g>
		<g>
			<rect x="15.386" fill="#CAB2D6" stroke="#000000" stroke-opacity="0" width="3.075" height="18.182"/>
			<path fill="#888888" stroke="#CCCCCC" stroke-width="0.5" d="M15.386,7.272h3.075v3.637h-3.075V7.272z"/>
		</g>
	</g>
	<g id="annotation-55032a253e50ca348ce25eae-TCGA-51-4081">
		<rect x="18.461" y="150" fill="#0000FF" width="3.078" height="9.091"/>
		<rect x="18.461" y="163.635" fill="#EEEEEE" width="3.078" height="9.091"/>
		<rect x="18.461" y="177.273" fill="#EEEEEE" width="3.078" height="9.091"/>
		<rect x="18.461" y="190.909" fill="#EEEEEE" width="3.078" height="9.091"/>
	</g>
	<g>
		<g>
			<rect x="18.461" fill="#CAB2D6" stroke="#000000" stroke-opacity="0" width="3.078" height="18.182"/>
			<path fill="#888888" stroke="#CCCCCC" stroke-width="0.5" d="M18.461,7.272h3.078v3.637h-3.078V7.272z"/>
		</g>
	</g>
	<g id="annotation-55032a253e50ca348ce25eae-TCGA-66-2793">
		<rect x="27.693" y="150" fill="#0000FF" width="3.076" height="9.091"/>
		<rect x="27.693" y="163.635" fill="#F1ECF6" width="3.076" height="9.091"/>
		<rect x="27.693" y="177.273" fill="#2C2C2C" width="3.076" height="9.091"/>
		<rect x="27.693" y="190.909" fill="#EEEEEE" width="3.076" height="9.091"/>
	</g>
	<g>
		<g>
			<rect x="27.693" fill="#CAB2D6" stroke="#000000" stroke-opacity="0" width="3.076" height="18.182"/>
			<path fill="#888888" stroke="#CCCCCC" stroke-width="0.5" d="M27.693,7.272h3.076v3.637h-3.076V7.272z"/>
		</g>
	</g>
	<g id="annotation-55032a253e50ca348ce25eae-TCGA-18-3409">
		<rect x="30.769" y="150" fill="#0000FF" width="3.078" height="9.091"/>
		<rect x="30.769" y="163.635" fill="#EEEEEE" width="3.078" height="9.091"/>
		<rect x="30.769" y="177.273" fill="#EEEEEE" width="3.078" height="9.091"/>
		<rect x="30.769" y="190.909" fill="#EEEEEE" width="3.078" height="9.091"/>
	</g>
	<g>
		<g>
			<rect x="30.769" fill="#CAB2D6" stroke="#000000" stroke-opacity="0" width="3.078" height="18.182"/>
		</g>
		<g>
			<rect x="30.769" y="36.365" fill="#CAB2D6" stroke="#000000" stroke-opacity="0" width="3.078" height="18.179"/>
		</g>
		<g>
			<rect x="30.769" y="54.544" fill="#CAB2D6" stroke="#000000" stroke-opacity="0" width="3.078" height="18.183"/>
		</g>
		<g>
			<rect x="30.769" y="72.727" fill="#CAB2D6" stroke="#000000" stroke-opacity="0" width="3.078" height="18.182"/>
		</g>
	</g>
	<g id="annotation-55032a253e50ca348ce25eae-TCGA-39-5037">
		<rect x="33.847" y="150" fill="#0000FF" width="3.078" height="9.091"/>
		<rect x="33.847" y="163.635" fill="#EEEEEE" width="3.078" height="9.091"/>
		<rect x="33.847" y="177.273" fill="#EEEEEE" width="3.078" height="9.091"/>
		<rect x="33.847" y="190.909" fill="#EEEEEE" width="3.078" height="9.091"/>
	</g>
	<g>
		<g>
			<rect x="33.847" fill="#CAB2D6" stroke="#000000" stroke-opacity="0" width="3.078" height="18.182"/>
		</g>
		<g>
			<rect x="33.847" y="36.365" fill="#CAB2D6" stroke="#000000" stroke-opacity="0" width="3.078" height="18.179"/>
		</g>
	</g>
	<g id="annotation-55032a253e50ca348ce25eae-TCGA-66-2756">
		<rect x="39.999" y="150" fill="#0000FF" width="3.078" height="9.091"/>
		<rect x="39.999" y="163.635" fill="#EEEEEE" width="3.078" height="9.091"/>
		<rect x="39.999" y="177.273" fill="#525252" width="3.078" height="9.091"/>
		<rect x="39.999" y="190.909" fill="#EEEEEE" width="3.078" height="9.091"/>
	</g>
	<g>
		<g>
			<rect x="39.999" fill="#CAB2D6" stroke="#000000" stroke-opacity="0" width="3.078" height="18.182"/>
		</g>
		<g>
			<rect x="39.999" y="54.544" fill="#CAB2D6" stroke="#000000" stroke-opacity="0" width="3.078" height="18.183"/>
		</g>
	</g>
	<g id="annotation-55032a253e50ca348ce25eae-TCGA-51-4080">
		<rect x="36.924" y="150" fill="#0000FF" width="3.074" height="9.091"/>
		<rect x="36.924" y="163.635" fill="#FCFAFD" width="3.074" height="9.091"/>
		<rect x="36.924" y="177.273" fill="#0C0C0C" width="3.074" height="9.091"/>
		<rect x="36.924" y="190.909" fill="#EEEEEE" width="3.074" height="9.091"/>
	</g>
	<g>
		<g>
			<rect x="36.924" fill="#CAB2D6" stroke="#000000" stroke-opacity="0" width="3.074" height="18.182"/>
			<path fill="#888888" stroke="#CCCCCC" stroke-width="0.5" d="M36.924,7.272h3.074v3.637h-3.074V7.272z"/>
		</g>
		<g>
			<rect x="36.924" y="72.727" fill="#CAB2D6" stroke="#000000" stroke-opacity="0" width="3.074" height="18.182"/>
		</g>
	</g>
	<g id="annotation-55032a7b3e50ca34b2d96307-TCGA-10-0927">
		<rect x="46.154" y="150" fill="#FF0000" width="3.078" height="9.091"/>
		<rect x="46.154" y="163.635" fill="#A385C1" width="3.078" height="9.091"/>
		<rect x="46.154" y="177.273" fill="#353535" width="3.078" height="9.091"/>
		<rect x="46.154" y="190.909" fill="#EEEEEE" width="3.078" height="9.091"/>
	</g>
	<g>
		<g>
			<rect x="46.154" fill="#6A3D9A" stroke="#000000" stroke-opacity="0" width="3.078" height="18.182"/>
		</g>
	</g>
	<g id="annotation-55032a7b3e50ca34b2d96307-TCGA-10-0930">
		<rect x="49.232" y="150" fill="#FF0000" width="3.075" height="9.091"/>
		<rect x="49.232" y="163.635" fill="#D7CAE4" width="3.075" height="9.091"/>
		<rect x="49.232" y="177.273" fill="#646464" width="3.075" height="9.091"/>
		<rect x="49.232" y="190.909" fill="#EEEEEE" width="3.075" height="9.091"/>
	</g>
	<g>
		<g>
			<rect x="49.232" fill="#6A3D9A" stroke="#000000" stroke-opacity="0" width="3.075" height="18.182"/>
			<path fill="#888888" stroke="#CCCCCC" stroke-width="0.5" d="M49.232,7.272h3.075v3.637h-3.075V7.272z"/>
		</g>
	</g>
	<g id="annotation-55032a7b3e50ca34b2d96307-TCGA-13-0760">
		<rect x="52.307" y="150" fill="#FF0000" width="3.078" height="9.091"/>
		<rect x="52.307" y="163.635" fill="#EFEAF5" width="3.078" height="9.091"/>
		<rect x="52.307" y="177.273" fill="#383838" width="3.078" height="9.091"/>
		<rect x="52.307" y="190.909" fill="#EEEEEE" width="3.078" height="9.091"/>
	</g>
	<g>
		<g>
			<rect x="52.307" fill="#6A3D9A" stroke="#000000" stroke-opacity="0" width="3.078" height="18.182"/>
			<path fill="#888888" stroke="#CCCCCC" stroke-width="0.5" d="M52.307,7.272h3.078v3.637h-3.078V7.272z"/>
		</g>
	</g>
	<g id="annotation-55032a7b3e50ca34b2d96307-TCGA-04-1367">
		<rect x="43.077" y="150" fill="#FF0000" width="3.078" height="9.091"/>
		<rect x="43.077" y="163.635" fill="#EEEEEE" width="3.078" height="9.091"/>
		<rect x="43.077" y="177.273" fill="#202020" width="3.078" height="9.091"/>
		<rect x="43.077" y="190.909" fill="#EEEEEE" width="3.078" height="9.091"/>
	</g>
	<g>
		<g>
			<rect x="43.077" y="9.091" fill="#6A3D9A" stroke="#000000" stroke-opacity="0" width="3.078" height="9.091"/>
		</g>
	</g>
	<g id="annotation-55032a7b3e50ca34b2d96307-TCGA-13-0900">
		<rect x="55.385" y="150" fill="#FF0000" width="3.078" height="9.091"/>
		<rect x="55.385" y="163.635" fill="#EEEEEE" width="3.078" height="9.091"/>
		<rect x="55.385" y="177.273" fill="#3B3B3B" width="3.078" height="9.091"/>
		<rect x="55.385" y="190.909" fill="#EEEEEE" width="3.078" height="9.091"/>
	</g>
	<g>
		<g>
			<rect x="55.385" y="9.091" fill="#6A3D9A" stroke="#000000" stroke-opacity="0" width="3.078" height="9.091"/>
		</g>
	</g>
	<g id="annotation-55032a7b3e50ca34b2d96307-TCGA-13-0912">
		<rect x="58.462" y="150" fill="#FF0000" width="3.076" height="9.091"/>
		<rect x="58.462" y="163.635" fill="#EEEEEE" width="3.076" height="9.091"/>
		<rect x="58.462" y="177.273" fill="#0F0F0F" width="3.076" height="9.091"/>
		<rect x="58.462" y="190.909" fill="#EEEEEE" width="3.076" height="9.091"/>
	</g>
	<g>
		<g>
			<rect x="58.462" y="9.091" fill="#6A3D9A" stroke="#000000" stroke-opacity="0" width="3.076" height="9.091"/>
		</g>
	</g>
	<g id="annotation-55032a7b3e50ca34b2d96307-TCGA-13-0913">
		<rect x="61.539" y="150" fill="#FF0000" width="3.076" height="9.091"/>
		<rect x="61.539" y="163.635" fill="#EEEEEE" width="3.076" height="9.091"/>
		<rect x="61.539" y="177.273" fill="#0F0F0F" width="3.076" height="9.091"/>
		<rect x="61.539" y="190.909" fill="#EEEEEE" width="3.076" height="9.091"/>
	</g>
	<g>
		<g>
			<rect x="61.539" y="9.091" fill="#6A3D9A" stroke="#000000" stroke-opacity="0" width="3.076" height="9.091"/>
		</g>
	</g>
	<g id="annotation-55032a7b3e50ca34b2d96307-TCGA-24-2024">
		<rect x="64.615" y="150" fill="#FF0000" width="3.078" height="9.091"/>
		<rect x="64.615" y="163.635" fill="#BDA7D2" width="3.078" height="9.091"/>
		<rect x="64.615" y="177.273" fill="#1D1D1D" width="3.078" height="9.091"/>
		<rect x="64.615" y="190.909" fill="#EEEEEE" width="3.078" height="9.091"/>
	</g>
	<g>
		<g>
			<rect x="64.615" y="9.091" fill="#6A3D9A" stroke="#000000" stroke-opacity="0" width="3.078" height="9.091"/>
		</g>
	</g>
	<g id="annotation-550325bc3e50ca3261215a6c-TCGA-BT-A2LA">
		<rect x="67.693" y="150" fill="#0000FF" width="3.077" height="9.091"/>
		<rect x="67.693" y="163.635" fill="#EEEEEE" width="3.077" height="9.091"/>
		<rect x="67.693" y="177.273" fill="#0F0F0F" width="3.077" height="9.091"/>
		<rect x="67.693" y="190.909" fill="#EEEEEE" width="3.077" height="9.091"/>
	</g>
	<g>
		<g>
			<rect x="67.693" y="18.182" fill="#A6CEE3" stroke="#000000" stroke-opacity="0" width="3.077" height="18.183"/>
		</g>
	</g>
	<g id="annotation-550325bc3e50ca3261215a6c-TCGA-E5-A2PC">
		<rect x="70.77" y="150" fill="#FF0000" width="3.075" height="9.091"/>
		<rect x="70.77" y="163.635" fill="#EEEEEE" width="3.075" height="9.091"/>
		<rect x="70.77" y="177.273" fill="#353535" width="3.075" height="9.091"/>
		<rect x="70.77" y="190.909" fill="#EEEEEE" width="3.075" height="9.091"/>
	</g>
	<g>
		<g>
			<rect x="70.77" y="18.182" fill="#A6CEE3" stroke="#000000" stroke-opacity="0" width="3.075" height="18.183"/>
		</g>
	</g>
	<g id="annotation-550325bc3e50ca3261215a6c-TCGA-DK-A1AC">
		<rect x="76.923" y="150" fill="#0000FF" width="3.078" height="9.091"/>
		<rect x="76.923" y="163.635" fill="#EEEEEE" width="3.078" height="9.091"/>
		<rect x="76.923" y="177.273" fill="#5E5E5E" width="3.078" height="9.091"/>
		<rect x="76.923" y="190.909" fill="#EEEEEE" width="3.078" height="9.091"/>
	</g>
	<g>
		<g>
			<rect x="76.923" y="18.182" fill="#A6CEE3" stroke="#000000" stroke-opacity="0" width="3.078" height="18.183"/>
			<path fill="#888888" stroke="#CCCCCC" stroke-width="0.5" d="M76.923,25.452H80v3.641h-3.078V25.452z"/>
		</g>
		<g>
			<rect x="76.923" y="109.091" fill="#A6CEE3" stroke="#000000" stroke-opacity="0" width="3.078" height="18.182"/>
		</g>
		<g>
			<rect x="76.923" y="127.273" fill="#A6CEE3" stroke="#000000" stroke-opacity="0" width="3.078" height="18.183"/>
		</g>
	</g>
	<g id="annotation-550325bc3e50ca3261215a6c-TCGA-G2-A2EO">
		<rect x="80" y="150" fill="#0000FF" width="3.078" height="9.091"/>
		<rect x="80" y="163.635" fill="#EEEEEE" width="3.078" height="9.091"/>
		<rect x="80" y="177.273" fill="#B5B5B5" width="3.078" height="9.091"/>
		<rect x="80" y="190.909" fill="#EEEEEE" width="3.078" height="9.091"/>
	</g>
	<g>
		<g>
			<rect x="80" y="18.182" fill="#A6CEE3" stroke="#000000" stroke-opacity="0" width="3.078" height="18.183"/>
		</g>
		<g>
			<rect x="80" y="36.365" fill="#A6CEE3" stroke="#000000" stroke-opacity="0" width="3.078" height="18.179"/>
		</g>
	</g>
	<g id="annotation-550325bc3e50ca3261215a6c-TCGA-BT-A3PK">
		<rect x="73.845" y="150" fill="#0000FF" width="3.078" height="9.091"/>
		<rect x="73.845" y="163.635" fill="#F1EDF6" width="3.078" height="9.091"/>
		<rect x="73.845" y="177.273" fill="#EEEEEE" width="3.078" height="9.091"/>
		<rect x="73.845" y="190.909" fill="#EEEEEE" width="3.078" height="9.091"/>
	</g>
	<g>
		<g>
			<rect x="73.845" y="18.182" fill="#A6CEE3" stroke="#000000" stroke-opacity="0" width="3.078" height="18.183"/>
			<path fill="#888888" stroke="#CCCCCC" stroke-width="0.5" d="M73.845,25.452h3.078v3.641h-3.078V25.452z"/>
		</g>
		<g>
			<rect x="73.845" y="90.909" fill="#A6CEE3" stroke="#000000" stroke-opacity="0" width="3.078" height="18.183"/>
		</g>
	</g>
	<g id="annotation-5503265d3e50ca326a0545b0-TCGA-A2-A0D2">
		<rect x="83.078" y="150" fill="#FF0000" width="3.075" height="9.091"/>
		<rect x="83.078" y="163.635" fill="#EEEEEE" width="3.075" height="9.091"/>
		<rect x="83.078" y="177.273" fill="#8A8A8A" width="3.075" height="9.091"/>
		<rect x="83.078" y="190.909" fill="#31A354" width="3.075" height="9.091"/>
	</g>
	<g>
		<g>
			<rect x="83.078" y="18.182" fill="#1F78B4" stroke="#000000" stroke-opacity="0" width="3.075" height="18.183"/>
		</g>
	</g>
	<g id="annotation-5503265d3e50ca326a0545b0-TCGA-D8-A1J9">
		<rect x="86.153" y="150" fill="#FF0000" width="3.078" height="9.091"/>
		<rect x="86.153" y="163.635" fill="#EEEEEE" width="3.078" height="9.091"/>
		<rect x="86.153" y="177.273" fill="#8C8C8C" width="3.078" height="9.091"/>
		<rect x="86.153" y="190.909" fill="#EEEEEE" width="3.078" height="9.091"/>
	</g>
	<g>
		<g>
			<rect x="86.153" y="18.182" fill="#1F78B4" stroke="#000000" stroke-opacity="0" width="3.078" height="18.183"/>
		</g>
	</g>
	<g id="annotation-5503265d3e50ca326a0545b0-TCGA-E2-A1LG">
		<rect x="89.231" y="150" fill="#FF0000" width="3.077" height="9.091"/>
		<rect x="89.231" y="163.635" fill="#EEEEEE" width="3.077" height="9.091"/>
		<rect x="89.231" y="177.273" fill="#434343" width="3.077" height="9.091"/>
		<rect x="89.231" y="190.909" fill="#EEEEEE" width="3.077" height="9.091"/>
	</g>
	<g>
		<g>
			<rect x="89.231" y="18.182" fill="#1F78B4" stroke="#000000" stroke-opacity="0" width="3.077" height="18.183"/>
		</g>
	</g>
	<g id="annotation-5503265d3e50ca326a0545b0-TCGA-AR-A0TX">
		<rect x="92.308" y="150" fill="#FF0000" width="3.078" height="9.091"/>
		<rect x="92.308" y="163.635" fill="#EEEEEE" width="3.078" height="9.091"/>
		<rect x="92.308" y="177.273" fill="#ADADAD" width="3.078" height="9.091"/>
		<rect x="92.308" y="190.909" fill="#969696" width="3.078" height="9.091"/>
	</g>
	<g>
		<g>
			<rect x="92.308" y="18.182" fill="#1F78B4" stroke="#000000" stroke-opacity="0" width="3.078" height="18.183"/>
		</g>
		<g>
			<rect x="92.308" y="54.544" fill="#1F78B4" stroke="#000000" stroke-opacity="0" width="3.078" height="18.183"/>
			<path fill="#888888" stroke="#CCCCCC" stroke-width="0.5" d="M92.308,61.816h3.078v3.641h-3.078V61.816z"/>
		</g>
	</g>
	<g id="annotation-550327603e50ca3294483a08-TCGA-AA-3811">
		<rect x="95.386" y="150" fill="#FF0000" width="3.075" height="9.091"/>
		<rect x="95.386" y="163.635" fill="#EEEEEE" width="3.075" height="9.091"/>
		<rect x="95.386" y="177.273" fill="#EEEEEE" width="3.075" height="9.091"/>
		<rect x="95.386" y="190.909" fill="#EEEEEE" width="3.075" height="9.091"/>
	</g>
	<g>
		<g>
			<rect x="95.386" y="18.182" fill="#B2DF8A" stroke="#000000" stroke-opacity="0" width="3.075" height="18.183"/>
			<path fill="#888888" stroke="#CCCCCC" stroke-width="0.5" d="M95.386,25.452h3.075v3.641h-3.075V25.452z"/>
		</g>
	</g>
	<g id="annotation-550327603e50ca3294483a08-TCGA-AA-3977">
		<rect x="98.461" y="150" fill="#0000FF" width="3.077" height="9.091"/>
		<rect x="98.461" y="163.635" fill="#EEEEEE" width="3.077" height="9.091"/>
		<rect x="98.461" y="177.273" fill="#525252" width="3.077" height="9.091"/>
		<rect x="98.461" y="190.909" fill="#EEEEEE" width="3.077" height="9.091"/>
	</g>
	<g>
		<g>
			<rect x="98.461" y="18.182" fill="#B2DF8A" stroke="#000000" stroke-opacity="0" width="3.077" height="18.183"/>
		</g>
		<g>
			<rect x="98.461" y="36.365" fill="#B2DF8A" stroke="#000000" stroke-opacity="0" width="3.077" height="18.179"/>
		</g>
		<g>
			<rect x="98.461" y="54.544" fill="#B2DF8A" stroke="#000000" stroke-opacity="0" width="3.077" height="18.183"/>
		</g>
		<g>
			<rect x="98.461" y="72.727" fill="#B2DF8A" stroke="#000000" stroke-opacity="0" width="3.077" height="18.182"/>
		</g>
	</g>
	<g id="annotation-550327603e50ca3294483a08-TCGA-AA-A00N">
		<rect x="101.539" y="150" fill="#0000FF" width="3.078" height="9.091"/>
		<rect x="101.539" y="163.635" fill="#F8F5FA" width="3.078" height="9.091"/>
		<rect x="101.539" y="177.273" fill="#6C6C6C" width="3.078" height="9.091"/>
		<rect x="101.539" y="190.909" fill="#EEEEEE" width="3.078" height="9.091"/>
	</g>
	<g>
		<g>
			<rect x="101.539" y="18.182" fill="#B2DF8A" stroke="#000000" stroke-opacity="0" width="3.078" height="18.183"/>
		</g>
		<g>
			<rect x="101.539" y="54.544" fill="#B2DF8A" stroke="#000000" stroke-opacity="0" width="3.078" height="18.183"/>
		</g>
	</g>
	<g id="annotation-550328283e50ca32ceefeb9a-TCGA-27-2527">
		<rect x="104.616" y="150" fill="#0000FF" width="3.077" height="9.091"/>
		<rect x="104.616" y="163.635" fill="#ECE6F2" width="3.077" height="9.091"/>
		<rect x="104.616" y="177.273" fill="#B8B8B8" width="3.077" height="9.091"/>
		<rect x="104.616" y="190.909" fill="#EEEEEE" width="3.077" height="9.091"/>
	</g>
	<g>
		<g>
			<rect x="104.616" y="18.182" fill="#33A02C" stroke="#000000" stroke-opacity="0" width="3.077" height="18.183"/>
		</g>
	</g>
	<g id="annotation-550328283e50ca32ceefeb9a-TCGA-74-6578">
		<rect x="107.693" y="150" fill="#0000FF" width="3.076" height="9.091"/>
		<rect x="107.693" y="163.635" fill="#EEEEEE" width="3.076" height="9.091"/>
		<rect x="107.693" y="177.273" fill="#585858" width="3.076" height="9.091"/>
		<rect x="107.693" y="190.909" fill="#EEEEEE" width="3.076" height="9.091"/>
	</g>
	<g>
		<g>
			<rect x="107.693" y="18.182" fill="#33A02C" stroke="#000000" stroke-opacity="0" width="3.076" height="18.183"/>
		</g>
	</g>
	<g id="annotation-550328803e50ca32d715b6ab-TCGA-BB-7871">
		<rect x="110.769" y="150" fill="#FF0000" width="3.077" height="9.091"/>
		<rect x="110.769" y="163.635" fill="#EEEEEE" width="3.077" height="9.091"/>
		<rect x="110.769" y="177.273" fill="#787878" width="3.077" height="9.091"/>
		<rect x="110.769" y="190.909" fill="#EEEEEE" width="3.077" height="9.091"/>
	</g>
	<g>
		<g>
			<rect x="110.769" y="18.182" fill="#FB9A99" stroke="#000000" stroke-opacity="0" width="3.077" height="18.183"/>
		</g>
	</g>
	<g id="annotation-550328803e50ca32d715b6ab-TCGA-CN-4728">
		<rect x="113.846" y="150" fill="#0000FF" width="3.079" height="9.091"/>
		<rect x="113.846" y="163.635" fill="#EEEEEE" width="3.079" height="9.091"/>
		<rect x="113.846" y="177.273" fill="#DEDEDE" width="3.079" height="9.091"/>
		<rect x="113.846" y="190.909" fill="#EEEEEE" width="3.079" height="9.091"/>
	</g>
	<g>
		<g>
			<rect x="113.846" y="18.182" fill="#FB9A99" stroke="#000000" stroke-opacity="0" width="3.079" height="18.183"/>
		</g>
	</g>
	<g id="annotation-550328803e50ca32d715b6ab-TCGA-CN-5365">
		<rect x="116.925" y="150" fill="#0000FF" width="3.075" height="9.091"/>
		<rect x="116.925" y="163.635" fill="#EFEAF5" width="3.075" height="9.091"/>
		<rect x="116.925" y="177.273" width="3.075" height="9.091"/>
		<rect x="116.925" y="190.909" fill="#EEEEEE" width="3.075" height="9.091"/>
	</g>
	<g>
		<g>
			<rect x="116.925" y="18.182" fill="#FB9A99" stroke="#000000" stroke-opacity="0" width="3.075" height="18.183"/>
		</g>
	</g>
	<g id="annotation-550328803e50ca32d715b6ab-TCGA-CN-5366">
		<rect x="120" y="150" fill="#0000FF" width="3.078" height="9.091"/>
		<rect x="120" y="163.635" fill="#EFEAF4" width="3.078" height="9.091"/>
		<rect x="120" y="177.273" fill="#D9D9D9" width="3.078" height="9.091"/>
		<rect x="120" y="190.909" fill="#EEEEEE" width="3.078" height="9.091"/>
	</g>
	<g>
		<g>
			<rect x="120" y="18.182" fill="#FB9A99" stroke="#000000" stroke-opacity="0" width="3.078" height="18.183"/>
			<path fill="#888888" stroke="#CCCCCC" stroke-width="0.5" d="M120,25.452h3.078v3.641H120V25.452z"/>
		</g>
	</g>
	<g id="annotation-550328803e50ca32d715b6ab-TCGA-BB-7862">
		<rect x="123.077" y="150" fill="#0000FF" width="3.077" height="9.091"/>
		<rect x="123.077" y="163.635" fill="#EEEEEE" width="3.077" height="9.091"/>
		<rect x="123.077" y="177.273" fill="#3B3B3B" width="3.077" height="9.091"/>
		<rect x="123.077" y="190.909" fill="#EEEEEE" width="3.077" height="9.091"/>
	</g>
	<g>
		<g>
			<rect x="123.077" y="18.182" fill="#FB9A99" stroke="#000000" stroke-opacity="0" width="3.077" height="18.183"/>
		</g>
		<g>
			<rect x="123.077" y="36.365" fill="#FB9A99" stroke="#000000" stroke-opacity="0" width="3.077" height="18.179"/>
		</g>
	</g>
	<g id="annotation-550328803e50ca32d715b6ab-TCGA-CQ-5326">
		<rect x="126.154" y="150" fill="#0000FF" width="3.078" height="9.091"/>
		<rect x="126.154" y="163.635" fill="#F9F7FB" width="3.078" height="9.091"/>
		<rect x="126.154" y="177.273" fill="#A1A1A1" width="3.078" height="9.091"/>
		<rect x="126.154" y="190.909" fill="#EEEEEE" width="3.078" height="9.091"/>
	</g>
	<g>
		<g>
			<rect x="126.154" y="18.182" fill="#FB9A99" stroke="#000000" stroke-opacity="0" width="3.078" height="18.183"/>
			<path fill="#888888" stroke="#CCCCCC" stroke-width="0.5" d="M126.154,25.452h3.078v3.641h-3.078V25.452z"/>
		</g>
		<g>
			<rect x="126.154" y="36.365" fill="#FB9A99" stroke="#000000" stroke-opacity="0" width="3.078" height="18.179"/>
		</g>
		<g>
			<rect x="126.154" y="90.909" fill="#FB9A99" stroke="#000000" stroke-opacity="0" width="3.078" height="18.183"/>
		</g>
	</g>
	<g id="annotation-550328803e50ca32d715b6ab-TCGA-CV-7089">
		<rect x="129.232" y="150" fill="#0000FF" width="3.075" height="9.091"/>
		<rect x="129.232" y="163.635" fill="#B69ECD" width="3.075" height="9.091"/>
		<rect x="129.232" y="177.273" fill="#D9D9D9" width="3.075" height="9.091"/>
		<rect x="129.232" y="190.909" fill="#EEEEEE" width="3.075" height="9.091"/>
	</g>
	<g>
		<g>
			<rect x="129.232" y="18.182" fill="#FB9A99" stroke="#000000" stroke-opacity="0" width="3.075" height="18.183"/>
			<path fill="#888888" stroke="#CCCCCC" stroke-width="0.5" d="M129.232,25.452h3.075v3.641h-3.075V25.452z"/>
		</g>
		<g>
			<rect x="129.232" y="72.727" fill="#FB9A99" stroke="#000000" stroke-opacity="0" width="3.075" height="18.182"/>
		</g>
	</g>
	<g id="annotation-550329d03e50ca34835b277b-TCGA-44-6776">
		<rect x="132.307" y="150" fill="#FF0000" width="3.077" height="9.091"/>
		<rect x="132.307" y="163.635" fill="#EEEEEE" width="3.077" height="9.091"/>
		<rect x="132.307" y="177.273" fill="#666666" width="3.077" height="9.091"/>
		<rect x="132.307" y="190.909" fill="#EEEEEE" width="3.077" height="9.091"/>
	</g>
	<g>
		<g>
			<rect x="132.307" y="18.182" fill="#FF7F00" stroke="#000000" stroke-opacity="0" width="3.077" height="18.183"/>
		</g>
	</g>
	<g id="annotation-550329d03e50ca34835b277b-TCGA-67-3770">
		<rect x="135.384" y="150" fill="#FF0000" width="3.078" height="9.091"/>
		<rect x="135.384" y="163.635" fill="#EEEEEE" width="3.078" height="9.091"/>
		<rect x="135.384" y="177.273" fill="#EEEEEE" width="3.078" height="9.091"/>
		<rect x="135.384" y="190.909" fill="#EEEEEE" width="3.078" height="9.091"/>
	</g>
	<g>
		<g>
			<rect x="135.384" y="18.182" fill="#FF7F00" stroke="#000000" stroke-opacity="0" width="3.078" height="18.183"/>
		</g>
	</g>
	<g id="annotation-550329d03e50ca34835b277b-TCGA-05-4396">
		<rect x="138.462" y="150" fill="#0000FF" width="3.077" height="9.091"/>
		<rect x="138.462" y="163.635" fill="#F1EDF6" width="3.077" height="9.091"/>
		<rect x="138.462" y="177.273" fill="#434343" width="3.077" height="9.091"/>
		<rect x="138.462" y="190.909" fill="#EEEEEE" width="3.077" height="9.091"/>
	</g>
	<g>
		<g>
			<rect x="138.462" y="18.182" fill="#FF7F00" stroke="#000000" stroke-opacity="0" width="3.077" height="18.183"/>
		</g>
		<g>
			<rect x="138.462" y="54.544" fill="#FF7F00" stroke="#000000" stroke-opacity="0" width="3.077" height="18.183"/>
		</g>
		<g>
			<rect x="138.462" y="72.727" fill="#FF7F00" stroke="#000000" stroke-opacity="0" width="3.077" height="18.182"/>
		</g>
		<g>
			<rect x="138.462" y="90.909" fill="#FF7F00" stroke="#000000" stroke-opacity="0" width="3.077" height="18.183"/>
		</g>
		<g>
			<rect x="138.462" y="109.091" fill="#FF7F00" stroke="#000000" stroke-opacity="0" width="3.077" height="18.182"/>
		</g>
		<g>
			<rect x="138.462" y="127.273" fill="#FF7F00" stroke="#000000" stroke-opacity="0" width="3.077" height="18.183"/>
		</g>
	</g>
	<g id="annotation-550329d03e50ca34835b277b-TCGA-38-4629">
		<rect x="141.539" y="150" fill="#0000FF" width="3.076" height="9.091"/>
		<rect x="141.539" y="163.635" fill="#DDD2E8" width="3.076" height="9.091"/>
		<rect x="141.539" y="177.273" fill="#CACACA" width="3.076" height="9.091"/>
		<rect x="141.539" y="190.909" fill="#EEEEEE" width="3.076" height="9.091"/>
	</g>
	<g>
		<g>
			<rect x="141.539" y="18.182" fill="#FF7F00" stroke="#000000" stroke-opacity="0" width="3.076" height="18.183"/>
		</g>
		<g>
			<rect x="141.539" y="72.727" fill="#FF7F00" stroke="#000000" stroke-opacity="0" width="3.076" height="18.182"/>
		</g>
		<g>
			<rect x="141.539" y="90.909" fill="#FF7F00" stroke="#000000" stroke-opacity="0" width="3.076" height="18.183"/>
		</g>
	</g>
	<g id="annotation-55032a253e50ca348ce25eae-TCGA-18-3417">
		<rect x="144.615" y="150" fill="#0000FF" width="3.078" height="9.091"/>
		<rect x="144.615" y="163.635" fill="#EEEEEE" width="3.078" height="9.091"/>
		<rect x="144.615" y="177.273" fill="#CDCDCD" width="3.078" height="9.091"/>
		<rect x="144.615" y="190.909" fill="#EEEEEE" width="3.078" height="9.091"/>
	</g>
	<g>
		<g>
			<rect x="144.615" y="18.182" fill="#CAB2D6" stroke="#000000" stroke-opacity="0" width="3.078" height="18.183"/>
		</g>
	</g>
	<g id="annotation-55032a253e50ca348ce25eae-TCGA-39-5024">
		<rect x="147.693" y="150" fill="#FF0000" width="3.078" height="9.091"/>
		<rect x="147.693" y="163.635" fill="#EEEEEE" width="3.078" height="9.091"/>
		<rect x="147.693" y="177.273" fill="#EDEDED" width="3.078" height="9.091"/>
		<rect x="147.693" y="190.909" fill="#EEEEEE" width="3.078" height="9.091"/>
	</g>
	<g>
		<g>
			<rect x="147.693" y="18.182" fill="#CAB2D6" stroke="#000000" stroke-opacity="0" width="3.078" height="18.183"/>
		</g>
	</g>
	<g id="annotation-55032a253e50ca348ce25eae-TCGA-66-2782">
		<rect x="150.771" y="150" fill="#0000FF" width="3.076" height="9.091"/>
		<rect x="150.771" y="163.635" fill="#EFEAF4" width="3.076" height="9.091"/>
		<rect x="150.771" y="177.273" fill="#EEEEEE" width="3.076" height="9.091"/>
		<rect x="150.771" y="190.909" fill="#EEEEEE" width="3.076" height="9.091"/>
	</g>
	<g>
		<g>
			<rect x="150.771" y="18.182" fill="#CAB2D6" stroke="#000000" stroke-opacity="0" width="3.076" height="18.183"/>
		</g>
	</g>
	<g id="annotation-55032a253e50ca348ce25eae-TCGA-39-5031">
		<rect x="153.846" y="150" fill="#FF0000" width="3.077" height="9.091"/>
		<rect x="153.846" y="163.635" fill="#EEEEEE" width="3.077" height="9.091"/>
		<rect x="153.846" y="177.273" fill="#EEEEEE" width="3.077" height="9.091"/>
		<rect x="153.846" y="190.909" fill="#EEEEEE" width="3.077" height="9.091"/>
	</g>
	<g>
		<g>
			<rect x="153.846" y="18.182" fill="#CAB2D6" stroke="#000000" stroke-opacity="0" width="3.077" height="18.183"/>
		</g>
		<g>
			<rect x="153.846" y="90.909" fill="#CAB2D6" stroke="#000000" stroke-opacity="0" width="3.077" height="18.183"/>
		</g>
	</g>
	<g id="annotation-55032a253e50ca348ce25eae-TCGA-60-2698">
		<rect x="156.923" y="150" fill="#0000FF" width="3.078" height="9.091"/>
		<rect x="156.923" y="163.635" fill="#F1ECF5" width="3.078" height="9.091"/>
		<rect x="156.923" y="177.273" fill="#ADADAD" width="3.078" height="9.091"/>
		<rect x="156.923" y="190.909" fill="#EEEEEE" width="3.078" height="9.091"/>
	</g>
	<g>
		<g>
			<rect x="156.923" y="18.182" fill="#CAB2D6" stroke="#000000" stroke-opacity="0" width="3.078" height="18.183"/>
		</g>
		<g>
			<rect x="156.923" y="54.544" fill="#CAB2D6" stroke="#000000" stroke-opacity="0" width="3.078" height="18.183"/>
		</g>
		<g>
			<rect x="156.923" y="72.727" fill="#CAB2D6" stroke="#000000" stroke-opacity="0" width="3.078" height="18.182"/>
		</g>
	</g>
	<g id="annotation-55032a253e50ca348ce25eae-TCGA-66-2754">
		<rect x="160.001" y="150" fill="#0000FF" width="3.077" height="9.091"/>
		<rect x="160.001" y="163.635" fill="#EEEEEE" width="3.077" height="9.091"/>
		<rect x="160.001" y="177.273" fill="#262626" width="3.077" height="9.091"/>
		<rect x="160.001" y="190.909" fill="#EEEEEE" width="3.077" height="9.091"/>
	</g>
	<g>
		<g>
			<rect x="160.001" y="18.182" fill="#CAB2D6" stroke="#000000" stroke-opacity="0" width="3.077" height="18.183"/>
			<path fill="#888888" stroke="#CCCCCC" stroke-width="0.5" d="M160.001,25.452h3.077v3.641h-3.077V25.452z"/>
		</g>
		<g>
			<rect x="160.001" y="72.727" fill="#CAB2D6" stroke="#000000" stroke-opacity="0" width="3.077" height="18.182"/>
		</g>
	</g>
	<g id="annotation-55032a7b3e50ca34b2d96307-TCGA-09-1661">
		<rect x="163.078" y="150" fill="#FF0000" width="3.075" height="9.091"/>
		<rect x="163.078" y="163.635" fill="#D2C4E1" width="3.075" height="9.091"/>
		<rect x="163.078" y="177.273" fill="#EEEEEE" width="3.075" height="9.091"/>
		<rect x="163.078" y="190.909" fill="#EEEEEE" width="3.075" height="9.091"/>
	</g>
	<g>
		<g>
			<rect x="163.078" y="18.182" fill="#6A3D9A" stroke="#000000" stroke-opacity="0" width="3.075" height="18.183"/>
		</g>
	</g>
	<g id="annotation-550325bc3e50ca3261215a6c-TCGA-BT-A20T">
		<rect x="166.153" y="150" fill="#0000FF" width="3.078" height="9.091"/>
		<rect x="166.153" y="163.635" fill="#ECE6F2" width="3.078" height="9.091"/>
		<rect x="166.153" y="177.273" fill="#494949" width="3.078" height="9.091"/>
		<rect x="166.153" y="190.909" fill="#EEEEEE" width="3.078" height="9.091"/>
	</g>
	<g>
		<g>
			<rect x="166.153" y="36.365" fill="#A6CEE3" stroke="#000000" stroke-opacity="0" width="3.078" height="18.179"/>
		</g>
	</g>
	<g id="annotation-550325bc3e50ca3261215a6c-TCGA-G2-A2ES">
		<rect x="169.231" y="150" fill="#0000FF" width="3.078" height="9.091"/>
		<rect x="169.231" y="163.635" fill="#D8CBE5" width="3.078" height="9.091"/>
		<rect x="169.231" y="177.273" fill="#848484" width="3.078" height="9.091"/>
		<rect x="169.231" y="190.909" fill="#EEEEEE" width="3.078" height="9.091"/>
	</g>
	<g>
		<g>
			<rect x="169.231" y="36.365" fill="#A6CEE3" stroke="#000000" stroke-opacity="0" width="3.078" height="18.179"/>
		</g>
	</g>
	<g id="annotation-550325bc3e50ca3261215a6c-TCGA-G2-A2EF">
		<rect x="172.309" y="150" fill="#0000FF" width="3.076" height="9.091"/>
		<rect x="172.309" y="163.635" fill="#EEEEEE" width="3.076" height="9.091"/>
		<rect x="172.309" y="177.273" fill="#757575" width="3.076" height="9.091"/>
		<rect x="172.309" y="190.909" fill="#EEEEEE" width="3.076" height="9.091"/>
	</g>
	<g>
		<g>
			<rect x="172.309" y="36.365" fill="#A6CEE3" stroke="#000000" stroke-opacity="0" width="3.076" height="18.179"/>
		</g>
		<g>
			<rect x="172.309" y="127.273" fill="#A6CEE3" stroke="#000000" stroke-opacity="0" width="3.076" height="9.091"/>
		</g>
	</g>
	<g id="annotation-5503265d3e50ca326a0545b0-TCGA-A2-A0EQ">
		<rect x="175.385" y="150" fill="#FF0000" width="3.076" height="9.091"/>
		<rect x="175.385" y="163.635" fill="#EEEEEE" width="3.076" height="9.091"/>
		<rect x="175.385" y="177.273" fill="#EEEEEE" width="3.076" height="9.091"/>
		<rect x="175.385" y="190.909" fill="#969696" width="3.076" height="9.091"/>
	</g>
	<g>
		<g>
			<rect x="175.385" y="36.365" fill="#1F78B4" stroke="#000000" stroke-opacity="0" width="3.076" height="18.179"/>
		</g>
	</g>
	<g id="annotation-5503265d3e50ca326a0545b0-TCGA-A8-A06Q">
		<rect x="181.539" y="150" fill="#FF0000" width="3.078" height="9.091"/>
		<rect x="181.539" y="163.635" fill="#EEEEEE" width="3.078" height="9.091"/>
		<rect x="181.539" y="177.273" fill="#3D3D3D" width="3.078" height="9.091"/>
		<rect x="181.539" y="190.909" fill="#756BB1" width="3.078" height="9.091"/>
	</g>
	<g>
		<g>
			<rect x="181.539" y="36.365" fill="#1F78B4" stroke="#000000" stroke-opacity="0" width="3.078" height="18.179"/>
		</g>
	</g>
	<g id="annotation-5503265d3e50ca326a0545b0-TCGA-B6-A0X5">
		<rect x="184.616" y="150" fill="#FF0000" width="3.077" height="9.091"/>
		<rect x="184.616" y="163.635" fill="#B198CA" width="3.077" height="9.091"/>
		<rect x="184.616" y="177.273" fill="#202020" width="3.077" height="9.091"/>
		<rect x="184.616" y="190.909" fill="#756BB1" width="3.077" height="9.091"/>
	</g>
	<g>
		<g>
			<rect x="184.616" y="36.365" fill="#1F78B4" stroke="#000000" stroke-opacity="0" width="3.077" height="18.179"/>
		</g>
	</g>
	<g id="annotation-5503265d3e50ca326a0545b0-TCGA-E2-A10C">
		<rect x="190.769" y="150" fill="#FF0000" width="3.078" height="9.091"/>
		<rect x="190.769" y="163.635" fill="#EEEEEE" width="3.078" height="9.091"/>
		<rect x="190.769" y="177.273" fill="#8C8C8C" width="3.078" height="9.091"/>
		<rect x="190.769" y="190.909" fill="#756BB1" width="3.078" height="9.091"/>
	</g>
	<g>
		<g>
			<rect x="190.769" y="36.365" fill="#1F78B4" stroke="#000000" stroke-opacity="0" width="3.078" height="18.179"/>
		</g>
	</g>
	<g id="annotation-5503265d3e50ca326a0545b0-TCGA-A2-A0T0">
		<rect x="178.461" y="150" fill="#FF0000" width="3.078" height="9.091"/>
		<rect x="178.461" y="163.635" fill="#EEEEEE" width="3.078" height="9.091"/>
		<rect x="178.461" y="177.273" fill="#7E7E7E" width="3.078" height="9.091"/>
		<rect x="178.461" y="190.909" fill="#31A354" width="3.078" height="9.091"/>
	</g>
	<g>
		<g>
			<rect x="178.461" y="36.365" fill="#1F78B4" stroke="#000000" stroke-opacity="0" width="3.078" height="18.179"/>
			<path fill="#888888" stroke="#CCCCCC" stroke-width="0.5" d="M178.461,43.634h3.078v3.641h-3.078V43.634z"/>
		</g>
	</g>
	<g id="annotation-5503265d3e50ca326a0545b0-TCGA-BH-A0B8">
		<rect x="187.693" y="150" fill="#FF0000" width="3.076" height="9.091"/>
		<rect x="187.693" y="163.635" fill="#EEEEEE" width="3.076" height="9.091"/>
		<rect x="187.693" y="177.273" fill="#262626" width="3.076" height="9.091"/>
		<rect x="187.693" y="190.909" fill="#9E9AC8" width="3.076" height="9.091"/>
	</g>
	<g>
		<g>
			<rect x="187.693" y="36.365" fill="#1F78B4" stroke="#000000" stroke-opacity="0" width="3.076" height="18.179"/>
			<path fill="#888888" stroke="#CCCCCC" stroke-width="0.5" d="M187.693,43.634h3.076v3.641h-3.076V43.634z"/>
		</g>
	</g>
	<g id="annotation-5503265d3e50ca326a0545b0-TCGA-E9-A1R3">
		<rect x="193.847" y="150" fill="#FF0000" width="3.078" height="9.091"/>
		<rect x="193.847" y="163.635" fill="#EEEEEE" width="3.078" height="9.091"/>
		<rect x="193.847" y="177.273" fill="#989898" width="3.078" height="9.091"/>
		<rect x="193.847" y="190.909" fill="#EEEEEE" width="3.078" height="9.091"/>
	</g>
	<g>
		<g>
			<rect x="193.847" y="36.365" fill="#1F78B4" stroke="#000000" stroke-opacity="0" width="3.078" height="18.179"/>
			<path fill="#888888" stroke="#CCCCCC" stroke-width="0.5" d="M193.847,43.634h3.078v3.641h-3.078V43.634z"/>
		</g>
	</g>
	<g id="annotation-550327603e50ca3294483a08-TCGA-AA-3518">
		<rect x="196.925" y="150" fill="#FF0000" width="3.075" height="9.091"/>
		<rect x="196.925" y="163.635" fill="#EEEEEE" width="3.075" height="9.091"/>
		<rect x="196.925" y="177.273" fill="#B0B0B0" width="3.075" height="9.091"/>
		<rect x="196.925" y="190.909" fill="#EEEEEE" width="3.075" height="9.091"/>
	</g>
	<g>
		<g>
			<rect x="196.925" y="36.365" fill="#B2DF8A" stroke="#000000" stroke-opacity="0" width="3.075" height="18.179"/>
		</g>
	</g>
</g>
<rect opacity="0.9" fill="#FFFFFF" width="92.735" height="202"/>
<g>
	<text transform="matrix(1 0 0 1 13.2539 15.4521)" fill="#333333" font-family="'HelveticaNeue-Light'" font-size="12.7273">ARID1A (119)</text>
	<text transform="matrix(1 0 0 1 20.8096 33.6328)" fill="#333333" font-family="'HelveticaNeue-Light'" font-size="12.7273">PBRM1 (38)</text>
	<text transform="matrix(1 0 0 1 3.1294 51.8145)" fill="#333333" font-family="'HelveticaNeue-Light'" font-size="12.7273">SMARCA4 (64)</text>
	<text transform="matrix(1 0 0 1 27.1729 69.9961)" fill="#333333" font-family="'HelveticaNeue-Light'" font-size="12.7273">ARID2 (70)</text>
	<text transform="matrix(1 0 0 1 18.6846 88.1782)" fill="#333333" font-family="'HelveticaNeue-Light'" font-size="12.7273">ARID1B (54)</text>
	<text transform="matrix(1 0 0 1 2.4272 106.3604)" fill="#333333" font-family="'HelveticaNeue-Light'" font-size="12.7273">SMARCC2 (33)</text>
	<text transform="matrix(1 0 0 1 2.4272 124.542)" fill="#333333" font-family="'HelveticaNeue-Light'" font-size="12.7273">SMARCC1 (20)</text>
	<text transform="matrix(1 0 0 1 3.1294 142.7236)" fill="#333333" font-family="'HelveticaNeue-Light'" font-size="12.7273">SMARCB1 (18)</text>
	<text transform="matrix(1 0 0 1 61.2554 155.9053)" fill="#333333" font-family="'HelveticaNeue-Light'" font-size="9.0909">Gender</text>
	<text transform="matrix(1 0 0 1 31.4614 169.5425)" fill="#333333" font-family="'HelveticaNeue-Light'" font-size="9.0909">Survival (days)</text>
	<text transform="matrix(1 0 0 1 17.3145 183.1777)" fill="#333333" font-family="'HelveticaNeue-Light'" font-size="9.0909">ABSOLUTE Purity</text>
	<text transform="matrix(1 0 0 1 12.2407 196.8145)" fill="#333333" font-family="'HelveticaNeue-Light'" font-size="9.0909">Expression subtype</text>
</g>
</svg>
