<?xml version="1.0" encoding="utf-8"?>
<!-- Generator: Adobe Illustrator 16.0.0, SVG Export Plug-In . SVG Version: 6.00 Build 0)  -->
<!DOCTYPE svg PUBLIC "-//W3C//DTD SVG 1.1//EN" "http://www.w3.org/Graphics/SVG/1.1/DTD/svg11.dtd">
<svg version="1.1" id="Layer_1" xmlns="http://www.w3.org/2000/svg" xmlns:xlink="http://www.w3.org/1999/xlink" x="0px" y="0px"
	 width="200px" height="200px" viewBox="0 0 200 200" enable-background="new 0 0 200 200" xml:space="preserve">
<rect fill="#F2F2F2" width="200" height="200"/>
<text transform="matrix(1 0 0 1 18.7041 143.8496)" fill="#F7931E" font-family="'HelveticaNeue'" font-size="103.7964">An</text>
<path fill="#666666" d="M165.219,80.534c0.718-2.453,4.095-6.789,5.376-7.795c1.496-1.159,3.313-2.083,5.419-2.747
	c1.383-0.44,4.8-0.5,6.824-0.43l0.276-6.012c-0.982-0.053-6.036-0.236-8.93,0.706c-2.771,0.87-5.219,2.123-7.289,3.736
	c-1.264,0.984-3.128,3.115-4.711,5.466c-1.562-2.261-3.441-4.357-5.014-5.437c-2.676-1.865-5.017-3.095-7.143-3.753
	c-2.91-0.947-7.952-0.765-8.94-0.712l0.283,6.012c1.977-0.064,5.424-0.012,6.841,0.442c1.554,0.482,3.359,1.446,5.536,2.965
	c1.576,1.081,4.545,4.981,5.452,7.474v58.514h-6.018v5.923h4.77c-1.289,2.089-3.101,4.258-4.217,5.029
	c-2.164,1.5-3.976,2.476-5.546,2.971c-1.395,0.447-4.818,0.5-6.825,0.428l-0.276,6.014c0.323,0.017,1.082,0.046,2.059,0.046
	c2.006,0,4.925-0.123,6.871-0.747c2.148-0.682,4.489-1.918,7.143-3.759c1.579-1.086,3.458-3.185,5.02-5.448
	c1.586,2.358,3.457,4.496,4.728,5.482c2.053,1.589,4.5,2.842,7.266,3.725c1.959,0.624,4.882,0.747,6.883,0.747
	c0.976,0,1.734-0.03,2.059-0.046l-0.276-6.014c-2.018,0.071-5.441,0.019-6.836-0.428c-2.094-0.664-3.919-1.588-5.407-2.741
	c-0.902-0.705-2.84-3.062-4.161-5.258h4.739v-5.923h-6.037V80.51L165.219,80.534z"/>
</svg>
