<?xml version="1.0" encoding="utf-8"?>
<!-- Generator: Adobe Illustrator 16.0.0, SVG Export Plug-In . SVG Version: 6.00 Build 0)  -->
<!DOCTYPE svg PUBLIC "-//W3C//DTD SVG 1.1//EN" "http://www.w3.org/Graphics/SVG/1.1/DTD/svg11.dtd">
<svg version="1.1" id="Layer_1" xmlns="http://www.w3.org/2000/svg" xmlns:xlink="http://www.w3.org/1999/xlink" x="0px" y="0px"
	 width="200px" height="200px" viewBox="0 0 200 200" enable-background="new 0 0 200 200" xml:space="preserve">
<g>
	<rect fill="#F6F6F6" width="200" height="200"/>
	<rect y="20.985" fill="#CCCCCC" width="200" height="29.839"/>
	<rect id="gene-0" x="99.244" y="10.325" fill="#FF0000" width="3.289" height="51.151"/>
	<rect id="gene-1" x="93.833" y="10.325" fill="#AAAAAA" fill-opacity="0.2" width="0.002" height="51.151"/>
	<rect id="gene-2" x="102.757" y="10.325" fill="#AAAAAA" fill-opacity="0.2" width="0.403" height="51.151"/>
	<rect id="gene-3" x="92.884" y="10.325" fill="#AAAAAA" fill-opacity="0.2" width="1.732" height="51.151"/>
	<rect id="gene-4" x="93.833" y="10.325" fill="#AAAAAA" fill-opacity="0.2" width="0.002" height="51.151"/>
	<rect id="gene-7" x="131.303" y="10.325" fill="#AAAAAA" fill-opacity="0.2" width="2.658" height="51.151"/>
	<rect id="gene-9" x="99.244" y="10.325" fill="#FF0000" width="3.289" height="51.151"/>
	<rect id="gene-10" x="158.146" y="10.325" fill="#AAAAAA" fill-opacity="0.2" width="0.079" height="51.151"/>
	<rect id="gene-13" x="108.936" y="10.325" fill="#AAAAAA" fill-opacity="0.2" width="0.418" height="51.151"/>
	<rect id="gene-16" x="144.246" y="10.325" fill="#AAAAAA" fill-opacity="0.2" width="0.542" height="51.151"/>
	<rect id="gene-19" x="125.366" y="10.325" fill="#AAAAAA" fill-opacity="0.2" width="0.167" height="51.151"/>
	<rect id="gene-27" x="156.777" y="10.325" fill="#AAAAAA" fill-opacity="0.2" width="1.253" height="51.151"/>
	<rect id="gene-32" x="183.043" y="10.325" fill="#AAAAAA" fill-opacity="0.2" width="8.916" height="51.151"/>
	<rect id="gene-33" x="147.981" y="10.325" fill="#AAAAAA" fill-opacity="0.2" width="4.526" height="51.151"/>
	<rect id="gene-37" x="111.062" y="10.325" fill="#AAAAAA" fill-opacity="0.2" width="0.3" height="51.151"/>
	<rect id="gene-38" x="138.637" y="10.325" fill="#AAAAAA" fill-opacity="0.2" width="1.412" height="51.151"/>
	<rect id="gene-39" x="124.99" y="10.325" fill="#AAAAAA" fill-opacity="0.2" width="0.218" height="51.151"/>
	<rect id="gene-40" x="134.292" y="10.325" fill="#AAAAAA" fill-opacity="0.2" width="0.875" height="51.151"/>
	<rect id="gene-46" x="174.694" y="10.325" fill="#AAAAAA" fill-opacity="0.2" width="1.796" height="51.151"/>
	<rect id="gene-47" x="106.686" y="10.325" fill="#AAAAAA" fill-opacity="0.2" width="0.375" height="51.151"/>
	<rect id="gene-48" x="106.26" y="10.325" fill="#AAAAAA" fill-opacity="0.2" width="0.419" height="51.151"/>
	<rect id="gene-49" x="125.887" y="10.325" fill="#AAAAAA" fill-opacity="0.2" width="0.121" height="51.151"/>
	<rect id="gene-55" x="136.348" y="10.325" fill="#AAAAAA" fill-opacity="0.2" width="0.233" height="51.151"/>
	<rect id="gene-68" x="123.259" y="10.325" fill="#AAAAAA" fill-opacity="0.2" width="0.103" height="51.151"/>
	<rect id="gene-70" x="152.746" y="10.325" fill="#AAAAAA" fill-opacity="0.2" width="0.067" height="51.151"/>
	<rect id="gene-72" x="124.457" y="10.325" fill="#AAAAAA" fill-opacity="0.2" width="0.443" height="51.151"/>
	<rect id="gene-76" x="194.739" y="10.325" fill="#AAAAAA" fill-opacity="0.2" width="1.462" height="51.151"/>
	<rect id="gene-77" x="161.7" y="10.325" fill="#AAAAAA" fill-opacity="0.2" width="0.262" height="51.151"/>
	<rect id="gene-86" x="107.484" y="10.325" fill="#AAAAAA" fill-opacity="0.2" width="0.099" height="51.151"/>
	<rect id="gene-87" x="107.879" y="10.325" fill="#AAAAAA" fill-opacity="0.2" width="0.936" height="51.151"/>
	<rect id="gene-88" x="180.182" y="10.325" fill="#AAAAAA" fill-opacity="0.2" width="1.971" height="51.151"/>
	<rect id="gene-91" x="163.249" y="10.325" fill="#AAAAAA" fill-opacity="0.2" width="5.011" height="51.151"/>
	<rect id="gene-93" x="102.757" y="10.325" fill="#AAAAAA" fill-opacity="0.2" width="0.403" height="51.151"/>
	<rect id="gene-94" x="142.646" y="10.325" fill="#AAAAAA" fill-opacity="0.2" width="0.796" height="51.151"/>
	<rect id="gene-97" x="154.75" y="10.325" fill="#AAAAAA" fill-opacity="0.2" width="1.782" height="51.151"/>
	<rect id="gene-99" x="196.413" y="10.325" fill="#AAAAAA" fill-opacity="0.2" width="3.454" height="51.151"/>
	<rect id="gene-101" x="171.767" y="10.325" fill="#AAAAAA" fill-opacity="0.2" width="0.093" height="51.151"/>
	<rect id="gene-103" x="168.467" y="10.325" fill="#AAAAAA" fill-opacity="0.2" width="1.27" height="51.151"/>
	<rect id="gene-105" x="173.925" y="10.325" fill="#AAAAAA" fill-opacity="0.2" width="0.004" height="51.151"/>
	<rect id="gene-106" x="144.966" y="10.325" fill="#AAAAAA" fill-opacity="0.2" width="0.892" height="51.151"/>
	<rect id="gene-108" x="142.782" y="10.325" fill="#AAAAAA" fill-opacity="0.2" width="0.005" height="51.151"/>
	<rect id="gene-111" x="159.036" y="10.325" fill="#AAAAAA" fill-opacity="0.2" width="0.888" height="51.151"/>
	<rect id="gene-112" x="105.635" y="10.325" fill="#AAAAAA" fill-opacity="0.2" width="0.046" height="51.151"/>
	<rect id="gene-115" x="114.646" y="10.325" fill="#AAAAAA" fill-opacity="0.2" width="2.149" height="51.151"/>
	<rect id="gene-116" x="146.633" y="10.325" fill="#AAAAAA" fill-opacity="0.2" width="0.918" height="51.151"/>
	<rect id="gene-117" x="171.242" y="10.325" fill="#AAAAAA" fill-opacity="0.2" width="0.126" height="51.151"/>
	<rect id="gene-118" x="168.467" y="10.325" fill="#AAAAAA" fill-opacity="0.2" width="0.188" height="51.151"/>
	<rect id="gene-119" x="171.335" y="10.325" fill="#AAAAAA" fill-opacity="0.2" width="0.004" height="51.151"/>
	<rect id="gene-120" x="171.317" y="10.325" fill="#AAAAAA" fill-opacity="0.2" width="0.003" height="51.151"/>
	<rect id="gene-121" x="171.295" y="10.325" fill="#AAAAAA" fill-opacity="0.2" width="0.004" height="51.151"/>
	<rect id="gene-125" x="171.25" y="10.325" fill="#AAAAAA" fill-opacity="0.2" width="0.002" height="51.151"/>
	<rect id="gene-128" x="193.01" y="10.325" fill="#AAAAAA" fill-opacity="0.2" width="1.314" height="51.151"/>
	<rect id="gene-130" x="140.444" y="10.325" fill="#AAAAAA" fill-opacity="0.2" width="1.962" height="51.151"/>
	<rect id="gene-132" x="123.948" y="10.325" fill="#AAAAAA" fill-opacity="0.2" width="0.456" height="51.151"/>
	<rect id="gene-133" x="172.185" y="10.325" fill="#AAAAAA" fill-opacity="0.2" width="1.528" height="51.151"/>
	<rect id="gene-138" x="191.928" y="10.325" fill="#AAAAAA" fill-opacity="0.2" width="0.177" height="51.151"/>
	<rect id="gene-139" x="123.191" y="10.325" fill="#AAAAAA" fill-opacity="0.2" width="0.544" height="51.151"/>
	<rect id="gene-145" x="170.268" y="10.325" fill="#AAAAAA" fill-opacity="0.2" width="0.975" height="51.151"/>
	<rect id="gene-146" x="110.629" y="10.325" fill="#AAAAAA" fill-opacity="0.2" width="0.278" height="51.151"/>
	<rect id="gene-149" x="126.329" y="10.325" fill="#AAAAAA" fill-opacity="0.2" width="3.291" height="51.151"/>
	<rect id="gene-150" x="119.836" y="10.325" fill="#AAAAAA" fill-opacity="0.2" width="2.834" height="51.151"/>
	<rect id="gene-151" x="147.589" y="10.325" fill="#AAAAAA" fill-opacity="0.2" width="0.304" height="51.151"/>
	<rect id="gene-153" x="177.29" y="10.325" fill="#AAAAAA" fill-opacity="0.2" width="1.271" height="51.151"/>
	<rect id="gene-158" x="104.242" y="10.325" fill="#AAAAAA" fill-opacity="0.2" width="1.107" height="51.151"/>
	<rect id="gene-175" x="84.936" y="10.325" fill="#AAAAAA" fill-opacity="0.2" width="1.23" height="51.151"/>
	<rect id="gene-195" x="17.402" y="10.325" fill="#AAAAAA" fill-opacity="0.2" width="2.027" height="51.151"/>
	<rect id="gene-196" x="66.273" y="10.325" fill="#AAAAAA" fill-opacity="0.2" width="0.967" height="51.151"/>
	<rect id="gene-203" x="9.782" y="10.325" fill="#AAAAAA" fill-opacity="0.2" width="2.226" height="51.151"/>
	<rect id="gene-205" x="43.641" y="10.325" fill="#AAAAAA" fill-opacity="0.2" width="0.202" height="51.151"/>
	<rect id="gene-215" x="79.911" y="10.325" fill="#AAAAAA" fill-opacity="0.2" width="0.455" height="51.151"/>
	<rect id="gene-217" x="84.781" y="10.325" fill="#AAAAAA" fill-opacity="0.2" width="0.099" height="51.151"/>
	<rect id="gene-225" x="81.583" y="10.325" fill="#AAAAAA" fill-opacity="0.2" width="1.699" height="51.151"/>
	<rect id="gene-230" x="24.628" y="10.325" fill="#AAAAAA" fill-opacity="0.2" width="3.79" height="51.151"/>
	<rect id="gene-232" x="79.415" y="10.325" fill="#AAAAAA" fill-opacity="0.2" width="0.472" height="51.151"/>
	<rect id="gene-244" x="89.159" y="10.325" fill="#AAAAAA" fill-opacity="0.2" width="1.484" height="51.151"/>
	<rect id="gene-261" x="73.459" y="10.325" fill="#AAAAAA" fill-opacity="0.2" width="0.559" height="51.151"/>
	<rect id="gene-262" x="78.704" y="10.325" fill="#AAAAAA" fill-opacity="0.2" width="0.137" height="51.151"/>
	<rect id="gene-266" x="65.732" y="10.325" fill="#AAAAAA" fill-opacity="0.2" width="0.503" height="51.151"/>
	<rect id="gene-280" x="8.343" y="10.325" fill="#AAAAAA" fill-opacity="0.2" width="1.729" height="51.151"/>
	<rect id="gene-286" x="90.694" y="10.325" fill="#AAAAAA" fill-opacity="0.2" width="0.155" height="51.151"/>
	<rect id="gene-298" x="0.706" y="10.325" fill="#AAAAAA" fill-opacity="0.2" width="0.907" height="51.151"/>
	<rect id="gene-299" x="2.026" y="10.325" fill="#AAAAAA" fill-opacity="0.2" width="1.263" height="51.151"/>
	<rect id="gene-311" x="55.17" y="10.325" fill="#AAAAAA" fill-opacity="0.2" width="0.963" height="51.151"/>
	<rect id="gene-312" x="88.333" y="10.325" fill="#AAAAAA" fill-opacity="0.2" width="0.728" height="51.151"/>
	<rect id="gene-321" x="3.789" y="10.325" fill="#AAAAAA" fill-opacity="0.2" width="0.438" height="51.151"/>
	<rect id="gene-326" x="65.733" y="10.325" fill="#AAAAAA" fill-opacity="0.2" width="0.144" height="51.151"/>
	<rect id="gene-336" x="57.996" y="10.325" fill="#AAAAAA" fill-opacity="0.2" width="6.398" height="51.151"/>
	<rect id="gene-348" x="69.043" y="10.325" fill="#AAAAAA" fill-opacity="0.2" width="0.004" height="51.151"/>
	<rect id="gene-371" x="12.031" y="10.325" fill="#AAAAAA" fill-opacity="0.2" width="2.187" height="51.151"/>
	<rect id="gene-384" x="71.088" y="10.325" fill="#AAAAAA" fill-opacity="0.2" width="1.462" height="51.151"/>
	<rect id="gene-386" x="67.326" y="10.325" fill="#AAAAAA" fill-opacity="0.2" width="0.369" height="51.151"/>
	<rect id="gene-389" x="76.873" y="10.325" fill="#AAAAAA" fill-opacity="0.2" width="0.549" height="51.151"/>
	<rect id="gene-439" x="15.346" y="10.325" fill="#AAAAAA" fill-opacity="0.2" width="1.324" height="51.151"/>
	<rect id="gene-440" x="15.108" y="10.325" fill="#AAAAAA" fill-opacity="0.2" width="0.238" height="51.151"/>
	<rect id="gene-444" x="48.226" y="10.325" fill="#AAAAAA" fill-opacity="0.2" width="2.245" height="51.151"/>
	<rect id="gene-445" x="44.799" y="10.325" fill="#AAAAAA" fill-opacity="0.2" width="2.212" height="51.151"/>
	<rect id="gene-452" x="30.533" y="10.325" fill="#AAAAAA" fill-opacity="0.2" width="2.504" height="51.151"/>
	<rect id="gene-454" x="64.978" y="10.325" fill="#AAAAAA" fill-opacity="0.2" width="0.695" height="51.151"/>
	<rect id="gene-456" x="83.325" y="10.325" fill="#AAAAAA" fill-opacity="0.2" width="0.063" height="51.151"/>
	<rect id="gene-462" x="74.074" y="10.325" fill="#AAAAAA" fill-opacity="0.2" width="0.309" height="51.151"/>
	<rect id="gene-470" x="20.723" y="10.325" fill="#AAAAAA" fill-opacity="0.2" width="1.158" height="51.151"/>
	<rect id="gene-472" x="68.194" y="10.325" fill="#AAAAAA" fill-opacity="0.2" width="0.855" height="51.151"/>
	<rect id="gene-473" x="42.878" y="10.325" fill="#AAAAAA" fill-opacity="0.2" width="0.395" height="51.151"/>
	<rect id="gene-482" x="47.315" y="10.325" fill="#AAAAAA" fill-opacity="0.2" width="0.921" height="51.151"/>
	<rect id="gene-485" x="50.858" y="10.325" fill="#AAAAAA" fill-opacity="0.2" width="2.646" height="51.151"/>
	<rect id="gene-495" x="74.585" y="10.325" fill="#AAAAAA" fill-opacity="0.2" width="0.626" height="51.151"/>
	<rect id="gene-501" x="83.423" y="10.325" fill="#AAAAAA" fill-opacity="0.2" width="1.369" height="51.151"/>
	<rect id="gene-514" x="79.12" y="10.325" fill="#AAAAAA" fill-opacity="0.2" width="0.035" height="51.151"/>
	<rect id="gene-515" x="86.458" y="10.325" fill="#AAAAAA" fill-opacity="0.2" width="0.426" height="51.151"/>
	<g>
		<g>
			
				<rect id="interval-0" x="92.657" y="72.126" fill="#1F78B4" stroke="#000000" stroke-opacity="0" width="3.013" height="10.662"/>
		</g>
		<g>
			
				<rect id="interval-1" x="95.761" y="84.922" fill="#1F78B4" stroke="#000000" stroke-opacity="0" width="6.496" height="10.651"/>
		</g>
		<g>
			
				<rect id="interval-2" x="1.159" y="97.707" fill="#B2DF8A" stroke="#000000" stroke-opacity="0" width="198.707" height="10.651"/>
		</g>
		<g>
			<rect id="interval-3" y="110.493" fill="#B2DF8A" stroke="#000000" stroke-opacity="0" width="200" height="10.651"/>
		</g>
		<g>
			<rect id="interval-4" y="123.278" fill="#33A02C" stroke="#000000" stroke-opacity="0" width="200" height="10.661"/>
		</g>
		<g>
			
				<rect id="interval-5" x="98.959" y="136.063" fill="#6A3D9A" stroke="#000000" stroke-opacity="0" width="100.907" height="10.661"/>
		</g>
		<g>
			<rect id="interval-6" y="148.849" fill="#6A3D9A" stroke="#000000" stroke-opacity="0" width="200" height="10.661"/>
		</g>
		<g>
			<rect id="interval-7" y="161.644" fill="#6A3D9A" stroke="#000000" stroke-opacity="0" width="200" height="10.651"/>
		</g>
		<g>
			<rect id="interval-8" y="174.429" fill="#6A3D9A" stroke="#000000" stroke-opacity="0" width="151.967" height="10.651"/>
		</g>
		<g>
			<rect id="interval-9" y="187.214" fill="#6A3D9A" stroke="#000000" stroke-opacity="0" width="200" height="10.651"/>
		</g>
	</g>
	<rect x="99.244" y="-0.327" fill="#FF0000" fill-opacity="0.5" width="3.289" height="200.327"/>
	<rect x="99.244" y="-0.327" fill="#FF0000" fill-opacity="0.5" width="3.289" height="200.327"/>
	<text transform="matrix(1 0 0 1 57.3525 46.561)" fill="#333333" font-family="'HelveticaNeue-Light'" font-size="25.5737">ARID1A</text>
</g>
</svg>
