<?xml version="1.0" encoding="utf-8"?>
<!-- Generator: Adobe Illustrator 16.0.0, SVG Export Plug-In . SVG Version: 6.00 Build 0)  -->
<!DOCTYPE svg PUBLIC "-//W3C//DTD SVG 1.1//EN" "http://www.w3.org/Graphics/SVG/1.1/DTD/svg11.dtd">
<svg version="1.1" id="Layer_1" xmlns="http://www.w3.org/2000/svg" xmlns:xlink="http://www.w3.org/1999/xlink" x="0px" y="0px"
	 width="200px" height="200px" viewBox="0 0 200 200" enable-background="new 0 0 200 200" xml:space="preserve">
<g>
	<g>
		<g>
			<line fill="none" stroke="#1F77B4" stroke-width="3" stroke-linecap="round" x1="94.083" y1="45.613" x2="44.221" y2="150.538"/>
			<line fill="none" stroke="#FF7F0E" stroke-width="3" stroke-linecap="round" x1="96.706" y1="48.236" x2="46.844" y2="153.161"/>
			<line fill="none" stroke="#2CA02C" stroke-width="3" stroke-linecap="round" x1="99.329" y1="50.859" x2="49.467" y2="155.784"/>
			<line fill="none" stroke="#D62728" stroke-width="3" stroke-linecap="round" x1="101.952" y1="53.482" x2="52.09" y2="158.407"/>
		</g>
		<g>
			<line fill="none" stroke="#1F77B4" stroke-width="3" stroke-linecap="round" x1="27.291" y1="96.473" x2="94.083" y2="45.613"/>
			<line fill="none" stroke="#FF7F0E" stroke-width="3" stroke-linecap="round" x1="29.914" y1="99.096" x2="96.706" y2="48.236"/>
			<line fill="none" stroke="#2CA02C" stroke-width="3" stroke-linecap="round" x1="32.537" y1="101.719" x2="99.329" y2="50.859"/>
			<line fill="none" stroke="#D62728" stroke-width="3" stroke-linecap="round" x1="35.16" y1="104.342" x2="101.952" y2="53.482"/>
		</g>
		<g>
			<line fill="none" stroke="#1F77B4" stroke-width="3" stroke-linecap="round" x1="95.394" y1="46.924" x2="89.565" y2="119.806"/>
			<line fill="none" stroke="#FF7F0E" stroke-width="3" stroke-linecap="round" x1="98.017" y1="49.547" x2="92.188" y2="122.429"/>
			<line fill="none" stroke="#D62728" stroke-width="3" stroke-linecap="round" x1="100.64" y1="52.17" x2="94.811" y2="125.052"/>
		</g>
		<g>
			<line fill="none" stroke="#1F77B4" stroke-width="3" stroke-linecap="round" x1="7.027" y1="79.971" x2="94.083" y2="45.613"/>
			<line fill="none" stroke="#FF7F0E" stroke-width="3" stroke-linecap="round" x1="9.65" y1="82.594" x2="96.706" y2="48.236"/>
			<line fill="none" stroke="#2CA02C" stroke-width="3" stroke-linecap="round" x1="12.273" y1="85.217" x2="99.329" y2="50.859"/>
			<line fill="none" stroke="#D62728" stroke-width="3" stroke-linecap="round" x1="14.896" y1="87.84" x2="101.952" y2="53.482"/>
		</g>
		<g>
			
				<line fill="none" stroke="#1F77B4" stroke-width="3" stroke-linecap="round" x1="130.726" y1="159.038" x2="95.394" y2="46.924"/>
			
				<line fill="none" stroke="#FF7F0E" stroke-width="3" stroke-linecap="round" x1="133.349" y1="161.661" x2="98.017" y2="49.547"/>
			<line fill="none" stroke="#2CA02C" stroke-width="3" stroke-linecap="round" x1="135.972" y1="164.284" x2="100.64" y2="52.17"/>
		</g>
		<g>
			<line fill="none" stroke="#1F77B4" stroke-width="3" stroke-linecap="round" x1="94.083" y1="45.613" x2="128.85" y2="80.436"/>
			<line fill="none" stroke="#FF7F0E" stroke-width="3" stroke-linecap="round" x1="96.706" y1="48.236" x2="131.473" y2="83.059"/>
			<line fill="none" stroke="#2CA02C" stroke-width="3" stroke-linecap="round" x1="99.329" y1="50.859" x2="134.096" y2="85.682"/>
			
				<line fill="none" stroke="#D62728" stroke-width="3" stroke-linecap="round" x1="101.952" y1="53.482" x2="136.718" y2="88.305"/>
		</g>
		<g>
			<line fill="none" stroke="#1F77B4" stroke-width="3" stroke-linecap="round" x1="40.736" y1="26.083" x2="94.083" y2="45.613"/>
			<line fill="none" stroke="#FF7F0E" stroke-width="3" stroke-linecap="round" x1="43.359" y1="28.706" x2="96.706" y2="48.236"/>
			<line fill="none" stroke="#2CA02C" stroke-width="3" stroke-linecap="round" x1="45.982" y1="31.329" x2="99.329" y2="50.859"/>
			<line fill="none" stroke="#D62728" stroke-width="3" stroke-linecap="round" x1="48.605" y1="33.952" x2="101.952" y2="53.482"/>
		</g>
		<g>
			<line fill="none" stroke="#1F77B4" stroke-width="3" stroke-linecap="round" x1="45.532" y1="151.85" x2="130.161" y2="81.748"/>
			
				<line fill="none" stroke="#FF7F0E" stroke-width="3" stroke-linecap="round" x1="48.155" y1="154.473" x2="132.784" y2="84.371"/>
			
				<line fill="none" stroke="#D62728" stroke-width="3" stroke-linecap="round" x1="50.778" y1="157.096" x2="135.407" y2="86.994"/>
		</g>
		<g>
			<line fill="none" stroke="#1F77B4" stroke-width="3" stroke-linecap="round" x1="42.047" y1="27.394" x2="45.532" y2="151.85"/>
			<line fill="none" stroke="#FF7F0E" stroke-width="3" stroke-linecap="round" x1="44.67" y1="30.017" x2="48.155" y2="154.473"/>
			<line fill="none" stroke="#D62728" stroke-width="3" stroke-linecap="round" x1="47.294" y1="32.64" x2="50.778" y2="157.096"/>
		</g>
		<g>
			<line fill="none" stroke="#1F77B4" stroke-width="3" stroke-linecap="round" x1="45.532" y1="151.85" x2="89.565" y2="119.806"/>
			
				<line fill="none" stroke="#FF7F0E" stroke-width="3" stroke-linecap="round" x1="48.155" y1="154.473" x2="92.188" y2="122.429"/>
			
				<line fill="none" stroke="#D62728" stroke-width="3" stroke-linecap="round" x1="50.778" y1="157.096" x2="94.811" y2="125.052"/>
		</g>
		<g>
			<line fill="none" stroke="#1F77B4" stroke-width="3" stroke-linecap="round" x1="9.65" y1="82.594" x2="46.844" y2="153.161"/>
			<line fill="none" stroke="#FF7F0E" stroke-width="3" stroke-linecap="round" x1="12.273" y1="85.217" x2="49.467" y2="155.784"/>
		</g>
		<g>
			
				<line fill="none" stroke="#1F77B4" stroke-width="3" stroke-linecap="round" x1="132.038" y1="160.349" x2="46.844" y2="153.161"/>
			
				<line fill="none" stroke="#FF7F0E" stroke-width="3" stroke-linecap="round" x1="134.661" y1="162.972" x2="49.467" y2="155.784"/>
		</g>
		<g>
			
				<line fill="none" stroke="#1F77B4" stroke-width="3" stroke-linecap="round" x1="31.225" y1="100.408" x2="48.155" y2="154.473"/>
		</g>
		<g>
			
				<line fill="none" stroke="#1F77B4" stroke-width="3" stroke-linecap="round" x1="130.161" y1="81.748" x2="89.565" y2="119.806"/>
			
				<line fill="none" stroke="#FF7F0E" stroke-width="3" stroke-linecap="round" x1="132.784" y1="84.371" x2="92.188" y2="122.429"/>
			
				<line fill="none" stroke="#D62728" stroke-width="3" stroke-linecap="round" x1="135.407" y1="86.994" x2="94.811" y2="125.052"/>
		</g>
		<g>
			<line fill="none" stroke="#1F77B4" stroke-width="3" stroke-linecap="round" x1="43.359" y1="28.706" x2="90.876" y2="121.117"/>
			<line fill="none" stroke="#FF7F0E" stroke-width="3" stroke-linecap="round" x1="45.982" y1="31.329" x2="93.5" y2="123.74"/>
		</g>
		<g>
			<line fill="none" stroke="#1F77B4" stroke-width="3" stroke-linecap="round" x1="8.339" y1="81.283" x2="89.565" y2="119.806"/>
			<line fill="none" stroke="#FF7F0E" stroke-width="3" stroke-linecap="round" x1="10.962" y1="83.906" x2="92.188" y2="122.429"/>
			<line fill="none" stroke="#D62728" stroke-width="3" stroke-linecap="round" x1="13.585" y1="86.529" x2="94.811" y2="125.052"/>
		</g>
		<g>
			
				<line fill="none" stroke="#1F77B4" stroke-width="3" stroke-linecap="round" x1="133.349" y1="161.661" x2="92.188" y2="122.429"/>
		</g>
		<g>
			<line fill="none" stroke="#1F77B4" stroke-width="3" stroke-linecap="round" x1="28.602" y1="97.784" x2="89.565" y2="119.806"/>
			
				<line fill="none" stroke="#FF7F0E" stroke-width="3" stroke-linecap="round" x1="31.225" y1="100.408" x2="92.188" y2="122.429"/>
			
				<line fill="none" stroke="#D62728" stroke-width="3" stroke-linecap="round" x1="33.848" y1="103.031" x2="94.811" y2="125.052"/>
		</g>
		<g>
			<line fill="none" stroke="#1F77B4" stroke-width="3" stroke-linecap="round" x1="43.359" y1="28.706" x2="29.914" y2="99.096"/>
			<line fill="none" stroke="#FF7F0E" stroke-width="3" stroke-linecap="round" x1="45.982" y1="31.329" x2="32.537" y2="101.719"/>
		</g>
		<g>
			<line fill="none" stroke="#1F77B4" stroke-width="3" stroke-linecap="round" x1="28.602" y1="97.784" x2="130.161" y2="81.748"/>
			
				<line fill="none" stroke="#FF7F0E" stroke-width="3" stroke-linecap="round" x1="31.225" y1="100.408" x2="132.784" y2="84.371"/>
			
				<line fill="none" stroke="#D62728" stroke-width="3" stroke-linecap="round" x1="33.848" y1="103.031" x2="135.407" y2="86.994"/>
		</g>
		<g>
			
				<line fill="none" stroke="#1F77B4" stroke-width="3" stroke-linecap="round" x1="132.038" y1="160.349" x2="29.914" y2="99.096"/>
			
				<line fill="none" stroke="#FF7F0E" stroke-width="3" stroke-linecap="round" x1="134.661" y1="162.972" x2="32.537" y2="101.719"/>
		</g>
		<g>
			<line fill="none" stroke="#1F77B4" stroke-width="3" stroke-linecap="round" x1="8.339" y1="81.283" x2="130.161" y2="81.748"/>
			<line fill="none" stroke="#FF7F0E" stroke-width="3" stroke-linecap="round" x1="10.962" y1="83.906" x2="132.784" y2="84.371"/>
			<line fill="none" stroke="#D62728" stroke-width="3" stroke-linecap="round" x1="13.585" y1="86.529" x2="135.407" y2="86.994"/>
		</g>
		<g>
			
				<line fill="none" stroke="#1F77B4" stroke-width="3" stroke-linecap="round" x1="133.349" y1="161.661" x2="132.784" y2="84.371"/>
		</g>
		<g>
			<line fill="none" stroke="#1F77B4" stroke-width="3" stroke-linecap="round" x1="42.047" y1="27.394" x2="130.161" y2="81.748"/>
			<line fill="none" stroke="#FF7F0E" stroke-width="3" stroke-linecap="round" x1="44.67" y1="30.017" x2="132.784" y2="84.371"/>
			<line fill="none" stroke="#D62728" stroke-width="3" stroke-linecap="round" x1="47.294" y1="32.64" x2="135.407" y2="86.994"/>
		</g>
		<g>
			<line fill="none" stroke="#1F77B4" stroke-width="3" stroke-linecap="round" x1="43.359" y1="28.706" x2="9.65" y2="82.594"/>
			<line fill="none" stroke="#FF7F0E" stroke-width="3" stroke-linecap="round" x1="45.982" y1="31.329" x2="12.273" y2="85.217"/>
		</g>
	</g>
	<circle fill="#FF3333" stroke="#333333" stroke-width="2" cx="45.982" cy="31.329" r="8.744"/>
	<text transform="matrix(1 0 0 1 56.4746 41.8213)" fill="#333333" font-family="'Arial-BoldMT'" font-size="10.4923">ARID1A</text>
	<circle fill="#F45656" stroke="#333333" stroke-width="2" cx="32.537" cy="101.719" r="8.744"/>
	<text transform="matrix(1 0 0 1 43.0293 112.2119)" fill="#333333" font-family="'Arial-BoldMT'" font-size="10.4923">PBRM1</text>
	<circle fill="#C091B8" stroke="#333333" stroke-width="2" cx="99.329" cy="50.859" r="8.744"/>
	<text transform="matrix(1 0 0 1 109.8213 61.3516)" fill="#333333" font-family="'Arial-BoldMT'" font-size="10.4923">SMARCA4</text>
	<circle fill="#BF92BA" stroke="#333333" stroke-width="2" cx="134.661" cy="162.972" r="8.744"/>
	<text transform="matrix(1 0 0 1 145.1533 173.4648)" fill="#333333" font-family="'Arial-BoldMT'" font-size="10.4923">ARID2</text>
	<circle fill="#AB9DD0" stroke="#333333" stroke-width="2" cx="12.273" cy="85.217" r="8.744"/>
	<text transform="matrix(1 0 0 1 22.7666 95.71)" fill="#333333" font-family="'Arial-BoldMT'" font-size="10.4923">ARID1B</text>
	<circle fill="#86ABEE" stroke="#333333" stroke-width="2" cx="93.5" cy="123.74" r="8.744"/>
	<text transform="matrix(1 0 0 1 103.9922 134.2324)" fill="#333333" font-family="'Arial-BoldMT'" font-size="10.4923">SMARCC2</text>
	<circle fill="#6EB1FC" stroke="#333333" stroke-width="2" cx="134.096" cy="85.682" r="8.744"/>
	<text transform="matrix(1 0 0 1 144.5879 96.1748)" fill="#333333" font-family="'Arial-BoldMT'" font-size="10.4923">SMARCC1</text>
	<circle fill="#66B2FF" stroke="#333333" stroke-width="2" cx="49.467" cy="155.784" r="8.744"/>
	<text transform="matrix(1 0 0 1 59.959 166.2764)" fill="#333333" font-family="'Arial-BoldMT'" font-size="10.4923">SMARCB1</text>
</g>
</svg>
