<?xml version="1.0" encoding="utf-8"?>
<!-- Generator: Adobe Illustrator 16.0.0, SVG Export Plug-In . SVG Version: 6.00 Build 0)  -->
<!DOCTYPE svg PUBLIC "-//W3C//DTD SVG 1.1//EN" "http://www.w3.org/Graphics/SVG/1.1/DTD/svg11.dtd">
<svg version="1.1" id="Layer_1" xmlns="http://www.w3.org/2000/svg" xmlns:xlink="http://www.w3.org/1999/xlink" x="0px" y="0px"
	 width="500px" height="137.5px" viewBox="0 0 500 137.5" enable-background="new 0 0 500 137.5" xml:space="preserve">
<g>
	
		<linearGradient id="SVGID_1_" gradientUnits="userSpaceOnUse" x1="-178.5483" y1="164.1685" x2="-15.7846" y2="164.1685" gradientTransform="matrix(0.6154 0.6154 -1.1787 1.1787 245.8462 -149.6598)">
		<stop  offset="0" style="stop-color:#009AD1"/>
		<stop  offset="1" style="stop-color:#006880"/>
	</linearGradient>
	<path fill="url(#SVGID_1_)" d="M39.896,35.565l4.212-4.116C42.569,32.69,41.167,34.063,39.896,35.565z"/>
	
		<linearGradient id="SVGID_2_" gradientUnits="userSpaceOnUse" x1="-64.3721" y1="144.0498" x2="66.4842" y2="144.0498" gradientTransform="matrix(0.5242 0.5242 -1.1787 1.1787 269.308 -126.1957)">
		<stop  offset="0" style="stop-color:#009689"/>
		<stop  offset="1" style="stop-color:#006544"/>
	</linearGradient>
	<path fill="url(#SVGID_2_)" d="M49.188,28.072c4.647-2.517,10.299-3.774,16.963-3.774c3.643,0,7.132,0.583,10.461,1.745
		c3.328,1.168,6.311,2.794,8.949,4.884c2.638,2.082,4.838,4.508,6.603,7.265c1.756,2.764,2.883,5.804,3.39,9.115h28.644
		c-0.876-7.61-3.016-14.357-6.404-20.245c-3.391-5.896-7.7-10.83-12.915-14.823c-5.215-3.984-11.119-7.018-17.715-9.108
		c-3.431-1.088-6.976-1.885-10.629-2.404L47.591,28.996C48.111,28.678,48.644,28.368,49.188,28.072z"/>
	
		<linearGradient id="SVGID_3_" gradientUnits="userSpaceOnUse" x1="-65.4282" y1="180.2759" x2="65.7598" y2="180.2759" gradientTransform="matrix(0.5242 0.5242 -1.1787 1.1787 269.308 -126.1957)">
		<stop  offset="0" style="stop-color:#009689"/>
		<stop  offset="1" style="stop-color:#006544"/>
	</linearGradient>
	<path fill="url(#SVGID_3_)" d="M125.332,83.939H96.681c-1.127,8.831-4.241,15.954-9.325,21.347
		c-5.091,5.407-12.156,8.104-21.205,8.104c-6.664,0-12.316-1.259-16.963-3.775c-4.647-2.517-8.421-5.858-11.304-10.029
		c-2.893-4.172-5-8.869-6.318-14.089c-1.32-5.212-1.98-10.583-1.98-16.103c0-5.768,0.66-11.348,1.98-16.747
		c1.247-5.107,3.225-9.675,5.879-13.742L0.211,75.271c0.495,7.37,1.92,14.345,4.314,20.907c3.014,8.284,7.346,15.498,12.998,21.631
		c5.66,6.135,12.6,10.95,20.83,14.448c8.228,3.499,17.491,5.243,27.798,5.243c2.598,0,5.119-0.135,7.583-0.375l51.246-50.051
		C125.116,86.041,125.235,84.999,125.332,83.939z"/>
	
		<linearGradient id="SVGID_4_" gradientUnits="userSpaceOnUse" x1="93.1724" y1="173.1772" x2="227.1846" y2="173.1772" gradientTransform="matrix(0.6154 0.6154 -1.1787 1.1787 245.8462 -149.6598)">
		<stop  offset="0" style="stop-color:#009444"/>
		<stop  offset="1" style="stop-color:#00652B"/>
	</linearGradient>
	<path fill="url(#SVGID_4_)" d="M88.959,133.823c6.909-2.456,12.937-6.016,18.091-10.681c5.153-4.658,9.294-10.306,12.438-16.934
		c2.733-5.77,4.567-12.153,5.491-19.134l-51.245,50.051C79.132,136.596,84.214,135.505,88.959,133.823z"/>
	
		<linearGradient id="SVGID_5_" gradientUnits="userSpaceOnUse" x1="64.6201" y1="173.1763" x2="65.7598" y2="173.1763" gradientTransform="matrix(0.5242 0.5242 -1.1787 1.1787 269.308 -126.1957)">
		<stop  offset="0" style="stop-color:#009689"/>
		<stop  offset="1" style="stop-color:#006544"/>
	</linearGradient>
	<rect x="99.356" y="76.284" fill="url(#SVGID_5_)" width="0" height="71.632"/>
	
		<linearGradient id="SVGID_6_" gradientUnits="userSpaceOnUse" x1="93.1724" y1="173.1772" x2="94.1431" y2="173.1772" gradientTransform="matrix(0.6154 0.6154 -1.1787 1.1787 245.8462 -149.6598)">
		<stop  offset="0" style="stop-color:#009444"/>
		<stop  offset="1" style="stop-color:#00652B"/>
	</linearGradient>
	<rect x="99.356" y="76.284" fill="url(#SVGID_6_)" width="0" height="71.632"/>
	
		<linearGradient id="SVGID_7_" gradientUnits="userSpaceOnUse" x1="-148.2212" y1="167.5928" x2="-15.3644" y2="167.5928" gradientTransform="matrix(0.6154 0.6154 -1.1787 1.1787 245.8462 -149.6598)">
		<stop  offset="0" style="stop-color:#009AD1"/>
		<stop  offset="1" style="stop-color:#006880"/>
	</linearGradient>
	<path fill="url(#SVGID_7_)" d="M44.108,31.449L75.68,0.615C72.582,0.213,69.408,0,66.151,0c-10.308,0-19.57,1.782-27.798,5.34
		c-8.23,3.558-15.17,8.462-20.83,14.725c-5.652,6.254-9.984,13.595-12.998,22C1.503,50.468,0,59.583,0,69.395
		c0,1.683,0.064,3.339,0.157,4.982l39.739-38.812C41.167,34.063,42.569,32.69,44.108,31.449z"/>
	
		<linearGradient id="SVGID_8_" gradientUnits="userSpaceOnUse" x1="-64.4346" y1="149.0068" x2="166.8154" y2="149.0068" gradientTransform="matrix(0.5242 0.5242 -1.1787 1.1787 269.308 -126.1957)">
		<stop  offset="0" style="stop-color:#009689"/>
		<stop  offset="1" style="stop-color:#006544"/>
	</linearGradient>
	<path fill="url(#SVGID_8_)" d="M47.591,28.996L76.536,0.727c-0.284-0.042-0.57-0.074-0.856-0.111L44.108,31.449
		C45.204,30.567,46.361,29.748,47.591,28.996z"/>
	
		<linearGradient id="SVGID_9_" gradientUnits="userSpaceOnUse" x1="-246.186" y1="149.0083" x2="-15.3741" y2="149.0083" gradientTransform="matrix(0.6154 0.6154 -1.1787 1.1787 245.8462 -149.6598)">
		<stop  offset="0" style="stop-color:#009AD1"/>
		<stop  offset="1" style="stop-color:#006880"/>
	</linearGradient>
	<path fill="url(#SVGID_9_)" d="M47.591,28.996L76.536,0.727c-0.284-0.042-0.57-0.074-0.856-0.111L44.108,31.449
		C45.204,30.567,46.361,29.748,47.591,28.996z"/>
	
		<linearGradient id="SVGID_10_" gradientUnits="userSpaceOnUse" x1="-65.4102" y1="182.7725" x2="180.9787" y2="182.7725" gradientTransform="matrix(0.5242 0.5242 -1.1787 1.1787 269.308 -126.1957)">
		<stop  offset="0" style="stop-color:#009689"/>
		<stop  offset="1" style="stop-color:#006544"/>
	</linearGradient>
	<path fill="url(#SVGID_10_)" d="M37.884,38.191c0.625-0.919,1.301-1.789,2.012-2.626L0.157,74.376
		c0.017,0.3,0.034,0.598,0.054,0.895l37.234-36.366C37.597,38.672,37.726,38.421,37.884,38.191z"/>
	
		<linearGradient id="SVGID_11_" gradientUnits="userSpaceOnUse" x1="-262.2271" y1="182.7734" x2="-16.1144" y2="182.7734" gradientTransform="matrix(0.6154 0.6154 -1.1787 1.1787 245.8462 -149.6598)">
		<stop  offset="0" style="stop-color:#009AD1"/>
		<stop  offset="1" style="stop-color:#006880"/>
	</linearGradient>
	<path fill="url(#SVGID_11_)" d="M37.884,38.191c0.625-0.919,1.301-1.789,2.012-2.626L0.157,74.376
		c0.017,0.3,0.034,0.598,0.054,0.895l37.234-36.366C37.597,38.672,37.726,38.421,37.884,38.191z"/>
	
		<linearGradient id="SVGID_12_" gradientUnits="userSpaceOnUse" x1="-65.2017" y1="108.3262" x2="67.7323" y2="108.3262" gradientTransform="matrix(0.5242 0.5242 -1.1787 1.1787 269.308 -126.1957)">
		<stop  offset="0" style="stop-color:#009689"/>
		<stop  offset="1" style="stop-color:#006544"/>
	</linearGradient>
	<path fill="url(#SVGID_12_)" d="M205.81,0c-10.308,0-19.57,1.782-27.801,5.34c-8.229,3.558-15.168,8.462-20.829,14.725
		c-5.651,6.254-9.984,13.595-12.997,22c-3.022,8.403-4.526,17.518-4.526,27.33c0,1.103,0.024,2.194,0.065,3.28L213.672,0.45
		C211.083,0.152,208.463,0,205.81,0z"/>
	
		<linearGradient id="SVGID_13_" gradientUnits="userSpaceOnUse" x1="94.4224" y1="110.2021" x2="225.1911" y2="110.2021" gradientTransform="matrix(0.6154 0.6154 -1.1787 1.1787 245.8462 -149.6598)">
		<stop  offset="0" style="stop-color:#009444"/>
		<stop  offset="1" style="stop-color:#00652B"/>
	</linearGradient>
	<path fill="url(#SVGID_13_)" d="M264.613,63.507H208.07v21.533h29.778c-0.881,9.206-3.987,16.232-9.333,21.078
		c-5.336,4.845-12.906,7.272-22.706,7.272c-6.664,0-12.318-1.259-16.964-3.775c-4.647-2.517-8.421-5.858-11.305-10.029
		c-2.891-4.172-4.998-8.869-6.318-14.089c-1.319-5.212-1.979-10.583-1.979-16.103c0-5.768,0.66-11.348,1.979-16.747
		c1.32-5.4,3.428-10.217,6.318-14.457c2.883-4.232,6.657-7.603,11.305-10.119c4.646-2.517,10.3-3.774,16.964-3.774
		c7.163,0,13.25,1.841,18.281,5.52c5.024,3.685,8.413,9.205,10.177,16.568h28.268c-0.752-7.483-2.823-14.111-6.221-19.878
		c-3.388-5.768-7.69-10.613-12.905-14.546c-5.214-3.924-11.058-6.899-17.532-8.928c-3.986-1.245-8.054-2.104-12.205-2.583
		l-73.95,72.226c0.307,8.337,1.786,16.173,4.46,23.502c3.013,8.284,7.346,15.498,12.997,21.631c5.66,6.135,12.6,10.95,20.829,14.448
		c8.23,3.499,17.493,5.243,27.801,5.243c6.533,0,13.006-1.317,19.409-3.954c6.412-2.637,12.254-7.274,17.531-13.901l1.673,8.279
		l20.19-19.72V63.507z"/>
	
		<linearGradient id="SVGID_14_" gradientUnits="userSpaceOnUse" x1="66.0879" y1="108.3262" x2="67.7334" y2="108.3262" gradientTransform="matrix(0.5242 0.5242 -1.1787 1.1787 269.308 -126.1957)">
		<stop  offset="0" style="stop-color:#009689"/>
		<stop  offset="1" style="stop-color:#006544"/>
	</linearGradient>
	<polygon fill="url(#SVGID_14_)" points="213.672,0.45 139.723,72.675 139.723,72.676 213.673,0.45 	"/>
	
		<linearGradient id="SVGID_15_" gradientUnits="userSpaceOnUse" x1="94.4224" y1="108.3271" x2="95.8247" y2="108.3271" gradientTransform="matrix(0.6154 0.6154 -1.1787 1.1787 245.8462 -149.6598)">
		<stop  offset="0" style="stop-color:#009444"/>
		<stop  offset="1" style="stop-color:#00652B"/>
	</linearGradient>
	<polygon fill="url(#SVGID_15_)" points="213.672,0.45 139.723,72.675 139.723,72.676 213.673,0.45 	"/>
	
		<linearGradient id="SVGID_16_" gradientUnits="userSpaceOnUse" x1="216.3325" y1="117.1323" x2="347.0557" y2="117.1323" gradientTransform="matrix(0.5726 0.5726 -1.2993 1.2993 281.2632 -156.6664)">
		<stop  offset="0" style="stop-color:#77A43A"/>
		<stop  offset="1" style="stop-color:#1E6829"/>
	</linearGradient>
	<polygon fill="url(#SVGID_16_)" points="245.763,134.557 264.613,134.557 264.613,108.718 244.51,128.354 	"/>
	
		<linearGradient id="SVGID_17_" gradientUnits="userSpaceOnUse" x1="-20.0635" y1="109.9614" x2="225.1819" y2="109.9614" gradientTransform="matrix(0.6154 0.6154 -1.1787 1.1787 245.8462 -149.6598)">
		<stop  offset="0" style="stop-color:#009444"/>
		<stop  offset="1" style="stop-color:#00652B"/>
	</linearGradient>
	<polygon fill="url(#SVGID_17_)" points="244.423,127.924 244.51,128.354 264.613,108.718 264.613,108.204 	"/>
	
		<linearGradient id="SVGID_18_" gradientUnits="userSpaceOnUse" x1="216.3394" y1="116.0811" x2="461.762" y2="116.0811" gradientTransform="matrix(0.5726 0.5726 -1.2993 1.2993 281.2632 -156.6664)">
		<stop  offset="0" style="stop-color:#77A43A"/>
		<stop  offset="1" style="stop-color:#1E6829"/>
	</linearGradient>
	<polygon fill="url(#SVGID_18_)" points="244.423,127.924 244.51,128.354 264.613,108.718 264.613,108.204 	"/>
	
		<linearGradient id="SVGID_19_" gradientUnits="userSpaceOnUse" x1="96.3296" y1="46.3457" x2="227" y2="46.3457" gradientTransform="matrix(0.6154 0.6154 -1.1787 1.1787 245.8462 -149.6598)">
		<stop  offset="0" style="stop-color:#009444"/>
		<stop  offset="1" style="stop-color:#00652B"/>
	</linearGradient>
	<polygon fill="url(#SVGID_19_)" points="355.643,3.131 325.296,3.131 296.779,76.79 360.148,14.898 	"/>
	
		<linearGradient id="SVGID_20_" gradientUnits="userSpaceOnUse" x1="217.3916" y1="75.2305" x2="347.9321" y2="75.2305" gradientTransform="matrix(0.5726 0.5726 -1.2993 1.2993 281.2632 -156.6664)">
		<stop  offset="0" style="stop-color:#77A43A"/>
		<stop  offset="1" style="stop-color:#1E6829"/>
	</linearGradient>
	<path fill="url(#SVGID_20_)" d="M360.291,15.272l-63.833,62.345l-22.045,56.939h29.78l10.552-29.27h50.323l10.175,29.27h12.152
		l13.516-13.199L360.291,15.272z M322.467,83.751l17.531-48.227h0.376l16.961,48.227H322.467z"/>
	
		<linearGradient id="SVGID_21_" gradientUnits="userSpaceOnUse" x1="-269.4775" y1="48.1294" x2="226.9948" y2="48.1294" gradientTransform="matrix(0.6154 0.6154 -1.1787 1.1787 245.8462 -149.6598)">
		<stop  offset="0" style="stop-color:#009444"/>
		<stop  offset="1" style="stop-color:#00652B"/>
	</linearGradient>
	<polygon fill="url(#SVGID_21_)" points="360.148,14.898 296.779,76.79 296.458,77.617 360.291,15.272 	"/>
	
		<linearGradient id="SVGID_22_" gradientUnits="userSpaceOnUse" x1="217.4077" y1="59.9883" x2="714.3817" y2="59.9883" gradientTransform="matrix(0.5726 0.5726 -1.2993 1.2993 281.2632 -156.6664)">
		<stop  offset="0" style="stop-color:#77A43A"/>
		<stop  offset="1" style="stop-color:#1E6829"/>
	</linearGradient>
	<polygon fill="url(#SVGID_22_)" points="360.148,14.898 296.779,76.79 296.458,77.617 360.291,15.272 	"/>
	
		<linearGradient id="SVGID_23_" gradientUnits="userSpaceOnUse" x1="346.9736" y1="54.7588" x2="478.4186" y2="54.7588" gradientTransform="matrix(0.5726 0.5726 -1.1787 1.1787 260.0507 -135.4544)">
		<stop  offset="0" style="stop-color:#ACB42C"/>
		<stop  offset="1" style="stop-color:#527021"/>
	</linearGradient>
	<polygon fill="url(#SVGID_23_)" points="405.965,134.557 401.125,121.914 388.18,134.557 	"/>
	
		<linearGradient id="SVGID_24_" gradientUnits="userSpaceOnUse" x1="165.8354" y1="66.0874" x2="347.9237" y2="66.0874" gradientTransform="matrix(0.5726 0.5726 -1.2993 1.2993 281.2632 -156.6664)">
		<stop  offset="0" style="stop-color:#77A43A"/>
		<stop  offset="1" style="stop-color:#1E6829"/>
	</linearGradient>
	<polygon fill="url(#SVGID_24_)" points="387.395,134.557 388.18,134.557 401.125,121.914 400.91,121.357 	"/>
	
		<linearGradient id="SVGID_25_" gradientUnits="userSpaceOnUse" x1="346.9722" y1="54.8525" x2="529.4133" y2="54.8525" gradientTransform="matrix(0.5726 0.5726 -1.1787 1.1787 260.0507 -135.4544)">
		<stop  offset="0" style="stop-color:#ACB42C"/>
		<stop  offset="1" style="stop-color:#527021"/>
	</linearGradient>
	<polygon fill="url(#SVGID_25_)" points="387.395,134.557 388.18,134.557 401.125,121.914 400.91,121.357 	"/>
	
		<linearGradient id="SVGID_26_" gradientUnits="userSpaceOnUse" x1="218.9985" y1="8.0381" x2="349.9518" y2="8.0381" gradientTransform="matrix(0.5726 0.5726 -1.2993 1.2993 281.2632 -156.6664)">
		<stop  offset="0" style="stop-color:#77A43A"/>
		<stop  offset="1" style="stop-color:#1E6829"/>
	</linearGradient>
	<polygon fill="url(#SVGID_26_)" points="459.67,27.428 497.082,27.428 500,24.579 500,3.131 389.744,3.131 389.744,27.428 
		430.083,27.428 430.083,92.865 459.67,63.968 	"/>
	
		<linearGradient id="SVGID_27_" gradientUnits="userSpaceOnUse" x1="349.21" y1="-32.6812" x2="480.6376" y2="-32.6812" gradientTransform="matrix(0.5726 0.5726 -1.1787 1.1787 260.0507 -135.4544)">
		<stop  offset="0" style="stop-color:#ACB42C"/>
		<stop  offset="1" style="stop-color:#527021"/>
	</linearGradient>
	<polygon fill="url(#SVGID_27_)" points="500,27.428 500,25.346 497.868,27.428 	"/>
	
		<linearGradient id="SVGID_28_" gradientUnits="userSpaceOnUse" x1="347.8374" y1="21.3257" x2="477.4976" y2="21.3257" gradientTransform="matrix(0.5726 0.5726 -1.1787 1.1787 260.0507 -135.4544)">
		<stop  offset="0" style="stop-color:#ACB42C"/>
		<stop  offset="1" style="stop-color:#527021"/>
	</linearGradient>
	<polygon fill="url(#SVGID_28_)" points="430.083,134.557 459.67,134.557 459.67,64.735 430.083,93.631 	"/>
	
		<linearGradient id="SVGID_29_" gradientUnits="userSpaceOnUse" x1="209.6885" y1="-13.3174" x2="349.9385" y2="-13.3174" gradientTransform="matrix(0.5726 0.5726 -1.2993 1.2993 281.2632 -156.6664)">
		<stop  offset="0" style="stop-color:#77A43A"/>
		<stop  offset="1" style="stop-color:#1E6829"/>
	</linearGradient>
	<polygon fill="url(#SVGID_29_)" points="497.082,27.428 497.868,27.428 500,25.346 500,24.579 	"/>
	
		<linearGradient id="SVGID_30_" gradientUnits="userSpaceOnUse" x1="349.207" y1="-32.6768" x2="489.4598" y2="-32.6768" gradientTransform="matrix(0.5726 0.5726 -1.1787 1.1787 260.0507 -135.4544)">
		<stop  offset="0" style="stop-color:#ACB42C"/>
		<stop  offset="1" style="stop-color:#527021"/>
	</linearGradient>
	<polygon fill="url(#SVGID_30_)" points="497.082,27.428 497.868,27.428 500,25.346 500,24.579 	"/>
	
		<linearGradient id="SVGID_31_" gradientUnits="userSpaceOnUse" x1="105.4585" y1="27.6514" x2="349.1161" y2="27.6514" gradientTransform="matrix(0.5726 0.5726 -1.2993 1.2993 281.2632 -156.6664)">
		<stop  offset="0" style="stop-color:#77A43A"/>
		<stop  offset="1" style="stop-color:#1E6829"/>
	</linearGradient>
	<polygon fill="url(#SVGID_31_)" points="430.083,92.865 430.083,93.631 459.67,64.735 459.67,63.968 	"/>
	
		<linearGradient id="SVGID_32_" gradientUnits="userSpaceOnUse" x1="347.8428" y1="12.4829" x2="591.9727" y2="12.4829" gradientTransform="matrix(0.5726 0.5726 -1.1787 1.1787 260.0507 -135.4544)">
		<stop  offset="0" style="stop-color:#ACB42C"/>
		<stop  offset="1" style="stop-color:#527021"/>
	</linearGradient>
	<polygon fill="url(#SVGID_32_)" points="430.083,92.865 430.083,93.631 459.67,64.735 459.67,63.968 	"/>
</g>
</svg>
