<?xml version="1.0" encoding="utf-8"?>
<!-- Generator: Adobe Illustrator 16.0.0, SVG Export Plug-In . SVG Version: 6.00 Build 0)  -->
<!DOCTYPE svg PUBLIC "-//W3C//DTD SVG 1.1//EN" "http://www.w3.org/Graphics/SVG/1.1/DTD/svg11.dtd">
<svg version="1.1" id="Layer_1" xmlns="http://www.w3.org/2000/svg" xmlns:xlink="http://www.w3.org/1999/xlink" x="0px" y="0px"
	 width="666.759px" height="137.499px" viewBox="0 0 666.759 137.499" enable-background="new 0 0 666.759 137.499"
	 xml:space="preserve">
<g>
	
		<linearGradient id="SVGID_1_" gradientUnits="userSpaceOnUse" x1="-241.7163" y1="631.6494" x2="-78.5604" y2="631.6494" gradientTransform="matrix(0.6154 0.6154 -1.1787 1.1787 835.4991 -662.0455)">
		<stop  offset="0" style="stop-color:#009AD1"/>
		<stop  offset="1" style="stop-color:#006880"/>
	</linearGradient>
	<path fill="url(#SVGID_1_)" d="M39.896,35.565l4.212-4.116C42.569,32.69,41.167,34.063,39.896,35.565z"/>
	
		<linearGradient id="SVGID_2_" gradientUnits="userSpaceOnUse" x1="-49.1104" y1="611.5312" x2="81.746" y2="611.5312" gradientTransform="matrix(0.5242 0.5242 -1.1787 1.1787 812.327 -685.2156)">
		<stop  offset="0" style="stop-color:#009689"/>
		<stop  offset="1" style="stop-color:#006544"/>
	</linearGradient>
	<path fill="url(#SVGID_2_)" d="M49.188,28.072c4.647-2.517,10.299-3.774,16.963-3.774c3.643,0,7.132,0.583,10.461,1.745
		c3.328,1.168,6.311,2.794,8.949,4.884c2.638,2.082,4.838,4.508,6.603,7.265c1.756,2.764,2.883,5.804,3.39,9.115h28.644
		c-0.876-7.61-3.016-14.357-6.404-20.245c-3.391-5.896-7.7-10.83-12.915-14.823C99.664,8.255,93.76,5.221,87.164,3.131
		c-3.431-1.088-6.976-1.885-10.629-2.404L47.591,28.996C48.111,28.678,48.644,28.368,49.188,28.072z"/>
	
		<linearGradient id="SVGID_3_" gradientUnits="userSpaceOnUse" x1="-50.1646" y1="647.7568" x2="81.0224" y2="647.7568" gradientTransform="matrix(0.5242 0.5242 -1.1787 1.1787 812.327 -685.2156)">
		<stop  offset="0" style="stop-color:#009689"/>
		<stop  offset="1" style="stop-color:#006544"/>
	</linearGradient>
	<path fill="url(#SVGID_3_)" d="M125.332,83.939H96.681c-1.127,8.83-4.241,15.953-9.325,21.347
		c-5.091,5.407-12.156,8.104-21.205,8.104c-6.664,0-12.316-1.261-16.963-3.775c-4.647-2.518-8.421-5.858-11.304-10.029
		c-2.893-4.172-5-8.869-6.318-14.089c-1.32-5.212-1.98-10.583-1.98-16.103c0-5.77,0.66-11.35,1.98-16.749
		c1.247-5.107,3.225-9.675,5.879-13.742L0.211,75.271c0.495,7.369,1.92,14.345,4.314,20.905c3.014,8.284,7.346,15.498,12.998,21.632
		c5.66,6.135,12.6,10.949,20.83,14.447c8.228,3.499,17.491,5.243,27.798,5.243c2.598,0,5.119-0.135,7.583-0.375l51.246-50.051
		C125.116,86.041,125.235,84.999,125.332,83.939z"/>
	
		<linearGradient id="SVGID_4_" gradientUnits="userSpaceOnUse" x1="30.3906" y1="640.6582" x2="164.4195" y2="640.6582" gradientTransform="matrix(0.6154 0.6154 -1.1787 1.1787 835.4991 -662.0455)">
		<stop  offset="0" style="stop-color:#009444"/>
		<stop  offset="1" style="stop-color:#00652B"/>
	</linearGradient>
	<path fill="url(#SVGID_4_)" d="M88.959,133.823c6.909-2.456,12.937-6.017,18.091-10.681c5.153-4.658,9.294-10.308,12.438-16.936
		c2.733-5.771,4.567-12.152,5.491-19.134l-51.245,50.051C79.132,136.596,84.214,135.505,88.959,133.823z"/>
	
		<linearGradient id="SVGID_5_" gradientUnits="userSpaceOnUse" x1="-210.9995" y1="635.0732" x2="-78.1427" y2="635.0732" gradientTransform="matrix(0.6154 0.6154 -1.1787 1.1787 835.4991 -662.0455)">
		<stop  offset="0" style="stop-color:#009AD1"/>
		<stop  offset="1" style="stop-color:#006880"/>
	</linearGradient>
	<path fill="url(#SVGID_5_)" d="M44.108,31.449L75.68,0.615C72.582,0.213,69.408,0,66.151,0c-10.308,0-19.57,1.782-27.798,5.34
		c-8.23,3.558-15.17,8.462-20.83,14.725c-5.652,6.254-9.984,13.595-12.998,22C1.503,50.468,0,59.583,0,69.395
		c0,1.685,0.064,3.34,0.157,4.982l39.739-38.812C41.167,34.063,42.569,32.69,44.108,31.449z"/>
	
		<linearGradient id="SVGID_6_" gradientUnits="userSpaceOnUse" x1="-49.1729" y1="616.4883" x2="182.216" y2="616.4883" gradientTransform="matrix(0.5242 0.5242 -1.1787 1.1787 812.327 -685.2156)">
		<stop  offset="0" style="stop-color:#009689"/>
		<stop  offset="1" style="stop-color:#006544"/>
	</linearGradient>
	<path fill="url(#SVGID_6_)" d="M47.591,28.996L76.536,0.727c-0.284-0.042-0.57-0.074-0.856-0.111L44.108,31.449
		C45.204,30.567,46.361,29.748,47.591,28.996z"/>
	
		<linearGradient id="SVGID_7_" gradientUnits="userSpaceOnUse" x1="-308.9644" y1="616.4883" x2="-78.1525" y2="616.4883" gradientTransform="matrix(0.6154 0.6154 -1.1787 1.1787 835.4991 -662.0455)">
		<stop  offset="0" style="stop-color:#009AD1"/>
		<stop  offset="1" style="stop-color:#006880"/>
	</linearGradient>
	<path fill="url(#SVGID_7_)" d="M47.591,28.996L76.536,0.727c-0.284-0.042-0.57-0.074-0.856-0.111L44.108,31.449
		C45.204,30.567,46.361,29.748,47.591,28.996z"/>
	
		<linearGradient id="SVGID_8_" gradientUnits="userSpaceOnUse" x1="-50.1484" y1="650.2539" x2="196.3793" y2="650.2539" gradientTransform="matrix(0.5242 0.5242 -1.1787 1.1787 812.327 -685.2156)">
		<stop  offset="0" style="stop-color:#009689"/>
		<stop  offset="1" style="stop-color:#006544"/>
	</linearGradient>
	<path fill="url(#SVGID_8_)" d="M37.884,38.191c0.625-0.919,1.301-1.789,2.012-2.626L0.157,74.376
		c0.017,0.3,0.034,0.599,0.054,0.896l37.234-36.366C37.597,38.672,37.726,38.421,37.884,38.191z"/>
	
		<linearGradient id="SVGID_9_" gradientUnits="userSpaceOnUse" x1="-325.1685" y1="650.2549" x2="-78.8929" y2="650.2549" gradientTransform="matrix(0.6154 0.6154 -1.1787 1.1787 835.4991 -662.0455)">
		<stop  offset="0" style="stop-color:#009AD1"/>
		<stop  offset="1" style="stop-color:#006880"/>
	</linearGradient>
	<path fill="url(#SVGID_9_)" d="M37.884,38.191c0.625-0.919,1.301-1.789,2.012-2.626L0.157,74.376
		c0.017,0.3,0.034,0.599,0.054,0.896l37.234-36.366C37.597,38.672,37.726,38.421,37.884,38.191z"/>
	
		<linearGradient id="SVGID_10_" gradientUnits="userSpaceOnUse" x1="-49.9434" y1="575.8076" x2="82.9943" y2="575.8076" gradientTransform="matrix(0.5242 0.5242 -1.1787 1.1787 812.327 -685.2156)">
		<stop  offset="0" style="stop-color:#009689"/>
		<stop  offset="1" style="stop-color:#006544"/>
	</linearGradient>
	<path fill="url(#SVGID_10_)" d="M205.81,0c-10.308,0-19.57,1.782-27.801,5.34c-8.229,3.558-15.168,8.462-20.829,14.725
		c-5.651,6.254-9.984,13.595-12.997,22c-3.022,8.403-4.526,17.518-4.526,27.33c0,1.104,0.024,2.194,0.065,3.28l73.95-72.225
		C211.083,0.152,208.463,0,205.81,0z"/>
	
		<linearGradient id="SVGID_11_" gradientUnits="userSpaceOnUse" x1="31.6416" y1="577.6836" x2="162.4094" y2="577.6836" gradientTransform="matrix(0.6154 0.6154 -1.1787 1.1787 835.4991 -662.0455)">
		<stop  offset="0" style="stop-color:#009444"/>
		<stop  offset="1" style="stop-color:#00652B"/>
	</linearGradient>
	<path fill="url(#SVGID_11_)" d="M264.613,63.507H208.07V85.04h29.778c-0.881,9.206-3.987,16.231-9.333,21.078
		c-5.336,4.845-12.906,7.272-22.706,7.272c-6.664,0-12.318-1.261-16.964-3.775c-4.647-2.518-8.421-5.858-11.305-10.029
		c-2.891-4.172-4.998-8.869-6.318-14.089c-1.319-5.212-1.979-10.583-1.979-16.103c0-5.77,0.66-11.35,1.979-16.749
		c1.32-5.4,3.428-10.217,6.318-14.457c2.883-4.232,6.657-7.603,11.305-10.119c4.646-2.517,10.3-3.774,16.964-3.774
		c7.163,0,13.25,1.841,18.281,5.52c5.024,3.685,8.413,9.205,10.177,16.568h28.268c-0.752-7.483-2.823-14.111-6.221-19.878
		c-3.39-5.768-7.69-10.613-12.905-14.546c-5.214-3.924-11.058-6.899-17.532-8.928c-3.986-1.245-8.054-2.104-12.205-2.583
		l-73.95,72.226c0.307,8.339,1.786,16.175,4.46,23.502c3.013,8.284,7.346,15.498,12.997,21.632
		c5.66,6.135,12.6,10.949,20.829,14.447c8.23,3.499,17.493,5.243,27.801,5.243c6.533,0,13.006-1.315,19.409-3.954
		c6.412-2.637,12.254-7.273,17.531-13.9l1.673,8.278l20.189-19.72V63.507H264.613z"/>
	
		<linearGradient id="SVGID_12_" gradientUnits="userSpaceOnUse" x1="81.3496" y1="575.8066" x2="82.9951" y2="575.8066" gradientTransform="matrix(0.5242 0.5242 -1.1787 1.1787 812.327 -685.2156)">
		<stop  offset="0" style="stop-color:#009689"/>
		<stop  offset="1" style="stop-color:#006544"/>
	</linearGradient>
	<polygon fill="url(#SVGID_12_)" points="213.672,0.45 139.723,72.675 139.723,72.676 213.673,0.45 	"/>
	
		<linearGradient id="SVGID_13_" gradientUnits="userSpaceOnUse" x1="31.645" y1="575.8086" x2="33.0464" y2="575.8086" gradientTransform="matrix(0.6154 0.6154 -1.1787 1.1787 835.4991 -662.0455)">
		<stop  offset="0" style="stop-color:#009444"/>
		<stop  offset="1" style="stop-color:#00652B"/>
	</linearGradient>
	<polygon fill="url(#SVGID_13_)" points="213.672,0.45 139.723,72.675 139.723,72.676 213.673,0.45 	"/>
	
		<linearGradient id="SVGID_14_" gradientUnits="userSpaceOnUse" x1="187.0825" y1="569.0449" x2="317.8169" y2="569.0449" gradientTransform="matrix(0.5726 0.5726 -1.2993 1.2993 885.1824 -727.0881)">
		<stop  offset="0" style="stop-color:#77A43A"/>
		<stop  offset="1" style="stop-color:#1E6829"/>
	</linearGradient>
	<polygon fill="url(#SVGID_14_)" points="245.763,134.557 264.613,134.557 264.613,108.718 244.51,128.354 	"/>
	
		<linearGradient id="SVGID_15_" gradientUnits="userSpaceOnUse" x1="-82.8403" y1="577.4424" x2="162.4047" y2="577.4424" gradientTransform="matrix(0.6154 0.6154 -1.1787 1.1787 835.4991 -662.0455)">
		<stop  offset="0" style="stop-color:#009444"/>
		<stop  offset="1" style="stop-color:#00652B"/>
	</linearGradient>
	<polygon fill="url(#SVGID_15_)" points="244.423,127.924 244.51,128.354 264.613,108.718 264.613,108.204 	"/>
	
		<linearGradient id="SVGID_16_" gradientUnits="userSpaceOnUse" x1="187.0894" y1="567.9941" x2="433.0701" y2="567.9941" gradientTransform="matrix(0.5726 0.5726 -1.2993 1.2993 885.1824 -727.0881)">
		<stop  offset="0" style="stop-color:#77A43A"/>
		<stop  offset="1" style="stop-color:#1E6829"/>
	</linearGradient>
	<polygon fill="url(#SVGID_16_)" points="244.423,127.924 244.51,128.354 264.613,108.718 264.613,108.204 	"/>
	
		<linearGradient id="SVGID_17_" gradientUnits="userSpaceOnUse" x1="33.5488" y1="513.8262" x2="164.2226" y2="513.8262" gradientTransform="matrix(0.6154 0.6154 -1.1787 1.1787 835.4991 -662.0455)">
		<stop  offset="0" style="stop-color:#009444"/>
		<stop  offset="1" style="stop-color:#00652B"/>
	</linearGradient>
	<polygon fill="url(#SVGID_17_)" points="355.643,3.131 325.296,3.131 296.779,76.79 360.148,14.898 	"/>
	
		<linearGradient id="SVGID_18_" gradientUnits="userSpaceOnUse" x1="188.1396" y1="527.1436" x2="318.6816" y2="527.1436" gradientTransform="matrix(0.5726 0.5726 -1.2993 1.2993 885.1824 -727.0881)">
		<stop  offset="0" style="stop-color:#77A43A"/>
		<stop  offset="1" style="stop-color:#1E6829"/>
	</linearGradient>
	<path fill="url(#SVGID_18_)" d="M360.291,15.272l-63.833,62.345l-22.045,56.939h29.78l10.552-29.271h50.323l10.175,29.271h12.151
		l13.517-13.199L360.291,15.272z M322.467,83.751l17.531-48.227h0.376l16.961,48.227H322.467z"/>
	
		<linearGradient id="SVGID_19_" gradientUnits="userSpaceOnUse" x1="-332.2549" y1="515.6104" x2="164.2172" y2="515.6104" gradientTransform="matrix(0.6154 0.6154 -1.1787 1.1787 835.4991 -662.0455)">
		<stop  offset="0" style="stop-color:#009444"/>
		<stop  offset="1" style="stop-color:#00652B"/>
	</linearGradient>
	<polygon fill="url(#SVGID_19_)" points="360.148,14.898 296.779,76.79 296.458,77.617 360.291,15.272 	"/>
	
		<linearGradient id="SVGID_20_" gradientUnits="userSpaceOnUse" x1="188.1597" y1="511.9004" x2="684.5767" y2="511.9004" gradientTransform="matrix(0.5726 0.5726 -1.2993 1.2993 885.1824 -727.0881)">
		<stop  offset="0" style="stop-color:#77A43A"/>
		<stop  offset="1" style="stop-color:#1E6829"/>
	</linearGradient>
	<polygon fill="url(#SVGID_20_)" points="360.148,14.898 296.779,76.79 296.458,77.617 360.291,15.272 	"/>
	
		<linearGradient id="SVGID_21_" gradientUnits="userSpaceOnUse" x1="317.7217" y1="522.2402" x2="449.1667" y2="522.2402" gradientTransform="matrix(0.5726 0.5726 -1.1787 1.1787 827.8187 -669.7264)">
		<stop  offset="0" style="stop-color:#ACB42C"/>
		<stop  offset="1" style="stop-color:#527021"/>
	</linearGradient>
	<polygon fill="url(#SVGID_21_)" points="405.965,134.557 401.125,121.914 388.18,134.557 	"/>
	
		<linearGradient id="SVGID_22_" gradientUnits="userSpaceOnUse" x1="136.0239" y1="518" x2="318.6746" y2="518" gradientTransform="matrix(0.5726 0.5726 -1.2993 1.2993 885.1824 -727.0881)">
		<stop  offset="0" style="stop-color:#77A43A"/>
		<stop  offset="1" style="stop-color:#1E6829"/>
	</linearGradient>
	<polygon fill="url(#SVGID_22_)" points="387.395,134.557 388.18,134.557 401.125,121.914 400.91,121.357 	"/>
	
		<linearGradient id="SVGID_23_" gradientUnits="userSpaceOnUse" x1="317.7217" y1="522.334" x2="500.1628" y2="522.334" gradientTransform="matrix(0.5726 0.5726 -1.1787 1.1787 827.8187 -669.7264)">
		<stop  offset="0" style="stop-color:#ACB42C"/>
		<stop  offset="1" style="stop-color:#527021"/>
	</linearGradient>
	<polygon fill="url(#SVGID_23_)" points="387.395,134.557 388.18,134.557 401.125,121.914 400.91,121.357 	"/>
	
		<linearGradient id="SVGID_24_" gradientUnits="userSpaceOnUse" x1="189.7485" y1="459.9512" x2="320.7014" y2="459.9512" gradientTransform="matrix(0.5726 0.5726 -1.2993 1.2993 885.1824 -727.0881)">
		<stop  offset="0" style="stop-color:#77A43A"/>
		<stop  offset="1" style="stop-color:#1E6829"/>
	</linearGradient>
	<polygon fill="url(#SVGID_24_)" points="459.67,27.428 497.082,27.428 500,24.579 500,3.131 389.744,3.131 389.744,27.428 
		430.083,27.428 430.083,92.865 459.67,63.968 	"/>
	
		<linearGradient id="SVGID_25_" gradientUnits="userSpaceOnUse" x1="319.9604" y1="434.8008" x2="451.3192" y2="434.8008" gradientTransform="matrix(0.5726 0.5726 -1.1787 1.1787 827.8187 -669.7264)">
		<stop  offset="0" style="stop-color:#ACB42C"/>
		<stop  offset="1" style="stop-color:#527021"/>
	</linearGradient>
	<polygon fill="url(#SVGID_25_)" points="500,27.428 500,25.346 497.868,27.428 	"/>
	
		<linearGradient id="SVGID_26_" gradientUnits="userSpaceOnUse" x1="318.5898" y1="488.8066" x2="448.246" y2="488.8066" gradientTransform="matrix(0.5726 0.5726 -1.1787 1.1787 827.8187 -669.7264)">
		<stop  offset="0" style="stop-color:#ACB42C"/>
		<stop  offset="1" style="stop-color:#527021"/>
	</linearGradient>
	<polygon fill="url(#SVGID_26_)" points="430.083,134.557 459.67,134.557 459.67,64.735 430.083,93.631 	"/>
	
		<linearGradient id="SVGID_27_" gradientUnits="userSpaceOnUse" x1="180.626" y1="438.5957" x2="320.6882" y2="438.5957" gradientTransform="matrix(0.5726 0.5726 -1.2993 1.2993 885.1824 -727.0881)">
		<stop  offset="0" style="stop-color:#77A43A"/>
		<stop  offset="1" style="stop-color:#1E6829"/>
	</linearGradient>
	<polygon fill="url(#SVGID_27_)" points="497.082,27.428 497.868,27.428 500,25.346 500,24.579 	"/>
	
		<linearGradient id="SVGID_28_" gradientUnits="userSpaceOnUse" x1="319.959" y1="434.8047" x2="459.837" y2="434.8047" gradientTransform="matrix(0.5726 0.5726 -1.1787 1.1787 827.8187 -669.7264)">
		<stop  offset="0" style="stop-color:#ACB42C"/>
		<stop  offset="1" style="stop-color:#527021"/>
	</linearGradient>
	<polygon fill="url(#SVGID_28_)" points="497.082,27.428 497.868,27.428 500,25.346 500,24.579 	"/>
	
		<linearGradient id="SVGID_29_" gradientUnits="userSpaceOnUse" x1="76.208" y1="479.5635" x2="319.8656" y2="479.5635" gradientTransform="matrix(0.5726 0.5726 -1.2993 1.2993 885.1824 -727.0881)">
		<stop  offset="0" style="stop-color:#77A43A"/>
		<stop  offset="1" style="stop-color:#1E6829"/>
	</linearGradient>
	<polygon fill="url(#SVGID_29_)" points="430.083,92.865 430.083,93.631 459.67,64.735 459.67,63.968 	"/>
	
		<linearGradient id="SVGID_30_" gradientUnits="userSpaceOnUse" x1="318.5928" y1="479.9648" x2="563.0977" y2="479.9648" gradientTransform="matrix(0.5726 0.5726 -1.1787 1.1787 827.8187 -669.7264)">
		<stop  offset="0" style="stop-color:#ACB42C"/>
		<stop  offset="1" style="stop-color:#527021"/>
	</linearGradient>
	<polygon fill="url(#SVGID_30_)" points="430.083,92.865 430.083,93.631 459.67,64.735 459.67,63.968 	"/>
</g>
<g>
	<path fill="#4D4D4D" d="M539.041,14.193c0-1.578,0.232-3.06,0.698-4.446c0.465-1.386,1.139-2.59,2.019-3.612
		c0.88-1.021,1.962-1.825,3.247-2.412c1.285-0.587,2.737-0.881,4.356-0.881c1.273,0,2.377,0.167,3.308,0.501
		s1.714,0.749,2.353,1.245c0.637,0.496,1.158,1.037,1.562,1.623c0.404,0.587,0.713,1.138,0.926,1.654
		c0.213,0.516,0.358,0.962,0.44,1.336c0.08,0.374,0.121,0.582,0.121,0.622h-1.335c-0.142-0.911-0.436-1.725-0.881-2.443
		c-0.445-0.718-1.001-1.33-1.669-1.836s-1.411-0.89-2.231-1.154c-0.819-0.262-1.684-0.394-2.594-0.394
		c-1.417,0-2.683,0.273-3.795,0.819c-1.112,0.547-2.054,1.28-2.822,2.201c-0.77,0.921-1.356,1.998-1.761,3.232
		c-0.405,1.234-0.606,2.549-0.606,3.945s0.201,2.712,0.606,3.946c0.404,1.234,0.991,2.312,1.761,3.232
		c0.769,0.921,1.71,1.654,2.822,2.2c1.112,0.547,2.378,0.82,3.795,0.82c1.051,0,2.038-0.217,2.959-0.653
		c0.92-0.434,1.724-1.011,2.412-1.73c0.688-0.718,1.24-1.547,1.655-2.488c0.414-0.941,0.651-1.917,0.713-2.929h1.335
		c-0.121,1.295-0.44,2.489-0.956,3.582c-0.517,1.093-1.174,2.039-1.974,2.838c-0.799,0.8-1.725,1.422-2.776,1.867
		c-1.053,0.444-2.176,0.667-3.368,0.667c-1.619,0-3.071-0.293-4.356-0.88c-1.285-0.587-2.367-1.391-3.247-2.413
		c-0.88-1.021-1.554-2.226-2.019-3.611C539.273,17.254,539.041,15.772,539.041,14.193z"/>
	<path fill="#4D4D4D" d="M571.001,21.933h-0.061c-0.183,0.465-0.445,0.905-0.789,1.32c-0.345,0.415-0.765,0.784-1.26,1.108
		c-0.496,0.323-1.058,0.576-1.685,0.758c-0.627,0.182-1.315,0.273-2.064,0.273c-1.659,0-2.944-0.359-3.854-1.077
		c-0.911-0.718-1.366-1.826-1.366-3.323c0-0.911,0.182-1.654,0.546-2.231c0.365-0.577,0.825-1.032,1.381-1.366
		c0.557-0.334,1.174-0.571,1.852-0.713c0.678-0.141,1.33-0.243,1.958-0.303l1.791-0.152c0.829-0.061,1.481-0.157,1.958-0.289
		c0.475-0.131,0.834-0.313,1.077-0.546c0.243-0.232,0.394-0.531,0.455-0.895c0.061-0.364,0.091-0.82,0.091-1.366
		c0-0.425-0.081-0.819-0.243-1.184c-0.162-0.364-0.414-0.687-0.758-0.971c-0.346-0.283-0.789-0.505-1.336-0.667
		s-1.215-0.243-2.004-0.243c-1.396,0-2.523,0.344-3.384,1.032s-1.33,1.73-1.411,3.126h-1.153c0.08-1.72,0.633-3.01,1.654-3.87
		c1.021-0.86,2.474-1.29,4.355-1.29s3.252,0.37,4.112,1.108c0.859,0.739,1.29,1.705,1.29,2.898v9.075
		c0,0.223,0.005,0.445,0.015,0.668c0.01,0.223,0.046,0.425,0.107,0.607c0.06,0.182,0.161,0.329,0.303,0.44
		c0.141,0.111,0.344,0.167,0.607,0.167c0.202,0,0.485-0.031,0.85-0.091v0.971c-0.304,0.081-0.618,0.121-0.941,0.121
		c-0.466,0-0.835-0.06-1.107-0.182c-0.273-0.121-0.481-0.283-0.622-0.485c-0.143-0.202-0.238-0.441-0.288-0.714
		c-0.051-0.273-0.076-0.571-0.076-0.895V21.933z M571.001,16.166c-0.284,0.344-0.713,0.577-1.29,0.698
		c-0.577,0.122-1.219,0.213-1.927,0.273l-1.943,0.182c-0.566,0.061-1.133,0.147-1.699,0.258c-0.567,0.112-1.078,0.299-1.533,0.562
		c-0.455,0.263-0.825,0.622-1.107,1.077c-0.283,0.455-0.426,1.047-0.426,1.776c0,1.153,0.365,2.008,1.094,2.564
		c0.728,0.557,1.729,0.835,3.005,0.835c1.315,0,2.357-0.238,3.126-0.713s1.355-1.022,1.76-1.639
		c0.405-0.617,0.663-1.214,0.774-1.791s0.167-0.966,0.167-1.168V16.166z"/>
	<path fill="#4D4D4D" d="M575.827,9.428h1.153v3.339h0.061c0.202-0.587,0.49-1.108,0.865-1.563c0.374-0.455,0.81-0.845,1.305-1.169
		c0.495-0.323,1.036-0.566,1.624-0.728c0.587-0.162,1.184-0.243,1.791-0.243c0.909,0,1.684,0.112,2.321,0.334
		c0.638,0.223,1.158,0.516,1.563,0.88c0.404,0.364,0.723,0.774,0.956,1.229c0.232,0.456,0.399,0.916,0.501,1.381
		c0.101,0.466,0.161,0.916,0.182,1.351s0.03,0.815,0.03,1.138v9.651h-1.153v-9.863c0-0.385-0.03-0.87-0.091-1.457
		c-0.061-0.587-0.237-1.148-0.531-1.685c-0.294-0.536-0.738-0.996-1.336-1.381c-0.597-0.384-1.422-0.576-2.473-0.576
		c-0.892,0-1.68,0.162-2.368,0.485c-0.688,0.324-1.274,0.774-1.76,1.351c-0.486,0.577-0.855,1.265-1.108,2.064
		s-0.379,1.674-0.379,2.625v8.438h-1.153V9.428z"/>
	<path fill="#4D4D4D" d="M603.325,14.254c-0.061-0.688-0.237-1.295-0.53-1.821c-0.294-0.526-0.674-0.961-1.139-1.305
		c-0.466-0.344-1.007-0.607-1.624-0.789c-0.617-0.182-1.28-0.273-1.988-0.273c-0.971,0-1.831,0.197-2.58,0.592
		c-0.748,0.394-1.376,0.921-1.881,1.578c-0.506,0.658-0.891,1.406-1.154,2.246c-0.263,0.84-0.394,1.704-0.394,2.595
		c0,1.052,0.121,2.023,0.364,2.913c0.243,0.891,0.616,1.665,1.123,2.322c0.505,0.658,1.133,1.168,1.882,1.533
		c0.748,0.364,1.628,0.546,2.64,0.546c0.729,0,1.401-0.121,2.019-0.364s1.164-0.577,1.639-1.002c0.476-0.425,0.865-0.935,1.17-1.533
		c0.303-0.596,0.505-1.249,0.606-1.957h1.153c-0.121,0.931-0.375,1.76-0.759,2.489c-0.385,0.728-0.87,1.34-1.458,1.836
		c-0.587,0.496-1.254,0.875-2.003,1.138c-0.748,0.263-1.537,0.394-2.367,0.394c-1.274,0-2.361-0.227-3.262-0.682
		c-0.901-0.456-1.639-1.067-2.216-1.837c-0.577-0.768-1.002-1.654-1.275-2.655c-0.273-1.002-0.409-2.049-0.409-3.141
		c0-1.093,0.156-2.125,0.47-3.096c0.313-0.971,0.774-1.821,1.382-2.549c0.606-0.729,1.354-1.306,2.246-1.73
		c0.89-0.425,1.912-0.638,3.064-0.638c0.851,0,1.645,0.106,2.384,0.319c0.738,0.212,1.396,0.531,1.972,0.956
		c0.577,0.425,1.047,0.966,1.412,1.624c0.364,0.657,0.586,1.421,0.667,2.291H603.325z"/>
	<path fill="#4D4D4D" d="M607.756,17.38v0.182c0,0.911,0.122,1.781,0.366,2.61c0.243,0.83,0.603,1.559,1.08,2.185
		c0.476,0.628,1.075,1.123,1.795,1.488c0.72,0.364,1.557,0.546,2.511,0.546c1.562,0,2.801-0.41,3.713-1.229
		c0.912-0.82,1.542-1.958,1.887-3.415h1.154c-0.346,1.821-1.088,3.217-2.231,4.189c-1.143,0.971-2.656,1.456-4.537,1.456
		c-1.154,0-2.16-0.207-3.021-0.622c-0.859-0.414-1.578-0.981-2.154-1.699c-0.577-0.718-1.008-1.568-1.291-2.55
		c-0.282-0.981-0.425-2.038-0.425-3.171c0-1.093,0.147-2.14,0.44-3.141c0.293-1.002,0.732-1.882,1.32-2.641
		c0.587-0.759,1.32-1.366,2.201-1.821c0.88-0.455,1.917-0.683,3.11-0.683c1.093,0,2.059,0.203,2.898,0.607
		c0.839,0.405,1.543,0.956,2.109,1.654s0.997,1.508,1.29,2.428c0.293,0.921,0.439,1.908,0.439,2.959
		c0,0.102-0.005,0.218-0.015,0.349c-0.01,0.132-0.015,0.238-0.015,0.319H607.756z M619.229,16.379
		c-0.041-0.85-0.183-1.655-0.426-2.413c-0.244-0.759-0.604-1.427-1.08-2.003c-0.478-0.577-1.057-1.037-1.735-1.381
		c-0.68-0.344-1.456-0.516-2.328-0.516c-0.934,0-1.755,0.177-2.465,0.531s-1.31,0.819-1.795,1.396
		c-0.487,0.577-0.862,1.25-1.127,2.018c-0.264,0.769-0.426,1.559-0.486,2.368H619.229z"/>
	<path fill="#4D4D4D" d="M624.237,12.888h0.091c0.142-0.505,0.399-0.981,0.774-1.426c0.374-0.445,0.829-0.83,1.366-1.153
		c0.535-0.324,1.133-0.572,1.79-0.744c0.658-0.172,1.34-0.248,2.049-0.228v1.154c-0.606-0.081-1.3-0.02-2.079,0.182
		c-0.778,0.202-1.522,0.648-2.23,1.335c-0.283,0.304-0.531,0.597-0.743,0.88c-0.213,0.284-0.391,0.597-0.532,0.941
		c-0.141,0.344-0.253,0.729-0.333,1.153c-0.081,0.425-0.132,0.931-0.152,1.518v8.528h-1.152V9.428h1.152V12.888z"/>
	<path fill="#4D4D4D" d="M539.071,50.737c0-1.538,0.229-3,0.684-4.386c0.455-1.385,1.118-2.605,1.987-3.657
		c0.869-1.052,1.938-1.886,3.202-2.504c1.265-0.617,2.717-0.926,4.355-0.926c1.112,0,2.175,0.163,3.188,0.486
		c1.011,0.324,1.916,0.8,2.716,1.427c0.799,0.627,1.473,1.386,2.019,2.276s0.911,1.902,1.093,3.035h-1.275
		c-0.506-1.902-1.416-3.389-2.73-4.462c-1.316-1.072-2.976-1.608-4.979-1.608c-1.457,0-2.742,0.283-3.854,0.85
		c-1.113,0.566-2.044,1.325-2.792,2.276c-0.749,0.951-1.316,2.048-1.7,3.293c-0.385,1.244-0.577,2.544-0.577,3.9
		c0,1.376,0.188,2.676,0.562,3.9c0.374,1.224,0.93,2.291,1.669,3.202c0.738,0.91,1.664,1.634,2.777,2.17
		c1.112,0.536,2.418,0.804,3.915,0.804c1.295,0,2.459-0.213,3.49-0.637c1.032-0.425,1.907-1.022,2.626-1.792
		c0.718-0.769,1.259-1.694,1.623-2.777c0.365-1.082,0.516-2.292,0.456-3.627h-7.982v-1.153h9.136V61.45h-1.153v-4.613h-0.061
		c-0.264,0.789-0.658,1.502-1.185,2.14c-0.526,0.637-1.148,1.173-1.866,1.608c-0.719,0.436-1.518,0.774-2.398,1.017
		c-0.88,0.243-1.796,0.364-2.746,0.364c-1.639,0-3.091-0.293-4.355-0.88c-1.265-0.587-2.332-1.386-3.202-2.398
		c-0.87-1.011-1.528-2.2-1.973-3.566C539.294,53.757,539.071,52.295,539.071,50.737z"/>
	<path fill="#4D4D4D" d="M562.562,53.802v0.182c0,0.911,0.122,1.781,0.366,2.61c0.243,0.83,0.603,1.559,1.08,2.185
		c0.476,0.628,1.075,1.123,1.795,1.488c0.72,0.364,1.558,0.546,2.511,0.546c1.562,0,2.801-0.41,3.713-1.229
		c0.913-0.82,1.542-1.958,1.887-3.415h1.154c-0.345,1.821-1.088,3.217-2.231,4.189c-1.143,0.971-2.656,1.456-4.537,1.456
		c-1.154,0-2.16-0.207-3.021-0.622c-0.859-0.414-1.578-0.981-2.154-1.699c-0.577-0.718-1.008-1.568-1.29-2.55
		c-0.283-0.981-0.426-2.038-0.426-3.171c0-1.093,0.147-2.14,0.44-3.142c0.293-1.002,0.733-1.882,1.32-2.641
		c0.587-0.759,1.32-1.366,2.201-1.821c0.88-0.455,1.917-0.683,3.111-0.683c1.092,0,2.058,0.203,2.897,0.607
		c0.839,0.405,1.543,0.956,2.109,1.654c0.567,0.698,0.997,1.508,1.29,2.428c0.293,0.921,0.439,1.908,0.439,2.959
		c0,0.102-0.005,0.218-0.015,0.349c-0.01,0.132-0.015,0.238-0.015,0.319H562.562z M574.036,52.801
		c-0.041-0.85-0.183-1.655-0.426-2.413c-0.244-0.759-0.604-1.427-1.08-2.003c-0.478-0.577-1.057-1.037-1.735-1.381
		c-0.68-0.344-1.456-0.516-2.328-0.516c-0.933,0-1.755,0.177-2.465,0.531s-1.31,0.819-1.795,1.396
		c-0.487,0.577-0.862,1.25-1.126,2.018c-0.265,0.769-0.427,1.559-0.487,2.368H574.036z"/>
	<path fill="#4D4D4D" d="M577.892,45.85h1.153v3.339h0.061c0.202-0.587,0.49-1.108,0.865-1.563c0.374-0.455,0.809-0.845,1.305-1.169
		c0.495-0.323,1.036-0.566,1.623-0.728c0.587-0.162,1.185-0.243,1.791-0.243c0.91,0,1.685,0.112,2.322,0.334
		c0.637,0.223,1.158,0.516,1.563,0.88c0.403,0.364,0.723,0.774,0.956,1.229c0.231,0.456,0.398,0.916,0.501,1.381
		c0.101,0.466,0.161,0.916,0.182,1.351s0.03,0.815,0.03,1.138v9.651h-1.153v-9.864c0-0.385-0.031-0.87-0.091-1.457
		c-0.062-0.587-0.238-1.148-0.531-1.685c-0.294-0.536-0.739-0.996-1.336-1.381c-0.597-0.384-1.422-0.576-2.473-0.576
		c-0.892,0-1.681,0.162-2.368,0.485c-0.688,0.324-1.274,0.774-1.761,1.351c-0.485,0.577-0.854,1.265-1.107,2.064
		c-0.254,0.799-0.379,1.674-0.379,2.625v8.438h-1.153V45.85z"/>
	<path fill="#4D4D4D" d="M592.914,53.65c0-1.112,0.157-2.159,0.471-3.141c0.313-0.981,0.774-1.846,1.382-2.595
		c0.606-0.748,1.354-1.34,2.245-1.775c0.891-0.435,1.912-0.653,3.065-0.653s2.176,0.218,3.065,0.653
		c0.89,0.435,1.639,1.027,2.246,1.775c0.607,0.749,1.067,1.614,1.381,2.595c0.313,0.982,0.471,2.029,0.471,3.141
		c0,1.113-0.157,2.166-0.471,3.157c-0.313,0.991-0.773,1.856-1.381,2.595c-0.607,0.738-1.356,1.325-2.246,1.76
		s-1.912,0.652-3.065,0.652s-2.175-0.217-3.065-0.652s-1.639-1.022-2.245-1.76c-0.607-0.739-1.068-1.604-1.382-2.595
		C593.071,55.816,592.914,54.763,592.914,53.65z M594.067,53.65c0,0.931,0.132,1.827,0.395,2.686
		c0.264,0.861,0.647,1.624,1.153,2.292c0.506,0.667,1.133,1.199,1.882,1.593c0.748,0.395,1.609,0.592,2.58,0.592
		c0.972,0,1.831-0.197,2.58-0.592c0.748-0.394,1.375-0.926,1.882-1.593c0.506-0.668,0.89-1.431,1.152-2.292
		c0.264-0.859,0.396-1.755,0.396-2.686c0-0.93-0.132-1.825-0.396-2.687c-0.263-0.859-0.646-1.623-1.152-2.291
		c-0.507-0.668-1.134-1.199-1.882-1.593c-0.749-0.395-1.608-0.592-2.58-0.592c-0.971,0-1.832,0.197-2.58,0.592
		c-0.749,0.394-1.376,0.925-1.882,1.593s-0.89,1.432-1.153,2.291C594.199,51.825,594.067,52.72,594.067,53.65z"/>
	<path fill="#4D4D4D" d="M609.972,45.85h1.153v3.187h0.061c0.121-0.485,0.334-0.945,0.638-1.381
		c0.304-0.435,0.673-0.814,1.107-1.138c0.436-0.323,0.922-0.577,1.457-0.759c0.536-0.182,1.098-0.273,1.685-0.273
		c0.749,0,1.396,0.096,1.943,0.289c0.546,0.192,1.011,0.445,1.396,0.758c0.384,0.314,0.688,0.668,0.91,1.063
		c0.224,0.395,0.374,0.794,0.455,1.198h0.062c0.465-1.092,1.088-1.916,1.866-2.473c0.778-0.556,1.807-0.835,3.081-0.835
		c0.708,0,1.36,0.106,1.958,0.319c0.596,0.212,1.111,0.536,1.548,0.971c0.434,0.435,0.773,0.986,1.016,1.654
		c0.243,0.668,0.365,1.457,0.365,2.367V61.45h-1.154V50.767c0-0.991-0.15-1.77-0.455-2.337c-0.303-0.566-0.663-0.996-1.077-1.29
		c-0.415-0.293-0.829-0.475-1.245-0.546c-0.414-0.071-0.732-0.106-0.955-0.106c-0.709,0-1.361,0.121-1.958,0.364
		c-0.597,0.243-1.112,0.607-1.548,1.093c-0.436,0.485-0.773,1.087-1.017,1.805c-0.243,0.719-0.364,1.543-0.364,2.474v9.227h-1.153
		V50.767c0-0.971-0.146-1.745-0.439-2.322c-0.294-0.576-0.639-1.006-1.032-1.29c-0.396-0.283-0.8-0.465-1.214-0.546
		c-0.415-0.08-0.744-0.121-0.987-0.121c-0.546,0-1.113,0.111-1.699,0.334c-0.587,0.222-1.123,0.566-1.609,1.032
		c-0.484,0.465-0.88,1.062-1.184,1.79c-0.303,0.729-0.455,1.589-0.455,2.58v9.227h-1.153V45.85z"/>
	<path fill="#4D4D4D" d="M634.374,42.905v-3.126h1.153v3.126H634.374z M634.374,61.45V45.85h1.153V61.45H634.374z"/>
	<path fill="#4D4D4D" d="M650.946,50.676c-0.062-0.688-0.238-1.295-0.531-1.821c-0.294-0.526-0.673-0.961-1.138-1.305
		c-0.467-0.344-1.008-0.607-1.625-0.789c-0.616-0.182-1.279-0.273-1.987-0.273c-0.972,0-1.831,0.197-2.58,0.592
		c-0.748,0.394-1.376,0.921-1.882,1.578c-0.506,0.658-0.891,1.406-1.153,2.246c-0.264,0.84-0.395,1.704-0.395,2.595
		c0,1.052,0.121,2.023,0.364,2.914c0.243,0.891,0.617,1.665,1.123,2.322c0.505,0.658,1.133,1.168,1.882,1.533
		c0.748,0.364,1.628,0.546,2.641,0.546c0.729,0,1.4-0.121,2.018-0.364c0.617-0.243,1.164-0.577,1.64-1.002
		c0.475-0.425,0.864-0.935,1.169-1.533c0.303-0.596,0.505-1.249,0.606-1.957h1.153c-0.121,0.931-0.375,1.76-0.759,2.489
		c-0.385,0.728-0.87,1.34-1.457,1.836s-1.254,0.875-2.003,1.138c-0.748,0.263-1.537,0.394-2.367,0.394
		c-1.275,0-2.362-0.227-3.263-0.682c-0.9-0.456-1.639-1.067-2.216-1.837c-0.577-0.768-1.002-1.654-1.275-2.655
		c-0.272-1.002-0.409-2.049-0.409-3.142c0-1.093,0.156-2.125,0.471-3.096c0.312-0.971,0.773-1.821,1.381-2.549
		c0.607-0.729,1.355-1.306,2.246-1.73c0.89-0.425,1.912-0.638,3.065-0.638c0.85,0,1.644,0.106,2.383,0.319
		c0.738,0.212,1.396,0.531,1.972,0.956c0.577,0.425,1.048,0.966,1.412,1.624c0.364,0.657,0.586,1.421,0.667,2.292H650.946z"/>
	<path fill="#4D4D4D" d="M655.498,56.26c0.04,0.729,0.202,1.371,0.485,1.928c0.284,0.556,0.652,1.032,1.107,1.426
		c0.456,0.395,0.987,0.693,1.595,0.895c0.606,0.203,1.264,0.304,1.972,0.304c0.506,0,1.047-0.046,1.624-0.137
		c0.577-0.091,1.113-0.258,1.609-0.5c0.495-0.243,0.905-0.582,1.229-1.017s0.485-0.987,0.485-1.654c0-0.87-0.263-1.528-0.789-1.973
		c-0.526-0.445-1.188-0.789-1.988-1.032c-0.799-0.243-1.659-0.44-2.579-0.592c-0.921-0.151-1.781-0.379-2.58-0.683
		c-0.8-0.303-1.462-0.733-1.988-1.289c-0.525-0.557-0.789-1.371-0.789-2.444c0-0.768,0.173-1.411,0.517-1.927
		s0.784-0.925,1.32-1.229c0.536-0.303,1.138-0.521,1.806-0.653c0.668-0.131,1.335-0.197,2.003-0.197c0.81,0,1.568,0.091,2.276,0.273
		s1.32,0.476,1.836,0.881c0.517,0.404,0.921,0.92,1.214,1.547c0.293,0.628,0.44,1.386,0.44,2.277h-1.153
		c0-0.708-0.117-1.315-0.349-1.821c-0.233-0.506-0.558-0.916-0.972-1.23c-0.415-0.313-0.905-0.546-1.472-0.698
		c-0.567-0.151-1.174-0.227-1.821-0.227c-0.525,0-1.058,0.051-1.593,0.152c-0.537,0.101-1.018,0.273-1.442,0.515
		c-0.425,0.243-0.773,0.557-1.047,0.941c-0.272,0.385-0.41,0.85-0.41,1.396c0,0.628,0.152,1.134,0.455,1.518
		c0.304,0.384,0.703,0.693,1.199,0.926c0.496,0.232,1.052,0.42,1.669,0.561c0.617,0.142,1.24,0.284,1.867,0.425
		c0.77,0.142,1.492,0.309,2.17,0.501c0.679,0.192,1.265,0.455,1.761,0.789c0.495,0.334,0.885,0.764,1.169,1.29
		c0.283,0.526,0.425,1.194,0.425,2.003c0,0.85-0.193,1.548-0.577,2.094c-0.385,0.546-0.87,0.986-1.457,1.32
		s-1.239,0.566-1.957,0.698c-0.719,0.132-1.422,0.197-2.11,0.197c-0.89,0-1.714-0.116-2.473-0.349
		c-0.76-0.232-1.423-0.586-1.988-1.062c-0.567-0.475-1.012-1.057-1.335-1.745c-0.324-0.688-0.496-1.487-0.517-2.398H655.498z"/>
	<path fill="#4D4D4D" d="M546.295,76.201h1.457l8.56,21.67h-1.427l-2.731-6.949h-10.381l-2.762,6.949h-1.427L546.295,76.201z
		 M551.729,89.77l-4.645-12.264h-0.061l-4.826,12.264H551.729z"/>
	<path fill="#4D4D4D" d="M557.646,82.271h1.153v3.34h0.061c0.202-0.588,0.49-1.109,0.865-1.564c0.374-0.455,0.809-0.844,1.305-1.168
		c0.495-0.324,1.036-0.566,1.623-0.729s1.185-0.244,1.791-0.244c0.91,0,1.685,0.111,2.322,0.334
		c0.638,0.225,1.158,0.518,1.563,0.881c0.404,0.363,0.723,0.773,0.956,1.229c0.231,0.455,0.398,0.916,0.501,1.381
		c0.101,0.467,0.161,0.916,0.182,1.352s0.03,0.814,0.03,1.139v9.65h-1.153v-9.863c0-0.385-0.031-0.869-0.091-1.457
		c-0.061-0.586-0.238-1.148-0.531-1.684c-0.294-0.537-0.739-0.996-1.336-1.383c-0.597-0.383-1.422-0.574-2.473-0.574
		c-0.892,0-1.681,0.16-2.368,0.484c-0.688,0.324-1.274,0.773-1.761,1.352c-0.485,0.576-0.854,1.264-1.107,2.062
		c-0.253,0.801-0.379,1.676-0.379,2.625v8.438h-1.153V82.271z"/>
	<path fill="#4D4D4D" d="M583.749,94.775h-0.062c-0.182,0.467-0.445,0.906-0.789,1.322c-0.344,0.414-0.764,0.783-1.259,1.105
		c-0.496,0.324-1.059,0.578-1.686,0.76s-1.314,0.273-2.063,0.273c-1.659,0-2.944-0.359-3.854-1.078
		c-0.911-0.717-1.366-1.826-1.366-3.324c0-0.91,0.183-1.652,0.546-2.229c0.365-0.578,0.825-1.033,1.382-1.367
		s1.174-0.57,1.852-0.713c0.677-0.143,1.33-0.242,1.957-0.305l1.791-0.15c0.829-0.061,1.482-0.156,1.958-0.289
		c0.476-0.131,0.834-0.312,1.077-0.545s0.395-0.531,0.455-0.896c0.062-0.365,0.091-0.82,0.091-1.365c0-0.426-0.081-0.82-0.243-1.184
		c-0.161-0.365-0.413-0.688-0.758-0.973c-0.345-0.281-0.789-0.506-1.336-0.668c-0.546-0.16-1.214-0.24-2.003-0.24
		c-1.396,0-2.524,0.344-3.384,1.029c-0.86,0.689-1.33,1.73-1.411,3.127h-1.153c0.08-1.719,0.632-3.01,1.654-3.869
		c1.021-0.859,2.473-1.291,4.354-1.291c1.883,0,3.253,0.369,4.112,1.109c0.86,0.738,1.29,1.705,1.29,2.898v9.074
		c0,0.223,0.005,0.445,0.016,0.668c0.01,0.223,0.046,0.424,0.106,0.607c0.061,0.182,0.161,0.33,0.304,0.439
		c0.141,0.111,0.344,0.166,0.606,0.166c0.202,0,0.486-0.029,0.851-0.09v0.971c-0.305,0.082-0.618,0.121-0.941,0.121
		c-0.466,0-0.835-0.061-1.108-0.182c-0.272-0.121-0.48-0.283-0.622-0.486c-0.142-0.201-0.237-0.439-0.288-0.713
		c-0.051-0.271-0.075-0.57-0.075-0.895V94.775z M583.749,89.01c-0.284,0.344-0.714,0.576-1.29,0.697
		c-0.577,0.121-1.22,0.213-1.928,0.273l-1.943,0.182c-0.565,0.061-1.133,0.148-1.698,0.258c-0.567,0.113-1.078,0.299-1.533,0.562
		s-0.825,0.623-1.108,1.078s-0.425,1.047-0.425,1.773c0,1.154,0.365,2.01,1.093,2.566c0.729,0.557,1.73,0.834,3.006,0.834
		c1.314,0,2.356-0.238,3.126-0.713c0.768-0.477,1.354-1.021,1.76-1.639s0.663-1.215,0.774-1.791c0.11-0.576,0.167-0.967,0.167-1.17
		V89.01z"/>
	<path fill="#4D4D4D" d="M590.001,76.201v21.67h-1.153v-21.67H590.001z"/>
	<path fill="#4D4D4D" d="M591.791,82.271h1.366l5.796,14.234l5.343-14.234h1.305l-6.677,17.27c-0.324,0.77-0.622,1.432-0.896,1.988
		s-0.582,0.967-0.926,1.229c-0.405,0.324-0.886,0.521-1.441,0.592c-0.557,0.072-1.29,0.107-2.201,0.107v-1.002
		c0.83,0,1.478-0.066,1.943-0.197c0.465-0.131,0.9-0.4,1.305-0.805c0.223-0.223,0.455-0.633,0.698-1.229
		c0.242-0.598,0.546-1.412,0.91-2.443L591.791,82.271z"/>
	<path fill="#4D4D4D" d="M607.695,92.682c0.039,0.729,0.201,1.371,0.484,1.928c0.284,0.557,0.653,1.031,1.108,1.426
		c0.456,0.395,0.987,0.693,1.594,0.896c0.607,0.203,1.265,0.303,1.973,0.303c0.506,0,1.047-0.045,1.624-0.137
		c0.576-0.09,1.112-0.258,1.608-0.5c0.495-0.242,0.905-0.582,1.229-1.018c0.323-0.434,0.485-0.986,0.485-1.652
		c0-0.871-0.264-1.529-0.789-1.975c-0.526-0.445-1.189-0.789-1.988-1.031c-0.799-0.244-1.659-0.439-2.579-0.592
		c-0.921-0.152-1.781-0.379-2.58-0.684c-0.801-0.303-1.463-0.732-1.988-1.289c-0.526-0.557-0.789-1.371-0.789-2.443
		c0-0.77,0.172-1.412,0.516-1.928c0.345-0.516,0.784-0.926,1.32-1.229c0.536-0.305,1.138-0.521,1.807-0.654
		c0.668-0.131,1.335-0.197,2.003-0.197c0.809,0,1.567,0.092,2.275,0.273s1.32,0.477,1.837,0.881c0.516,0.404,0.921,0.92,1.214,1.547
		c0.293,0.629,0.439,1.387,0.439,2.277h-1.152c0-0.709-0.117-1.314-0.35-1.822c-0.232-0.504-0.557-0.914-0.971-1.229
		c-0.415-0.312-0.906-0.545-1.473-0.697s-1.174-0.227-1.82-0.227c-0.526,0-1.059,0.049-1.594,0.15
		c-0.537,0.102-1.017,0.273-1.441,0.516c-0.426,0.242-0.774,0.557-1.048,0.941c-0.272,0.385-0.409,0.85-0.409,1.396
		c0,0.627,0.151,1.133,0.455,1.518s0.702,0.693,1.198,0.926s1.053,0.42,1.67,0.561c0.616,0.143,1.239,0.283,1.866,0.426
		c0.77,0.141,1.492,0.309,2.171,0.5c0.678,0.193,1.264,0.455,1.76,0.789s0.885,0.766,1.169,1.289
		c0.283,0.527,0.425,1.195,0.425,2.006c0,0.848-0.192,1.547-0.577,2.094c-0.385,0.545-0.87,0.986-1.457,1.32
		s-1.238,0.564-1.957,0.697c-0.719,0.131-1.422,0.197-2.109,0.197c-0.891,0-1.715-0.117-2.474-0.35s-1.422-0.586-1.988-1.062
		c-0.566-0.475-1.012-1.057-1.335-1.744c-0.324-0.688-0.496-1.488-0.516-2.398H607.695z"/>
	<path fill="#4D4D4D" d="M622.021,79.326v-3.125h1.153v3.125H622.021z M622.021,97.871v-15.6h1.153v15.6H622.021z"/>
	<path fill="#4D4D4D" d="M627.393,92.682c0.04,0.729,0.202,1.371,0.485,1.928c0.284,0.557,0.653,1.031,1.108,1.426
		s0.986,0.693,1.594,0.896c0.606,0.203,1.264,0.303,1.972,0.303c0.506,0,1.047-0.045,1.624-0.137c0.577-0.09,1.113-0.258,1.609-0.5
		c0.495-0.242,0.905-0.582,1.229-1.018c0.322-0.434,0.484-0.986,0.484-1.652c0-0.871-0.263-1.529-0.789-1.975
		c-0.525-0.445-1.188-0.789-1.988-1.031c-0.799-0.244-1.658-0.439-2.579-0.592s-1.78-0.379-2.58-0.684
		c-0.8-0.303-1.462-0.732-1.987-1.289c-0.526-0.557-0.789-1.371-0.789-2.443c0-0.77,0.172-1.412,0.516-1.928s0.784-0.926,1.32-1.229
		c0.536-0.305,1.138-0.521,1.806-0.654c0.668-0.131,1.335-0.197,2.003-0.197c0.81,0,1.568,0.092,2.276,0.273s1.32,0.477,1.836,0.881
		c0.517,0.404,0.921,0.92,1.214,1.547c0.294,0.629,0.44,1.387,0.44,2.277h-1.153c0-0.709-0.116-1.314-0.349-1.822
		c-0.233-0.504-0.557-0.914-0.971-1.229c-0.415-0.312-0.906-0.545-1.473-0.697s-1.174-0.227-1.821-0.227
		c-0.525,0-1.058,0.049-1.593,0.15c-0.537,0.102-1.017,0.273-1.442,0.516c-0.425,0.242-0.773,0.557-1.047,0.941
		c-0.272,0.385-0.41,0.85-0.41,1.396c0,0.627,0.152,1.133,0.455,1.518c0.305,0.385,0.703,0.693,1.199,0.926s1.052,0.42,1.669,0.561
		c0.617,0.143,1.24,0.283,1.867,0.426c0.77,0.141,1.492,0.309,2.17,0.5c0.679,0.193,1.265,0.455,1.761,0.789
		s0.885,0.766,1.169,1.289c0.283,0.527,0.425,1.195,0.425,2.006c0,0.848-0.193,1.547-0.577,2.094
		c-0.385,0.545-0.87,0.986-1.457,1.32s-1.239,0.564-1.957,0.697c-0.719,0.131-1.422,0.197-2.11,0.197
		c-0.89,0-1.714-0.117-2.473-0.35s-1.422-0.586-1.988-1.062c-0.567-0.475-1.012-1.057-1.335-1.744
		c-0.324-0.688-0.496-1.488-0.516-2.398H627.393z"/>
	<path fill="#4D4D4D" d="M537.523,113.775v-1.152h16.602v1.152h-7.648v20.518h-1.335v-20.518H537.523z"/>
	<path fill="#4D4D4D" d="M551.758,126.494c0-1.113,0.157-2.16,0.472-3.143c0.312-0.98,0.773-1.846,1.381-2.594
		c0.606-0.748,1.354-1.34,2.245-1.777c0.891-0.434,1.912-0.652,3.066-0.652c1.152,0,2.175,0.219,3.064,0.652
		c0.891,0.438,1.64,1.029,2.246,1.777c0.607,0.748,1.067,1.613,1.381,2.594c0.313,0.982,0.471,2.029,0.471,3.143
		c0,1.111-0.157,2.164-0.471,3.156c-0.313,0.99-0.773,1.855-1.381,2.594c-0.606,0.74-1.355,1.326-2.246,1.762
		c-0.89,0.436-1.912,0.652-3.064,0.652c-1.154,0-2.176-0.217-3.066-0.652s-1.639-1.021-2.245-1.762
		c-0.607-0.738-1.068-1.604-1.381-2.594C551.915,128.658,551.758,127.605,551.758,126.494z M552.911,126.494
		c0,0.93,0.132,1.826,0.396,2.686c0.263,0.859,0.646,1.623,1.152,2.291s1.133,1.199,1.883,1.594c0.748,0.395,1.608,0.592,2.58,0.592
		c0.971,0,1.831-0.197,2.58-0.592c0.748-0.395,1.375-0.926,1.881-1.594s0.89-1.432,1.153-2.291c0.263-0.859,0.395-1.756,0.395-2.686
		c0-0.932-0.132-1.826-0.395-2.688c-0.264-0.859-0.647-1.623-1.153-2.291s-1.133-1.199-1.881-1.594
		c-0.749-0.395-1.609-0.592-2.58-0.592c-0.972,0-1.832,0.197-2.58,0.592c-0.75,0.395-1.377,0.926-1.883,1.594
		s-0.89,1.432-1.152,2.291C553.043,124.668,552.911,125.562,552.911,126.494z"/>
	<path fill="#4D4D4D" d="M568.057,126.494c0-1.113,0.157-2.16,0.472-3.143c0.312-0.98,0.773-1.846,1.381-2.594
		c0.606-0.748,1.354-1.34,2.245-1.777c0.891-0.434,1.912-0.652,3.066-0.652c1.152,0,2.175,0.219,3.064,0.652
		c0.891,0.438,1.64,1.029,2.246,1.777c0.607,0.748,1.067,1.613,1.381,2.594c0.313,0.982,0.471,2.029,0.471,3.143
		c0,1.111-0.157,2.164-0.471,3.156c-0.313,0.99-0.773,1.855-1.381,2.594c-0.606,0.74-1.355,1.326-2.246,1.762
		c-0.89,0.436-1.912,0.652-3.064,0.652c-1.154,0-2.176-0.217-3.066-0.652s-1.639-1.021-2.245-1.762
		c-0.607-0.738-1.068-1.604-1.381-2.594C568.214,128.658,568.057,127.605,568.057,126.494z M569.21,126.494
		c0,0.93,0.132,1.826,0.396,2.686c0.263,0.859,0.646,1.623,1.152,2.291s1.133,1.199,1.883,1.594c0.748,0.395,1.608,0.592,2.58,0.592
		c0.971,0,1.831-0.197,2.58-0.592c0.748-0.395,1.375-0.926,1.881-1.594s0.89-1.432,1.153-2.291c0.263-0.859,0.395-1.756,0.395-2.686
		c0-0.932-0.132-1.826-0.395-2.688c-0.264-0.859-0.647-1.623-1.153-2.291s-1.133-1.199-1.881-1.594
		c-0.749-0.395-1.609-0.592-2.58-0.592c-0.972,0-1.832,0.197-2.58,0.592c-0.75,0.395-1.377,0.926-1.883,1.594
		s-0.89,1.432-1.152,2.291C569.342,124.668,569.21,125.562,569.21,126.494z"/>
	<path fill="#4D4D4D" d="M586.51,112.623v21.67h-1.153v-21.67H586.51z"/>
</g>
</svg>
