<?xml version="1.0" encoding="utf-8"?>
<!-- Generator: Adobe Illustrator 16.0.0, SVG Export Plug-In . SVG Version: 6.00 Build 0)  -->
<!DOCTYPE svg PUBLIC "-//W3C//DTD SVG 1.1//EN" "http://www.w3.org/Graphics/SVG/1.1/DTD/svg11.dtd">
<svg version="1.1" id="Layer_1" xmlns="http://www.w3.org/2000/svg" xmlns:xlink="http://www.w3.org/1999/xlink" x="0px" y="0px"
	 width="500px" height="137.5px" viewBox="0 0 500 137.5" enable-background="new 0 0 500 137.5" xml:space="preserve">
<g>
	
		<linearGradient id="SVGID_1_" gradientUnits="userSpaceOnUse" x1="-202.478" y1="66.374" x2="-39.7143" y2="66.374" gradientTransform="matrix(0.6154 0.6154 1.1787 -1.1787 -11.168 136.8066)">
		<stop  offset="0" style="stop-color:#009AD1"/>
		<stop  offset="1" style="stop-color:#006880"/>
	</linearGradient>
	<path fill="url(#SVGID_1_)" d="M39.896,35.565l4.212-4.116C42.569,32.69,41.167,34.063,39.896,35.565z"/>
	
		<linearGradient id="SVGID_2_" gradientUnits="userSpaceOnUse" x1="-34.2686" y1="86.4922" x2="96.5863" y2="86.4922" gradientTransform="matrix(0.5242 0.5242 1.1787 -1.1787 -18.2115 129.7646)">
		<stop  offset="0" style="stop-color:#009689"/>
		<stop  offset="1" style="stop-color:#006544"/>
	</linearGradient>
	<path fill="url(#SVGID_2_)" d="M49.188,28.072c4.647-2.517,10.299-3.774,16.963-3.774c3.643,0,7.132,0.583,10.461,1.745
		c3.328,1.168,6.311,2.794,8.949,4.884c2.638,2.082,4.838,4.508,6.603,7.265c1.756,2.764,2.883,5.804,3.39,9.115h28.644
		c-0.876-7.61-3.016-14.357-6.404-20.245c-3.391-5.896-7.7-10.83-12.915-14.823C99.664,8.255,93.76,5.221,87.164,3.131
		c-3.431-1.088-6.976-1.885-10.629-2.404L47.591,28.996C48.111,28.678,48.644,28.368,49.188,28.072z"/>
	
		<linearGradient id="SVGID_3_" gradientUnits="userSpaceOnUse" x1="-35.3247" y1="50.2656" x2="95.8633" y2="50.2656" gradientTransform="matrix(0.5242 0.5242 1.1787 -1.1787 -18.2115 129.7646)">
		<stop  offset="0" style="stop-color:#009689"/>
		<stop  offset="1" style="stop-color:#006544"/>
	</linearGradient>
	<path fill="url(#SVGID_3_)" d="M125.332,83.939H96.681c-1.127,8.83-4.241,15.953-9.325,21.347
		c-5.091,5.407-12.156,8.104-21.205,8.104c-6.664,0-12.316-1.26-16.963-3.775c-4.647-2.518-8.421-5.858-11.304-10.029
		c-2.893-4.172-5-8.869-6.318-14.089c-1.32-5.212-1.98-10.583-1.98-16.103c0-5.769,0.66-11.349,1.98-16.748
		c1.247-5.107,3.225-9.675,5.879-13.742L0.211,75.271c0.495,7.369,1.92,14.345,4.314,20.906c3.014,8.284,7.346,15.498,12.998,21.631
		c5.66,6.135,12.6,10.95,20.83,14.448c8.228,3.499,17.491,5.243,27.798,5.243c2.598,0,5.119-0.135,7.583-0.375l51.246-50.051
		C125.116,86.041,125.235,84.999,125.332,83.939z"/>
	
		<linearGradient id="SVGID_4_" gradientUnits="userSpaceOnUse" x1="69.2397" y1="57.3652" x2="203.2603" y2="57.3652" gradientTransform="matrix(0.6154 0.6154 1.1787 -1.1787 -11.168 136.8066)">
		<stop  offset="0" style="stop-color:#009444"/>
		<stop  offset="1" style="stop-color:#00652B"/>
	</linearGradient>
	<path fill="url(#SVGID_4_)" d="M88.959,133.823c6.909-2.456,12.937-6.017,18.091-10.681c5.153-4.658,9.294-10.307,12.438-16.935
		c2.733-5.771,4.567-12.153,5.491-19.134l-51.245,50.051C79.132,136.596,84.214,135.505,88.959,133.823z"/>
	
		<linearGradient id="SVGID_5_" gradientUnits="userSpaceOnUse" x1="-172.1509" y1="62.9502" x2="-39.2941" y2="62.9502" gradientTransform="matrix(0.6154 0.6154 1.1787 -1.1787 -11.168 136.8066)">
		<stop  offset="0" style="stop-color:#009AD1"/>
		<stop  offset="1" style="stop-color:#006880"/>
	</linearGradient>
	<path fill="url(#SVGID_5_)" d="M44.108,31.449L75.68,0.615C72.582,0.213,69.408,0,66.151,0c-10.308,0-19.57,1.782-27.798,5.34
		c-8.23,3.558-15.17,8.462-20.83,14.725c-5.652,6.254-9.984,13.595-12.998,22C1.503,50.468,0,59.583,0,69.395
		c0,1.684,0.064,3.34,0.157,4.982l39.739-38.812C41.167,34.063,42.569,32.69,44.108,31.449z"/>
	
		<linearGradient id="SVGID_6_" gradientUnits="userSpaceOnUse" x1="-34.3311" y1="81.5352" x2="196.9189" y2="81.5352" gradientTransform="matrix(0.5242 0.5242 1.1787 -1.1787 -18.2115 129.7646)">
		<stop  offset="0" style="stop-color:#009689"/>
		<stop  offset="1" style="stop-color:#006544"/>
	</linearGradient>
	<path fill="url(#SVGID_6_)" d="M47.591,28.996L76.536,0.727c-0.284-0.042-0.57-0.074-0.856-0.111L44.108,31.449
		C45.204,30.567,46.361,29.748,47.591,28.996z"/>
	
		<linearGradient id="SVGID_7_" gradientUnits="userSpaceOnUse" x1="-270.1157" y1="81.5352" x2="-39.3038" y2="81.5352" gradientTransform="matrix(0.6154 0.6154 1.1787 -1.1787 -11.168 136.8066)">
		<stop  offset="0" style="stop-color:#009AD1"/>
		<stop  offset="1" style="stop-color:#006880"/>
	</linearGradient>
	<path fill="url(#SVGID_7_)" d="M47.591,28.996L76.536,0.727c-0.284-0.042-0.57-0.074-0.856-0.111L44.108,31.449
		C45.204,30.567,46.361,29.748,47.591,28.996z"/>
	
		<linearGradient id="SVGID_8_" gradientUnits="userSpaceOnUse" x1="-35.3076" y1="47.7695" x2="211.2202" y2="47.7695" gradientTransform="matrix(0.5242 0.5242 1.1787 -1.1787 -18.2115 129.7646)">
		<stop  offset="0" style="stop-color:#009689"/>
		<stop  offset="1" style="stop-color:#006544"/>
	</linearGradient>
	<path fill="url(#SVGID_8_)" d="M37.884,38.191c0.625-0.919,1.301-1.789,2.012-2.626L0.157,74.376
		c0.017,0.3,0.034,0.599,0.054,0.896l37.234-36.367C37.597,38.672,37.726,38.421,37.884,38.191z"/>
	
		<linearGradient id="SVGID_9_" gradientUnits="userSpaceOnUse" x1="-286.1567" y1="47.7695" x2="-40.044" y2="47.7695" gradientTransform="matrix(0.6154 0.6154 1.1787 -1.1787 -11.168 136.8066)">
		<stop  offset="0" style="stop-color:#009AD1"/>
		<stop  offset="1" style="stop-color:#006880"/>
	</linearGradient>
	<path fill="url(#SVGID_9_)" d="M37.884,38.191c0.625-0.919,1.301-1.789,2.012-2.626L0.157,74.376
		c0.017,0.3,0.034,0.599,0.054,0.896l37.234-36.367C37.597,38.672,37.726,38.421,37.884,38.191z"/>
	
		<linearGradient id="SVGID_10_" gradientUnits="userSpaceOnUse" x1="-35.1035" y1="122.2148" x2="97.836" y2="122.2148" gradientTransform="matrix(0.5242 0.5242 1.1787 -1.1787 -18.2115 129.7646)">
		<stop  offset="0" style="stop-color:#009689"/>
		<stop  offset="1" style="stop-color:#006544"/>
	</linearGradient>
	<path fill="url(#SVGID_10_)" d="M205.81,0c-10.308,0-19.57,1.782-27.801,5.34c-8.229,3.558-15.168,8.462-20.829,14.725
		c-5.651,6.254-9.984,13.595-12.997,22c-3.022,8.403-4.526,17.518-4.526,27.33c0,1.104,0.024,2.194,0.065,3.28l73.95-72.225
		C211.083,0.152,208.463,0,205.81,0z"/>
	
		<linearGradient id="SVGID_11_" gradientUnits="userSpaceOnUse" x1="70.4897" y1="120.3398" x2="201.2575" y2="120.3398" gradientTransform="matrix(0.6154 0.6154 1.1787 -1.1787 -11.168 136.8066)">
		<stop  offset="0" style="stop-color:#009444"/>
		<stop  offset="1" style="stop-color:#00652B"/>
	</linearGradient>
	<path fill="url(#SVGID_11_)" d="M264.613,63.507H208.07V85.04h29.778c-0.881,9.206-3.987,16.231-9.333,21.078
		c-5.336,4.845-12.906,7.272-22.706,7.272c-6.664,0-12.318-1.26-16.964-3.775c-4.647-2.518-8.421-5.858-11.305-10.029
		c-2.891-4.172-4.998-8.869-6.318-14.089c-1.319-5.212-1.979-10.583-1.979-16.103c0-5.769,0.66-11.349,1.979-16.748
		c1.32-5.4,3.428-10.217,6.318-14.457c2.883-4.232,6.657-7.603,11.305-10.119c4.646-2.517,10.3-3.774,16.964-3.774
		c7.163,0,13.25,1.841,18.281,5.52c5.024,3.685,8.413,9.205,10.177,16.568h28.268c-0.752-7.483-2.823-14.111-6.221-19.878
		c-3.389-5.768-7.69-10.613-12.905-14.546c-5.214-3.924-11.058-6.899-17.532-8.928c-3.986-1.245-8.054-2.104-12.205-2.583
		l-73.95,72.226c0.307,8.338,1.786,16.174,4.46,23.502c3.013,8.284,7.346,15.498,12.997,21.631c5.66,6.135,12.6,10.95,20.829,14.448
		c8.23,3.499,17.493,5.243,27.801,5.243c6.533,0,13.006-1.316,19.409-3.954c6.412-2.637,12.254-7.274,17.531-13.901l1.673,8.279
		l20.189-19.72V63.507H264.613z"/>
	
		<linearGradient id="SVGID_12_" gradientUnits="userSpaceOnUse" x1="96.1904" y1="122.2148" x2="97.835" y2="122.2148" gradientTransform="matrix(0.5242 0.5242 1.1787 -1.1787 -18.2115 129.7646)">
		<stop  offset="0" style="stop-color:#009689"/>
		<stop  offset="1" style="stop-color:#006544"/>
	</linearGradient>
	<polygon fill="url(#SVGID_12_)" points="213.672,0.45 139.723,72.675 139.723,72.676 213.673,0.45 	"/>
	
		<linearGradient id="SVGID_13_" gradientUnits="userSpaceOnUse" x1="70.4927" y1="122.2148" x2="71.895" y2="122.2148" gradientTransform="matrix(0.6154 0.6154 1.1787 -1.1787 -11.168 136.8066)">
		<stop  offset="0" style="stop-color:#009444"/>
		<stop  offset="1" style="stop-color:#00652B"/>
	</linearGradient>
	<polygon fill="url(#SVGID_13_)" points="213.672,0.45 139.723,72.675 139.723,72.676 213.673,0.45 	"/>
	
		<linearGradient id="SVGID_14_" gradientUnits="userSpaceOnUse" x1="215.6167" y1="117.0039" x2="346.3455" y2="117.0039" gradientTransform="matrix(0.5726 0.5726 1.2993 -1.2993 -22.5381 147.9547)">
		<stop  offset="0" style="stop-color:#77A43A"/>
		<stop  offset="1" style="stop-color:#1E6829"/>
	</linearGradient>
	<polygon fill="url(#SVGID_14_)" points="245.763,134.557 264.613,134.557 264.613,108.718 244.51,128.354 	"/>
	
		<linearGradient id="SVGID_15_" gradientUnits="userSpaceOnUse" x1="-44.2915" y1="120.582" x2="201.2533" y2="120.582" gradientTransform="matrix(0.6154 0.6154 1.1787 -1.1787 -11.168 136.8066)">
		<stop  offset="0" style="stop-color:#009444"/>
		<stop  offset="1" style="stop-color:#00652B"/>
	</linearGradient>
	<polygon fill="url(#SVGID_15_)" points="244.423,127.924 244.51,128.354 264.613,108.718 264.613,108.204 	"/>
	
		<linearGradient id="SVGID_16_" gradientUnits="userSpaceOnUse" x1="215.6235" y1="118.0547" x2="461.325" y2="118.0547" gradientTransform="matrix(0.5726 0.5726 1.2993 -1.2993 -22.5381 147.9547)">
		<stop  offset="0" style="stop-color:#77A43A"/>
		<stop  offset="1" style="stop-color:#1E6829"/>
	</linearGradient>
	<polygon fill="url(#SVGID_16_)" points="244.423,127.924 244.51,128.354 264.613,108.718 264.613,108.204 	"/>
	
		<linearGradient id="SVGID_17_" gradientUnits="userSpaceOnUse" x1="72.3999" y1="184.1973" x2="203.0703" y2="184.1973" gradientTransform="matrix(0.6154 0.6154 1.1787 -1.1787 -11.168 136.8066)">
		<stop  offset="0" style="stop-color:#009444"/>
		<stop  offset="1" style="stop-color:#00652B"/>
	</linearGradient>
	<polygon fill="url(#SVGID_17_)" points="355.643,3.131 325.296,3.131 296.779,76.79 360.148,14.898 	"/>
	
		<linearGradient id="SVGID_18_" gradientUnits="userSpaceOnUse" x1="216.6748" y1="158.9053" x2="347.2158" y2="158.9053" gradientTransform="matrix(0.5726 0.5726 1.2993 -1.2993 -22.5381 147.9547)">
		<stop  offset="0" style="stop-color:#77A43A"/>
		<stop  offset="1" style="stop-color:#1E6829"/>
	</linearGradient>
	<path fill="url(#SVGID_18_)" d="M360.291,15.272l-63.833,62.345l-22.045,56.939h29.78l10.552-29.271h50.323l10.175,29.271h12.151
		l13.517-13.199L360.291,15.272z M322.467,83.751l17.531-48.227h0.376l16.961,48.227H322.467z"/>
	
		<linearGradient id="SVGID_19_" gradientUnits="userSpaceOnUse" x1="-293.1079" y1="182.4131" x2="203.0651" y2="182.4131" gradientTransform="matrix(0.6154 0.6154 1.1787 -1.1787 -11.168 136.8066)">
		<stop  offset="0" style="stop-color:#009444"/>
		<stop  offset="1" style="stop-color:#00652B"/>
	</linearGradient>
	<polygon fill="url(#SVGID_19_)" points="360.148,14.898 296.779,76.79 296.458,77.617 360.291,15.272 	"/>
	
		<linearGradient id="SVGID_20_" gradientUnits="userSpaceOnUse" x1="216.6929" y1="174.1484" x2="713.3883" y2="174.1484" gradientTransform="matrix(0.5726 0.5726 1.2993 -1.2993 -22.5381 147.9547)">
		<stop  offset="0" style="stop-color:#77A43A"/>
		<stop  offset="1" style="stop-color:#1E6829"/>
	</linearGradient>
	<polygon fill="url(#SVGID_20_)" points="360.148,14.898 296.779,76.79 296.458,77.617 360.291,15.272 	"/>
	
		<linearGradient id="SVGID_21_" gradientUnits="userSpaceOnUse" x1="346.2568" y1="175.7832" x2="477.7018" y2="175.7832" gradientTransform="matrix(0.5726 0.5726 1.1787 -1.1787 -11.2795 136.6951)">
		<stop  offset="0" style="stop-color:#ACB42C"/>
		<stop  offset="1" style="stop-color:#527021"/>
	</linearGradient>
	<polygon fill="url(#SVGID_21_)" points="405.965,134.557 401.125,121.914 388.18,134.557 	"/>
	
		<linearGradient id="SVGID_22_" gradientUnits="userSpaceOnUse" x1="164.7456" y1="168.0488" x2="347.2086" y2="168.0488" gradientTransform="matrix(0.5726 0.5726 1.2993 -1.2993 -22.5381 147.9547)">
		<stop  offset="0" style="stop-color:#77A43A"/>
		<stop  offset="1" style="stop-color:#1E6829"/>
	</linearGradient>
	<polygon fill="url(#SVGID_22_)" points="387.395,134.557 388.18,134.557 401.125,121.914 400.91,121.357 	"/>
	
		<linearGradient id="SVGID_23_" gradientUnits="userSpaceOnUse" x1="346.2559" y1="175.6895" x2="528.697" y2="175.6895" gradientTransform="matrix(0.5726 0.5726 1.1787 -1.1787 -11.2795 136.6951)">
		<stop  offset="0" style="stop-color:#ACB42C"/>
		<stop  offset="1" style="stop-color:#527021"/>
	</linearGradient>
	<polygon fill="url(#SVGID_23_)" points="387.395,134.557 388.18,134.557 401.125,121.914 400.91,121.357 	"/>
	
		<linearGradient id="SVGID_24_" gradientUnits="userSpaceOnUse" x1="218.2827" y1="226.0977" x2="349.2355" y2="226.0977" gradientTransform="matrix(0.5726 0.5726 1.2993 -1.2993 -22.5381 147.9547)">
		<stop  offset="0" style="stop-color:#77A43A"/>
		<stop  offset="1" style="stop-color:#1E6829"/>
	</linearGradient>
	<polygon fill="url(#SVGID_24_)" points="459.67,27.428 497.082,27.428 500,24.579 500,3.131 389.744,3.131 389.744,27.428 
		430.083,27.428 430.083,92.865 459.67,63.968 	"/>
	
		<linearGradient id="SVGID_25_" gradientUnits="userSpaceOnUse" x1="348.4941" y1="263.2236" x2="479.9218" y2="263.2236" gradientTransform="matrix(0.5726 0.5726 1.1787 -1.1787 -11.2795 136.6951)">
		<stop  offset="0" style="stop-color:#ACB42C"/>
		<stop  offset="1" style="stop-color:#527021"/>
	</linearGradient>
	<polygon fill="url(#SVGID_25_)" points="500,27.428 500,25.346 497.868,27.428 	"/>
	
		<linearGradient id="SVGID_26_" gradientUnits="userSpaceOnUse" x1="347.123" y1="209.2168" x2="476.7812" y2="209.2168" gradientTransform="matrix(0.5726 0.5726 1.1787 -1.1787 -11.2795 136.6951)">
		<stop  offset="0" style="stop-color:#ACB42C"/>
		<stop  offset="1" style="stop-color:#527021"/>
	</linearGradient>
	<polygon fill="url(#SVGID_26_)" points="430.083,134.557 459.67,134.557 459.67,64.735 430.083,93.631 	"/>
	
		<linearGradient id="SVGID_27_" gradientUnits="userSpaceOnUse" x1="209.1602" y1="247.4531" x2="349.2224" y2="247.4531" gradientTransform="matrix(0.5726 0.5726 1.2993 -1.2993 -22.5381 147.9547)">
		<stop  offset="0" style="stop-color:#77A43A"/>
		<stop  offset="1" style="stop-color:#1E6829"/>
	</linearGradient>
	<polygon fill="url(#SVGID_27_)" points="497.082,27.428 497.868,27.428 500,25.346 500,24.579 	"/>
	
		<linearGradient id="SVGID_28_" gradientUnits="userSpaceOnUse" x1="348.4922" y1="263.2188" x2="488.5575" y2="263.2188" gradientTransform="matrix(0.5726 0.5726 1.1787 -1.1787 -11.2795 136.6951)">
		<stop  offset="0" style="stop-color:#ACB42C"/>
		<stop  offset="1" style="stop-color:#527021"/>
	</linearGradient>
	<polygon fill="url(#SVGID_28_)" points="497.082,27.428 497.868,27.428 500,25.346 500,24.579 	"/>
	
		<linearGradient id="SVGID_29_" gradientUnits="userSpaceOnUse" x1="104.7422" y1="206.4854" x2="348.3998" y2="206.4854" gradientTransform="matrix(0.5726 0.5726 1.2993 -1.2993 -22.5381 147.9547)">
		<stop  offset="0" style="stop-color:#77A43A"/>
		<stop  offset="1" style="stop-color:#1E6829"/>
	</linearGradient>
	<polygon fill="url(#SVGID_29_)" points="430.083,92.865 430.083,93.631 459.67,64.735 459.67,63.968 	"/>
	
		<linearGradient id="SVGID_30_" gradientUnits="userSpaceOnUse" x1="347.127" y1="218.0586" x2="591.4443" y2="218.0586" gradientTransform="matrix(0.5726 0.5726 1.1787 -1.1787 -11.2795 136.6951)">
		<stop  offset="0" style="stop-color:#ACB42C"/>
		<stop  offset="1" style="stop-color:#527021"/>
	</linearGradient>
	<polygon fill="url(#SVGID_30_)" points="430.083,92.865 430.083,93.631 459.67,64.735 459.67,63.968 	"/>
</g>
</svg>
