<?xml version="1.0" encoding="utf-8"?>
<!-- Generator: Adobe Illustrator 16.0.0, SVG Export Plug-In . SVG Version: 6.00 Build 0)  -->
<!DOCTYPE svg PUBLIC "-//W3C//DTD SVG 1.1//EN" "http://www.w3.org/Graphics/SVG/1.1/DTD/svg11.dtd">
<svg version="1.1" id="Layer_1" xmlns="http://www.w3.org/2000/svg" xmlns:xlink="http://www.w3.org/1999/xlink" x="0px" y="0px"
	 width="90.909px" height="25px" viewBox="204.546 56.25 90.909 25" enable-background="new 204.546 56.25 90.909 25"
	 xml:space="preserve">
<g>
	
		<linearGradient id="SVGID_1_" gradientUnits="userSpaceOnUse" x1="370.2734" y1="245.9766" x2="400.1528" y2="245.9766" gradientTransform="matrix(0.6154 0.6154 1.1787 -1.1787 -323.8897 106.1352)">
		<stop  offset="0" style="stop-color:#009AD1"/>
		<stop  offset="1" style="stop-color:#006880"/>
	</linearGradient>
	<path fill="url(#SVGID_1_)" d="M211.799,62.716l0.766-0.748C212.286,62.194,212.031,62.443,211.799,62.716z"/>
	
		<linearGradient id="SVGID_2_" gradientUnits="userSpaceOnUse" x1="434.4688" y1="249.6348" x2="458.2608" y2="249.6348" gradientTransform="matrix(0.5242 0.5242 1.1787 -1.1787 -305.4885 124.5374)">
		<stop  offset="0" style="stop-color:#009689"/>
		<stop  offset="1" style="stop-color:#006544"/>
	</linearGradient>
	<path fill="url(#SVGID_2_)" d="M213.489,61.354c0.845-0.458,1.873-0.686,3.084-0.686c0.662,0,1.296,0.106,1.902,0.317
		c0.605,0.213,1.147,0.508,1.627,0.888c0.48,0.378,0.88,0.82,1.201,1.321c0.319,0.503,0.524,1.056,0.617,1.658h5.208
		c-0.159-1.384-0.548-2.611-1.164-3.681c-0.617-1.072-1.4-1.969-2.349-2.695c-0.948-0.724-2.021-1.276-3.221-1.656
		c-0.624-0.198-1.268-0.343-1.933-0.437l-5.263,5.14C213.293,61.464,213.39,61.408,213.489,61.354z"/>
	
		<linearGradient id="SVGID_3_" gradientUnits="userSpaceOnUse" x1="434.2764" y1="243.0488" x2="458.1283" y2="243.0488" gradientTransform="matrix(0.5242 0.5242 1.1787 -1.1787 -305.4885 124.5374)">
		<stop  offset="0" style="stop-color:#009689"/>
		<stop  offset="1" style="stop-color:#006544"/>
	</linearGradient>
	<path fill="url(#SVGID_3_)" d="M227.333,71.512h-5.209c-0.205,1.605-0.771,2.901-1.696,3.882c-0.925,0.982-2.209,1.473-3.855,1.473
		c-1.212,0-2.239-0.229-3.084-0.686c-0.845-0.458-1.531-1.066-2.055-1.824c-0.526-0.759-0.909-1.612-1.148-2.562
		c-0.24-0.948-0.36-1.924-0.36-2.928c0-1.049,0.12-2.063,0.36-3.045c0.227-0.929,0.586-1.759,1.068-2.499l-6.77,6.612
		c0.09,1.34,0.349,2.608,0.784,3.801c0.548,1.507,1.335,2.817,2.363,3.934c1.029,1.115,2.292,1.991,3.788,2.627
		c1.496,0.637,3.18,0.953,5.054,0.953c0.472,0,0.931-0.024,1.378-0.068l9.318-9.101C227.294,71.894,227.315,71.705,227.333,71.512z"
		/>
	
		<linearGradient id="SVGID_4_" gradientUnits="userSpaceOnUse" x1="419.96" y1="244.3389" x2="444.3401" y2="244.3389" gradientTransform="matrix(0.6154 0.6154 1.1787 -1.1787 -323.8897 106.1352)">
		<stop  offset="0" style="stop-color:#009444"/>
		<stop  offset="1" style="stop-color:#00652B"/>
	</linearGradient>
	<path fill="url(#SVGID_4_)" d="M220.72,80.582c1.256-0.446,2.353-1.094,3.29-1.942c0.937-0.847,1.69-1.873,2.261-3.079
		c0.497-1.049,0.831-2.21,0.999-3.479l-9.317,9.101C218.933,81.085,219.857,80.888,220.72,80.582z"/>
	
		<linearGradient id="SVGID_5_" gradientUnits="userSpaceOnUse" x1="376.0674" y1="245.3545" x2="400.2277" y2="245.3545" gradientTransform="matrix(0.6154 0.6154 1.1787 -1.1787 -323.8897 106.1352)">
		<stop  offset="0" style="stop-color:#009AD1"/>
		<stop  offset="1" style="stop-color:#006880"/>
	</linearGradient>
	<path fill="url(#SVGID_5_)" d="M212.565,61.968l5.74-5.606c-0.563-0.073-1.141-0.112-1.732-0.112c-1.875,0-3.559,0.324-5.054,0.971
		c-1.496,0.647-2.758,1.538-3.788,2.677c-1.028,1.137-1.815,2.472-2.363,4c-0.549,1.527-0.823,3.185-0.823,4.969
		c0,0.306,0.012,0.606,0.029,0.905l7.225-7.056C212.031,62.443,212.286,62.194,212.565,61.968z"/>
	
		<linearGradient id="SVGID_6_" gradientUnits="userSpaceOnUse" x1="434.457" y1="248.7344" x2="476.5151" y2="248.7344" gradientTransform="matrix(0.5242 0.5242 1.1787 -1.1787 -305.4885 124.5374)">
		<stop  offset="0" style="stop-color:#009689"/>
		<stop  offset="1" style="stop-color:#006544"/>
	</linearGradient>
	<path fill="url(#SVGID_6_)" d="M213.198,61.522l5.263-5.14c-0.052-0.008-0.104-0.014-0.156-0.02l-5.74,5.606
		C212.765,61.808,212.975,61.659,213.198,61.522z"/>
	
		<linearGradient id="SVGID_7_" gradientUnits="userSpaceOnUse" x1="358.2598" y1="248.7334" x2="400.2256" y2="248.7334" gradientTransform="matrix(0.6154 0.6154 1.1787 -1.1787 -323.8897 106.1352)">
		<stop  offset="0" style="stop-color:#009AD1"/>
		<stop  offset="1" style="stop-color:#006880"/>
	</linearGradient>
	<path fill="url(#SVGID_7_)" d="M213.198,61.522l5.263-5.14c-0.052-0.008-0.104-0.014-0.156-0.02l-5.74,5.606
		C212.765,61.808,212.975,61.659,213.198,61.522z"/>
	
		<linearGradient id="SVGID_8_" gradientUnits="userSpaceOnUse" x1="434.2793" y1="242.5947" x2="479.0015" y2="242.5947" gradientTransform="matrix(0.5242 0.5242 1.1787 -1.1787 -305.4885 124.5374)">
		<stop  offset="0" style="stop-color:#009689"/>
		<stop  offset="1" style="stop-color:#006544"/>
	</linearGradient>
	<path fill="url(#SVGID_8_)" d="M211.434,63.194c0.114-0.167,0.236-0.326,0.366-0.478l-7.225,7.056
		c0.003,0.055,0.006,0.109,0.01,0.163l6.77-6.612C211.381,63.281,211.405,63.235,211.434,63.194z"/>
	
		<linearGradient id="SVGID_9_" gradientUnits="userSpaceOnUse" x1="355.2686" y1="242.5938" x2="400.0904" y2="242.5938" gradientTransform="matrix(0.6154 0.6154 1.1787 -1.1787 -323.8897 106.1352)">
		<stop  offset="0" style="stop-color:#009AD1"/>
		<stop  offset="1" style="stop-color:#006880"/>
	</linearGradient>
	<path fill="url(#SVGID_9_)" d="M211.434,63.194c0.114-0.167,0.236-0.326,0.366-0.478l-7.225,7.056
		c0.003,0.055,0.006,0.109,0.01,0.163l6.77-6.612C211.381,63.281,211.405,63.235,211.434,63.194z"/>
	
		<linearGradient id="SVGID_10_" gradientUnits="userSpaceOnUse" x1="434.3145" y1="256.1309" x2="458.4876" y2="256.1309" gradientTransform="matrix(0.5242 0.5242 1.1787 -1.1787 -305.4885 124.5374)">
		<stop  offset="0" style="stop-color:#009689"/>
		<stop  offset="1" style="stop-color:#006544"/>
	</linearGradient>
	<path fill="url(#SVGID_10_)" d="M241.966,56.25c-1.875,0-3.558,0.324-5.055,0.971s-2.758,1.538-3.788,2.677
		c-1.027,1.137-1.815,2.472-2.363,4c-0.549,1.527-0.823,3.185-0.823,4.969c0,0.201,0.004,0.399,0.012,0.597l13.445-13.132
		C242.924,56.277,242.448,56.25,241.966,56.25z"/>
	
		<linearGradient id="SVGID_11_" gradientUnits="userSpaceOnUse" x1="420.1885" y1="255.7891" x2="443.9643" y2="255.7891" gradientTransform="matrix(0.6154 0.6154 1.1787 -1.1787 -323.8897 106.1352)">
		<stop  offset="0" style="stop-color:#009444"/>
		<stop  offset="1" style="stop-color:#00652B"/>
	</linearGradient>
	<path fill="url(#SVGID_11_)" d="M252.658,67.797h-10.282v3.915h5.415c-0.161,1.674-0.725,2.951-1.697,3.832
		c-0.97,0.881-2.347,1.322-4.129,1.322c-1.211,0-2.239-0.229-3.084-0.686c-0.845-0.458-1.531-1.066-2.056-1.824
		c-0.526-0.759-0.909-1.612-1.149-2.562c-0.24-0.948-0.36-1.924-0.36-2.928c0-1.049,0.12-2.063,0.36-3.045
		c0.24-0.982,0.623-1.858,1.149-2.628c0.524-0.77,1.21-1.383,2.056-1.84c0.845-0.458,1.873-0.687,3.084-0.687
		c1.302,0,2.409,0.335,3.324,1.004c0.914,0.67,1.53,1.673,1.851,3.012h5.14c-0.137-1.36-0.513-2.565-1.131-3.614
		c-0.616-1.049-1.398-1.929-2.347-2.645c-0.948-0.713-2.01-1.254-3.188-1.624c-0.725-0.226-1.464-0.382-2.219-0.469L229.95,69.464
		c0.056,1.517,0.325,2.94,0.811,4.272c0.547,1.507,1.335,2.817,2.363,3.934c1.029,1.115,2.291,1.991,3.787,2.627
		c1.497,0.637,3.181,0.953,5.055,0.953c1.188,0,2.365-0.239,3.529-0.719c1.166-0.479,2.228-1.322,3.188-2.527l0.305,1.505
		l3.67-3.585v-8.127H252.658z"/>
	
		<linearGradient id="SVGID_12_" gradientUnits="userSpaceOnUse" x1="458.1885" y1="256.1309" x2="458.4873" y2="256.1309" gradientTransform="matrix(0.5242 0.5242 1.1787 -1.1787 -305.4885 124.5374)">
		<stop  offset="0" style="stop-color:#009689"/>
		<stop  offset="1" style="stop-color:#006544"/>
	</linearGradient>
	<polygon fill="url(#SVGID_12_)" points="243.395,56.332 229.95,69.464 229.95,69.464 243.395,56.332 	"/>
	
		<linearGradient id="SVGID_13_" gradientUnits="userSpaceOnUse" x1="420.1895" y1="256.1289" x2="420.4434" y2="256.1289" gradientTransform="matrix(0.6154 0.6154 1.1787 -1.1787 -323.8897 106.1352)">
		<stop  offset="0" style="stop-color:#009444"/>
		<stop  offset="1" style="stop-color:#00652B"/>
	</linearGradient>
	<polygon fill="url(#SVGID_13_)" points="243.395,56.332 229.95,69.464 229.95,69.464 243.395,56.332 	"/>
	
		<linearGradient id="SVGID_14_" gradientUnits="userSpaceOnUse" x1="456.3291" y1="258.7529" x2="480.104" y2="258.7529" gradientTransform="matrix(0.5726 0.5726 1.2993 -1.2993 -346.9573 152.8616)">
		<stop  offset="0" style="stop-color:#77A43A"/>
		<stop  offset="1" style="stop-color:#1E6829"/>
	</linearGradient>
	<polygon fill="url(#SVGID_14_)" points="249.23,80.715 252.658,80.715 252.658,76.017 249.002,79.587 	"/>
	
		<linearGradient id="SVGID_15_" gradientUnits="userSpaceOnUse" x1="398.9922" y1="255.832" x2="443.9638" y2="255.832" gradientTransform="matrix(0.6154 0.6154 1.1787 -1.1787 -323.8897 106.1352)">
		<stop  offset="0" style="stop-color:#009444"/>
		<stop  offset="1" style="stop-color:#00652B"/>
	</linearGradient>
	<polygon fill="url(#SVGID_15_)" points="248.986,79.509 249.002,79.587 252.658,76.017 252.658,75.924 	"/>
	
		<linearGradient id="SVGID_16_" gradientUnits="userSpaceOnUse" x1="456.3301" y1="258.9434" x2="501.5101" y2="258.9434" gradientTransform="matrix(0.5726 0.5726 1.2993 -1.2993 -346.9573 152.8616)">
		<stop  offset="0" style="stop-color:#77A43A"/>
		<stop  offset="1" style="stop-color:#1E6829"/>
	</linearGradient>
	<polygon fill="url(#SVGID_16_)" points="248.986,79.509 249.002,79.587 252.658,76.017 252.658,75.924 	"/>
	
		<linearGradient id="SVGID_17_" gradientUnits="userSpaceOnUse" x1="420.5332" y1="267.3994" x2="444.2948" y2="267.3994" gradientTransform="matrix(0.6154 0.6154 1.1787 -1.1787 -323.8897 106.1352)">
		<stop  offset="0" style="stop-color:#009444"/>
		<stop  offset="1" style="stop-color:#00652B"/>
	</linearGradient>
	<polygon fill="url(#SVGID_17_)" points="269.208,56.819 263.69,56.819 258.506,70.212 270.027,58.959 	"/>
	
		<linearGradient id="SVGID_18_" gradientUnits="userSpaceOnUse" x1="456.5225" y1="266.3711" x2="480.2565" y2="266.3711" gradientTransform="matrix(0.5726 0.5726 1.2993 -1.2993 -346.9573 152.8616)">
		<stop  offset="0" style="stop-color:#77A43A"/>
		<stop  offset="1" style="stop-color:#1E6829"/>
	</linearGradient>
	<path fill="url(#SVGID_18_)" d="M270.053,59.027l-11.605,11.335l-4.008,10.353h5.414l1.918-5.321h9.15l1.851,5.321h2.208l2.458-2.4
		L270.053,59.027z M263.176,71.478l3.188-8.769h0.068l3.084,8.769H263.176z"/>
	
		<linearGradient id="SVGID_19_" gradientUnits="userSpaceOnUse" x1="354.2148" y1="267.0742" x2="444.2921" y2="267.0742" gradientTransform="matrix(0.6154 0.6154 1.1787 -1.1787 -323.8897 106.1352)">
		<stop  offset="0" style="stop-color:#009444"/>
		<stop  offset="1" style="stop-color:#00652B"/>
	</linearGradient>
	<polygon fill="url(#SVGID_19_)" points="270.027,58.959 258.506,70.212 258.447,70.362 270.053,59.027 	"/>
	
		<linearGradient id="SVGID_20_" gradientUnits="userSpaceOnUse" x1="456.5264" y1="269.1426" x2="546.784" y2="269.1426" gradientTransform="matrix(0.5726 0.5726 1.2993 -1.2993 -346.9573 152.8616)">
		<stop  offset="0" style="stop-color:#77A43A"/>
		<stop  offset="1" style="stop-color:#1E6829"/>
	</linearGradient>
	<polygon fill="url(#SVGID_20_)" points="270.027,58.959 258.506,70.212 258.447,70.362 270.053,59.027 	"/>
	
		<linearGradient id="SVGID_21_" gradientUnits="userSpaceOnUse" x1="480.084" y1="265.8691" x2="503.9711" y2="265.8691" gradientTransform="matrix(0.5726 0.5726 1.1787 -1.1787 -312.0601 117.9644)">
		<stop  offset="0" style="stop-color:#ACB42C"/>
		<stop  offset="1" style="stop-color:#527021"/>
	</linearGradient>
	<polygon fill="url(#SVGID_21_)" points="278.357,80.715 277.478,78.417 275.124,80.715 	"/>
	
		<linearGradient id="SVGID_22_" gradientUnits="userSpaceOnUse" x1="446.9102" y1="268.0332" x2="480.2556" y2="268.0332" gradientTransform="matrix(0.5726 0.5726 1.2993 -1.2993 -346.9573 152.8616)">
		<stop  offset="0" style="stop-color:#77A43A"/>
		<stop  offset="1" style="stop-color:#1E6829"/>
	</linearGradient>
	<polygon fill="url(#SVGID_22_)" points="274.98,80.715 275.124,80.715 277.478,78.417 277.438,78.314 	"/>
	
		<linearGradient id="SVGID_23_" gradientUnits="userSpaceOnUse" x1="480.082" y1="265.8525" x2="513.6797" y2="265.8525" gradientTransform="matrix(0.5726 0.5726 1.1787 -1.1787 -312.0601 117.9644)">
		<stop  offset="0" style="stop-color:#ACB42C"/>
		<stop  offset="1" style="stop-color:#527021"/>
	</linearGradient>
	<polygon fill="url(#SVGID_23_)" points="274.98,80.715 275.124,80.715 277.478,78.417 277.438,78.314 	"/>
	
		<linearGradient id="SVGID_24_" gradientUnits="userSpaceOnUse" x1="456.8164" y1="278.5879" x2="480.624" y2="278.5879" gradientTransform="matrix(0.5726 0.5726 1.2993 -1.2993 -346.9573 152.8616)">
		<stop  offset="0" style="stop-color:#77A43A"/>
		<stop  offset="1" style="stop-color:#1E6829"/>
	</linearGradient>
	<polygon fill="url(#SVGID_24_)" points="288.122,61.237 294.925,61.237 295.455,60.719 295.455,56.819 275.409,56.819 
		275.409,61.237 282.743,61.237 282.743,73.135 288.122,67.88 	"/>
	
		<linearGradient id="SVGID_25_" gradientUnits="userSpaceOnUse" x1="480.4912" y1="281.7676" x2="504.337" y2="281.7676" gradientTransform="matrix(0.5726 0.5726 1.1787 -1.1787 -312.0601 117.9644)">
		<stop  offset="0" style="stop-color:#ACB42C"/>
		<stop  offset="1" style="stop-color:#527021"/>
	</linearGradient>
	<polygon fill="url(#SVGID_25_)" points="295.455,61.237 295.455,60.858 295.067,61.237 	"/>
	
		<linearGradient id="SVGID_26_" gradientUnits="userSpaceOnUse" x1="480.2422" y1="271.9482" x2="503.813" y2="271.9482" gradientTransform="matrix(0.5726 0.5726 1.1787 -1.1787 -312.0601 117.9644)">
		<stop  offset="0" style="stop-color:#ACB42C"/>
		<stop  offset="1" style="stop-color:#527021"/>
	</linearGradient>
	<polygon fill="url(#SVGID_26_)" points="282.743,80.715 288.122,80.715 288.122,68.02 282.743,73.274 	"/>
	
		<linearGradient id="SVGID_27_" gradientUnits="userSpaceOnUse" x1="455.123" y1="282.4707" x2="480.623" y2="282.4707" gradientTransform="matrix(0.5726 0.5726 1.2993 -1.2993 -346.9573 152.8616)">
		<stop  offset="0" style="stop-color:#77A43A"/>
		<stop  offset="1" style="stop-color:#1E6829"/>
	</linearGradient>
	<polygon fill="url(#SVGID_27_)" points="294.925,61.237 295.067,61.237 295.455,60.858 295.455,60.719 	"/>
	
		<linearGradient id="SVGID_28_" gradientUnits="userSpaceOnUse" x1="480.4902" y1="281.7676" x2="505.9908" y2="281.7676" gradientTransform="matrix(0.5726 0.5726 1.1787 -1.1787 -312.0601 117.9644)">
		<stop  offset="0" style="stop-color:#ACB42C"/>
		<stop  offset="1" style="stop-color:#527021"/>
	</linearGradient>
	<polygon fill="url(#SVGID_28_)" points="294.925,61.237 295.067,61.237 295.455,60.858 295.455,60.719 	"/>
	
		<linearGradient id="SVGID_29_" gradientUnits="userSpaceOnUse" x1="436.3076" y1="275.0215" x2="480.4729" y2="275.0215" gradientTransform="matrix(0.5726 0.5726 1.2993 -1.2993 -346.9573 152.8616)">
		<stop  offset="0" style="stop-color:#77A43A"/>
		<stop  offset="1" style="stop-color:#1E6829"/>
	</linearGradient>
	<polygon fill="url(#SVGID_29_)" points="282.743,73.135 282.743,73.274 288.122,68.02 288.122,67.88 	"/>
	
		<linearGradient id="SVGID_30_" gradientUnits="userSpaceOnUse" x1="480.2412" y1="273.5566" x2="524.4921" y2="273.5566" gradientTransform="matrix(0.5726 0.5726 1.1787 -1.1787 -312.0601 117.9644)">
		<stop  offset="0" style="stop-color:#ACB42C"/>
		<stop  offset="1" style="stop-color:#527021"/>
	</linearGradient>
	<polygon fill="url(#SVGID_30_)" points="282.743,73.135 282.743,73.274 288.122,68.02 288.122,67.88 	"/>
</g>
</svg>
