<?xml version="1.0" encoding="utf-8"?>
<!-- Generator: Adobe Illustrator 16.0.0, SVG Export Plug-In . SVG Version: 6.00 Build 0)  -->
<!DOCTYPE svg PUBLIC "-//W3C//DTD SVG 1.1//EN" "http://www.w3.org/Graphics/SVG/1.1/DTD/svg11.dtd">
<svg version="1.1" id="Layer_1" xmlns="http://www.w3.org/2000/svg" xmlns:xlink="http://www.w3.org/1999/xlink" x="0px" y="0px"
	 width="660px" height="241.51px" viewBox="-165.818 -60.677 660 241.51" enable-background="new -165.818 -60.677 660 241.51"
	 xml:space="preserve">
<g>
	<path fill="#A7A9AC" d="M-48.758-8.365l34.429,101.22h0.413L18.656-8.365h45.559v147.19H33.908V34.511h-0.412L-2.581,138.825
		h-24.942L-63.6,35.542h-0.412v103.283h-30.307V-8.365H-48.758z"/>
	<path fill="#A7A9AC" d="M166.048-8.365l55.045,147.19H187.49l-11.133-32.776h-55.039l-11.544,32.776H77.2l55.663-147.19H166.048z
		 M167.906,81.927l-18.553-54.011h-0.412l-19.171,54.011H167.906z"/>
	<path fill="#A7A9AC" d="M321.072,137.692c-7.009,2.952-14.089,4.431-21.232,4.431c-11.271,0-21.406-1.959-30.406-5.875
		c-9.003-3.917-16.597-9.309-22.781-16.184c-6.181-6.869-10.926-14.946-14.223-24.222c-3.298-9.278-4.948-19.278-4.948-29.998
		c0-10.991,1.652-21.196,4.948-30.612c3.297-9.414,8.042-17.626,14.223-24.636c6.185-7.008,13.778-12.503,22.781-16.492
		c9-3.984,19.136-5.978,30.406-5.978c7.558,0,14.877,1.133,21.955,3.399c7.076,2.268,13.467,5.602,19.17,10
		c5.701,4.4,10.411,9.827,14.123,16.285c3.711,6.461,5.978,13.884,6.806,22.265h-30.924c-1.925-8.247-5.637-14.431-11.134-18.555
		c-5.497-4.124-12.163-6.183-19.996-6.183c-7.285,0-13.468,1.411-18.555,4.225c-5.085,2.819-9.206,6.598-12.366,11.339
		c-3.166,4.741-5.465,10.137-6.907,16.182c-1.442,6.047-2.164,12.3-2.164,18.757c0,6.185,0.722,12.199,2.164,18.039
		c1.442,5.844,3.741,11.1,6.907,15.771c3.157,4.673,7.281,8.42,12.366,11.234c5.087,2.818,11.27,4.224,18.555,4.224
		c10.719,0,18.996-2.711,24.842-8.142c5.842-5.429,9.245-13.296,10.201-23.604h-32.569V59.252h61.846v79.573h-20.617l-3.297-16.7
		C334.473,129.546,328.083,134.739,321.072,137.692z"/>
	<path fill="#A7A9AC" d="M422.702-8.365v147.19h-32.365V-8.365H422.702z"/>
</g>
<g>
	
		<ellipse transform="matrix(0.4437 -0.8962 0.8962 0.4437 214.2458 371.7793)" fill="#6A73B6" cx="406.566" cy="13.329" rx="17.938" ry="64.063"/>
	<path fill="#545E8F" d="M472.604-25.454c-1.953-3.167-25.658-23.701-27.78-24.74c-2.129-1.036-7.564,1.957-7.92,2.224
		c-0.315,0.234-47.153,36.634-57.837,44.938c-1.04,0.359-1.785,0.912-2.16,1.679c-2.271,4.583,9.161,14.874,25.537,22.979
		c16.375,8.107,31.492,10.964,33.765,6.38c0.217-0.44,0.307-0.932,0.28-1.466c1.658-8.647,10.142-52.757,11.251-54.19
		c1.229-1.592,19.082,11.209,19.082,11.209s5.164,12.676,6.716,9.545C475.083-10.021,474.556-22.293,472.604-25.454z"/>
</g>
<g>
	<path fill="#A7A9AC" d="M-90.982,155.181l5.77,15.391l5.798-15.391h3.333v18.315h-2.308v-15.235h-0.051l-5.719,15.235h-2.077
		l-5.719-15.235h-0.051v15.235h-2.309v-18.315H-90.982L-90.982,155.181z"/>
	<path fill="#A7A9AC" d="M-63.463,173.496v-2.105h-0.05c-0.46,0.822-1.052,1.426-1.77,1.812c-0.718,0.383-1.564,0.574-2.539,0.574
		c-0.872,0-1.6-0.115-2.18-0.347c-0.583-0.228-1.053-0.559-1.41-0.986c-0.361-0.429-0.612-0.938-0.76-1.527
		c-0.144-0.59-0.217-1.246-0.217-1.962v-8.72h2.18v8.978c0,0.818,0.242,1.471,0.718,1.948c0.48,0.479,1.138,0.719,1.974,0.719
		c0.667,0,1.246-0.102,1.732-0.309c0.488-0.203,0.895-0.498,1.218-0.874c0.323-0.372,0.567-0.814,0.73-1.316
		c0.163-0.505,0.245-1.057,0.245-1.658v-7.487h2.179v13.263h-2.051V173.496z"/>
	<path fill="#A7A9AC" d="M-52.46,160.232v1.924h-2.642v8.234c0,0.257,0.022,0.461,0.065,0.614c0.041,0.152,0.124,0.273,0.245,0.36
		c0.12,0.084,0.286,0.138,0.5,0.165c0.213,0.026,0.491,0.041,0.833,0.041h1v1.923h-1.667c-0.564,0-1.046-0.043-1.448-0.119
		c-0.404-0.076-0.728-0.216-0.975-0.425c-0.247-0.204-0.432-0.494-0.551-0.869c-0.12-0.373-0.18-0.872-0.18-1.485v-8.441h-2.256
		v-1.922h2.256v-3.976h2.18v3.976H-52.46L-52.46,160.232z"/>
	<path fill="#A7A9AC" d="M-39.869,173.777c-0.563,0-1.014-0.157-1.347-0.476c-0.333-0.317-0.5-0.835-0.5-1.55
		c-0.601,0.715-1.297,1.232-2.09,1.55c-0.795,0.318-1.653,0.476-2.577,0.476c-0.6,0-1.164-0.065-1.692-0.191
		c-0.529-0.131-0.996-0.344-1.398-0.644c-0.402-0.295-0.717-0.683-0.946-1.153c-0.231-0.471-0.347-1.036-0.347-1.706
		c0-0.751,0.128-1.368,0.385-1.847c0.256-0.479,0.595-0.864,1.014-1.164c0.417-0.299,0.898-0.529,1.436-0.682
		c0.537-0.153,1.089-0.284,1.654-0.386c0.599-0.118,1.167-0.209,1.704-0.27c0.539-0.057,1.014-0.144,1.423-0.255
		c0.412-0.112,0.736-0.274,0.976-0.488c0.241-0.214,0.358-0.524,0.358-0.935c0-0.482-0.089-0.864-0.269-1.158
		c-0.178-0.289-0.41-0.514-0.692-0.667c-0.282-0.152-0.6-0.257-0.948-0.304c-0.352-0.053-0.696-0.08-1.04-0.08
		c-0.923,0-1.694,0.175-2.307,0.528c-0.615,0.349-0.951,1.013-1,1.987h-2.181c0.036-0.821,0.205-1.513,0.515-2.08
		c0.307-0.562,0.719-1.02,1.229-1.37c0.513-0.35,1.102-0.602,1.768-0.758c0.666-0.153,1.368-0.228,2.104-0.228
		c0.6,0,1.193,0.04,1.782,0.123c0.591,0.089,1.125,0.265,1.604,0.529c0.479,0.264,0.862,0.639,1.156,1.113
		c0.29,0.483,0.435,1.104,0.435,1.873v6.823c0,0.513,0.027,0.888,0.088,1.127c0.06,0.237,0.261,0.36,0.602,0.36
		c0.188,0,0.41-0.043,0.667-0.126v1.689C-38.679,173.666-39.2,173.777-39.869,173.777z M-42.919,167.094
		c-0.445,0.097-0.911,0.174-1.397,0.23c-0.489,0.06-0.981,0.129-1.477,0.205c-0.496,0.077-0.941,0.201-1.334,0.369
		c-0.394,0.173-0.715,0.417-0.961,0.731c-0.248,0.318-0.371,0.751-0.371,1.295c0,0.36,0.073,0.666,0.217,0.91
		c0.146,0.25,0.333,0.451,0.564,0.605c0.23,0.154,0.504,0.268,0.82,0.336c0.316,0.066,0.636,0.102,0.961,0.102
		c0.719,0,1.335-0.098,1.847-0.296c0.513-0.196,0.933-0.445,1.257-0.742c0.325-0.298,0.564-0.624,0.719-0.978
		c0.154-0.35,0.23-0.679,0.23-0.982v-2.235C-42.116,166.854-42.475,167.003-42.919,167.094z"/>
	<path fill="#A7A9AC" d="M-30.607,160.232v1.924h-2.643v8.234c0,0.257,0.022,0.461,0.065,0.614c0.041,0.152,0.124,0.273,0.245,0.36
		c0.12,0.084,0.286,0.138,0.498,0.165c0.216,0.026,0.492,0.041,0.835,0.041h1v1.923h-1.668c-0.565,0-1.046-0.043-1.448-0.119
		c-0.404-0.076-0.728-0.216-0.977-0.425c-0.247-0.204-0.432-0.494-0.551-0.869c-0.122-0.373-0.18-0.872-0.18-1.485v-8.441h-2.257
		v-1.922h2.257v-3.976h2.178v3.976H-30.607L-30.607,160.232z"/>
	<path fill="#A7A9AC" d="M-28.07,157.851v-2.668h2.178v2.668H-28.07z M-25.892,160.232v13.264h-2.178v-13.264H-25.892z"/>
	<path fill="#A7A9AC" d="M-22.811,164.146c0.274-0.846,0.685-1.582,1.231-2.205c0.546-0.622,1.223-1.115,2.025-1.475
		c0.803-0.359,1.727-0.536,2.77-0.536c1.061,0,1.989,0.178,2.783,0.536c0.794,0.359,1.466,0.853,2.014,1.475
		c0.547,0.623,0.957,1.359,1.232,2.205c0.272,0.849,0.407,1.759,0.407,2.735c0,0.976-0.137,1.88-0.407,2.716
		c-0.275,0.842-0.687,1.573-1.232,2.194c-0.547,0.622-1.22,1.108-2.014,1.464c-0.794,0.349-1.722,0.526-2.783,0.526
		c-1.042,0-1.966-0.178-2.77-0.526c-0.804-0.355-1.479-0.842-2.025-1.464c-0.547-0.621-0.957-1.353-1.231-2.194
		c-0.275-0.836-0.41-1.742-0.41-2.716C-23.22,165.906-23.085,164.992-22.811,164.146z M-20.595,169.018
		c0.213,0.626,0.51,1.148,0.887,1.565c0.375,0.422,0.815,0.738,1.321,0.961c0.504,0.225,1.038,0.336,1.602,0.336
		c0.565,0,1.099-0.111,1.603-0.336c0.504-0.223,0.945-0.539,1.321-0.961c0.375-0.417,0.67-0.938,0.885-1.565
		c0.213-0.621,0.321-1.337,0.321-2.14c0-0.805-0.105-1.518-0.321-2.143c-0.214-0.624-0.51-1.148-0.885-1.578
		c-0.376-0.428-0.817-0.752-1.321-0.977c-0.504-0.223-1.04-0.332-1.603-0.332c-0.564,0-1.1,0.109-1.602,0.332
		c-0.505,0.225-0.945,0.549-1.321,0.977c-0.376,0.43-0.674,0.952-0.887,1.578c-0.212,0.625-0.32,1.338-0.32,2.143
		C-20.913,167.681-20.807,168.396-20.595,169.018z"/>
	<path fill="#A7A9AC" d="M-5.729,160.232v2.105h0.05c0.904-1.607,2.342-2.409,4.308-2.409c0.871,0,1.6,0.12,2.181,0.357
		c0.58,0.241,1.051,0.573,1.41,0.999c0.358,0.429,0.612,0.94,0.756,1.526c0.146,0.592,0.221,1.246,0.221,1.963v8.722H1.014v-8.979
		c0-0.819-0.24-1.471-0.718-1.949c-0.479-0.479-1.137-0.717-1.975-0.717c-0.667,0-1.245,0.104-1.731,0.307
		c-0.486,0.204-0.895,0.498-1.218,0.871c-0.325,0.378-0.568,0.818-0.731,1.323c-0.163,0.504-0.243,1.056-0.243,1.652v7.491h-2.181
		v-13.264H-5.729z"/>
	<path fill="#A7A9AC" d="M21.637,155.181l7.156,18.315h-2.694l-2-5.513h-7.746l-2.052,5.513h-2.49l7.131-18.315H21.637
		L21.637,155.181z M23.33,165.93l-3.052-8.538h-0.052l-3.104,8.538H23.33z"/>
	<path fill="#A7A9AC" d="M32.282,160.232v2.105h0.05c0.906-1.607,2.342-2.409,4.31-2.409c0.871,0,1.596,0.12,2.181,0.357
		c0.58,0.241,1.048,0.573,1.409,0.999c0.359,0.429,0.612,0.94,0.757,1.526c0.145,0.592,0.217,1.246,0.217,1.963v8.722h-2.18v-8.979
		c0-0.819-0.239-1.471-0.718-1.949c-0.479-0.479-1.138-0.717-1.975-0.717c-0.667,0-1.245,0.104-1.731,0.307
		c-0.486,0.204-0.895,0.498-1.217,0.871c-0.326,0.378-0.571,0.818-0.731,1.323c-0.163,0.504-0.245,1.056-0.245,1.652v7.491h-2.181
		v-13.264H32.282z"/>
	<path fill="#A7A9AC" d="M46.543,160.232v2.105h0.051c0.904-1.607,2.341-2.409,4.308-2.409c0.873,0,1.601,0.12,2.181,0.357
		c0.58,0.241,1.05,0.573,1.411,0.999c0.359,0.429,0.612,0.94,0.756,1.526c0.146,0.592,0.219,1.246,0.219,1.963v8.722h-2.18v-8.979
		c0-0.819-0.239-1.471-0.718-1.949c-0.478-0.479-1.138-0.717-1.975-0.717c-0.666,0-1.243,0.104-1.731,0.307
		c-0.488,0.204-0.896,0.498-1.219,0.871c-0.326,0.378-0.569,0.818-0.732,1.323c-0.163,0.504-0.245,1.056-0.245,1.652v7.491H44.49
		v-13.264H46.543z"/>
	<path fill="#A7A9AC" d="M58.442,164.146c0.273-0.846,0.684-1.582,1.229-2.205c0.546-0.622,1.223-1.115,2.028-1.475
		c0.803-0.359,1.725-0.536,2.769-0.536c1.06,0,1.988,0.178,2.782,0.536c0.795,0.359,1.466,0.853,2.013,1.475
		c0.547,0.623,0.956,1.359,1.231,2.205c0.275,0.849,0.41,1.759,0.41,2.735c0,0.976-0.137,1.88-0.41,2.716
		c-0.275,0.842-0.684,1.573-1.231,2.194c-0.547,0.622-1.22,1.108-2.013,1.464c-0.794,0.349-1.724,0.526-2.782,0.526
		c-1.043,0-1.966-0.178-2.769-0.526c-0.805-0.355-1.481-0.842-2.028-1.464c-0.547-0.621-0.957-1.353-1.229-2.194
		c-0.274-0.836-0.412-1.742-0.412-2.716C58.031,165.906,58.168,164.992,58.442,164.146z M60.66,169.018
		c0.214,0.626,0.508,1.148,0.884,1.565c0.376,0.422,0.817,0.738,1.321,0.961c0.504,0.225,1.04,0.336,1.603,0.336
		c0.563,0,1.098-0.111,1.604-0.336c0.503-0.223,0.943-0.539,1.319-0.961c0.376-0.417,0.67-0.938,0.887-1.565
		c0.213-0.621,0.32-1.337,0.32-2.14c0-0.805-0.107-1.518-0.32-2.143c-0.214-0.624-0.511-1.148-0.887-1.578
		c-0.376-0.428-0.817-0.752-1.319-0.977c-0.506-0.223-1.041-0.332-1.604-0.332c-0.562,0-1.098,0.109-1.603,0.332
		c-0.505,0.225-0.945,0.549-1.321,0.977c-0.376,0.43-0.67,0.952-0.884,1.578c-0.214,0.625-0.322,1.338-0.322,2.143
		C60.34,167.681,60.446,168.396,60.66,169.018z"/>
	<path fill="#A7A9AC" d="M79.14,160.232v1.924h-2.643v8.234c0,0.257,0.022,0.461,0.065,0.614c0.041,0.152,0.121,0.273,0.245,0.36
		c0.118,0.084,0.286,0.138,0.5,0.165c0.212,0.026,0.49,0.041,0.833,0.041h1v1.923h-1.667c-0.564,0-1.049-0.043-1.451-0.119
		c-0.401-0.076-0.726-0.216-0.976-0.425c-0.247-0.204-0.431-0.494-0.551-0.869c-0.12-0.373-0.178-0.872-0.178-1.485v-8.441h-2.257
		v-1.922h2.257v-3.976h2.179v3.976H79.14L79.14,160.232z"/>
	<path fill="#A7A9AC" d="M91.733,173.777c-0.565,0-1.014-0.157-1.347-0.476c-0.333-0.317-0.5-0.835-0.5-1.55
		c-0.598,0.715-1.296,1.232-2.09,1.55c-0.796,0.318-1.655,0.476-2.579,0.476c-0.598,0-1.163-0.065-1.692-0.191
		c-0.531-0.131-0.995-0.344-1.397-0.644c-0.404-0.295-0.718-0.683-0.949-1.153c-0.229-0.471-0.348-1.036-0.348-1.706
		c0-0.751,0.127-1.368,0.385-1.847c0.257-0.479,0.594-0.864,1.013-1.164c0.418-0.299,0.896-0.529,1.435-0.682
		c0.538-0.153,1.09-0.284,1.655-0.386c0.599-0.118,1.167-0.209,1.706-0.27c0.539-0.057,1.014-0.144,1.424-0.255
		c0.409-0.112,0.735-0.274,0.976-0.488c0.239-0.214,0.356-0.524,0.356-0.935c0-0.482-0.088-0.864-0.268-1.158
		c-0.181-0.289-0.41-0.514-0.692-0.667c-0.283-0.152-0.6-0.257-0.952-0.304c-0.35-0.053-0.696-0.08-1.037-0.08
		c-0.924,0-1.694,0.175-2.31,0.528c-0.616,0.349-0.949,1.013-1,1.987h-2.18c0.035-0.821,0.206-1.513,0.513-2.08
		c0.309-0.564,0.718-1.02,1.231-1.37c0.512-0.35,1.102-0.602,1.769-0.758c0.667-0.153,1.367-0.228,2.104-0.228
		c0.598,0,1.191,0.04,1.782,0.123c0.59,0.089,1.124,0.265,1.602,0.529c0.479,0.264,0.863,0.639,1.155,1.113
		c0.291,0.483,0.436,1.104,0.436,1.873v6.823c0,0.513,0.03,0.888,0.088,1.127c0.059,0.237,0.26,0.36,0.604,0.36
		c0.188,0,0.41-0.043,0.667-0.126v1.689C92.921,173.666,92.4,173.777,91.733,173.777z M88.681,167.094
		c-0.446,0.097-0.912,0.174-1.396,0.23c-0.488,0.06-0.98,0.129-1.476,0.205c-0.496,0.077-0.939,0.201-1.333,0.369
		c-0.394,0.173-0.713,0.417-0.962,0.731c-0.248,0.318-0.371,0.751-0.371,1.295c0,0.36,0.072,0.666,0.217,0.91
		c0.146,0.25,0.332,0.451,0.565,0.605c0.231,0.154,0.504,0.268,0.82,0.336c0.316,0.066,0.637,0.102,0.96,0.102
		c0.718,0,1.335-0.098,1.848-0.296c0.513-0.196,0.931-0.445,1.256-0.742c0.326-0.298,0.565-0.624,0.72-0.978
		c0.153-0.35,0.232-0.679,0.232-0.982v-2.235C89.484,166.854,89.125,167.003,88.681,167.094z"/>
	<path fill="#A7A9AC" d="M100.992,160.232v1.924h-2.643v8.234c0,0.257,0.021,0.461,0.064,0.614c0.042,0.152,0.124,0.273,0.245,0.36
		c0.119,0.084,0.287,0.138,0.5,0.165c0.211,0.026,0.49,0.041,0.833,0.041h1v1.923h-1.667c-0.565,0-1.049-0.043-1.449-0.119
		c-0.401-0.076-0.727-0.216-0.977-0.425c-0.247-0.204-0.431-0.494-0.551-0.869c-0.119-0.373-0.178-0.872-0.178-1.485v-8.441h-2.259
		v-1.922h2.259v-3.976h2.178v3.976H100.992L100.992,160.232z"/>
	<path fill="#A7A9AC" d="M103.533,157.851v-2.668h2.178v2.668H103.533z M105.709,160.232v13.264h-2.178v-13.264H105.709z"/>
	<path fill="#A7A9AC" d="M108.79,164.146c0.272-0.846,0.683-1.582,1.229-2.205c0.546-0.622,1.224-1.115,2.027-1.475
		c0.804-0.359,1.728-0.536,2.769-0.536c1.06,0,1.988,0.178,2.782,0.536c0.796,0.359,1.467,0.853,2.013,1.475
		c0.548,0.623,0.957,1.359,1.232,2.205c0.274,0.849,0.41,1.759,0.41,2.735c0,0.976-0.138,1.88-0.41,2.716
		c-0.275,0.842-0.685,1.573-1.232,2.194c-0.546,0.622-1.219,1.108-2.013,1.464c-0.794,0.349-1.722,0.526-2.782,0.526
		c-1.041,0-1.965-0.178-2.769-0.526c-0.803-0.355-1.479-0.842-2.027-1.464c-0.548-0.621-0.957-1.353-1.229-2.194
		c-0.275-0.836-0.411-1.742-0.411-2.716C108.379,165.906,108.515,164.992,108.79,164.146z M111.007,169.018
		c0.213,0.626,0.509,1.148,0.886,1.565c0.375,0.422,0.815,0.738,1.321,0.961c0.502,0.225,1.037,0.336,1.6,0.336
		c0.566,0,1.1-0.111,1.603-0.336c0.505-0.223,0.943-0.539,1.321-0.961c0.376-0.417,0.671-0.938,0.885-1.565
		c0.213-0.621,0.32-1.337,0.32-2.14c0-0.805-0.106-1.518-0.32-2.143c-0.214-0.624-0.509-1.148-0.885-1.578
		c-0.376-0.428-0.816-0.752-1.321-0.977c-0.505-0.223-1.039-0.332-1.603-0.332c-0.563,0-1.098,0.109-1.6,0.332
		c-0.506,0.225-0.947,0.549-1.321,0.977c-0.377,0.43-0.671,0.952-0.886,1.578c-0.214,0.625-0.32,1.338-0.32,2.143
		C110.687,167.681,110.793,168.396,111.007,169.018z"/>
	<path fill="#A7A9AC" d="M125.871,160.232v2.105h0.051c0.905-1.607,2.342-2.409,4.309-2.409c0.871,0,1.599,0.12,2.179,0.357
		c0.581,0.241,1.051,0.573,1.411,0.999c0.359,0.429,0.61,0.94,0.755,1.526c0.145,0.592,0.219,1.246,0.219,1.963v8.722h-2.182v-8.979
		c0-0.819-0.239-1.471-0.716-1.949c-0.481-0.479-1.139-0.717-1.976-0.717c-0.666,0-1.245,0.104-1.731,0.307
		c-0.486,0.204-0.892,0.498-1.217,0.871c-0.326,0.378-0.571,0.818-0.732,1.323c-0.163,0.504-0.245,1.056-0.245,1.652v7.491h-2.179
		v-13.264H125.871z"/>
	<path fill="#A7A9AC" d="M153.07,173.138c-0.95,0.425-1.928,0.64-2.937,0.64c-1.232,0-2.224-0.189-2.977-0.563
		c-0.753-0.376-1.335-0.833-1.745-1.359c-0.408-0.533-0.679-1.08-0.806-1.642c-0.127-0.565-0.191-1.035-0.191-1.414
		c0-0.716,0.115-1.348,0.344-1.897c0.23-0.551,0.539-1.037,0.924-1.475c0.384-0.437,0.836-0.829,1.358-1.182
		c0.522-0.349,1.075-0.678,1.654-0.987c-0.256-0.361-0.505-0.699-0.744-1.025c-0.242-0.324-0.457-0.653-0.653-0.987
		s-0.352-0.684-0.463-1.051c-0.112-0.368-0.166-0.781-0.166-1.243c0-0.498,0.089-0.972,0.27-1.427
		c0.179-0.45,0.445-0.854,0.795-1.202c0.35-0.352,0.782-0.63,1.296-0.835c0.513-0.205,1.104-0.311,1.77-0.311
		c0.565,0,1.115,0.081,1.654,0.234c0.538,0.152,1.014,0.387,1.423,0.703c0.41,0.317,0.739,0.71,0.989,1.181
		c0.247,0.471,0.368,1.013,0.368,1.628c0,0.547-0.092,1.057-0.281,1.528c-0.189,0.467-0.445,0.901-0.771,1.294
		c-0.324,0.393-0.692,0.746-1.102,1.062c-0.41,0.318-0.838,0.603-1.281,0.859l3.31,4.029c0.341-0.958,0.538-1.907,0.589-2.849h2.078
		c-0.05,0.548-0.106,1.014-0.167,1.398c-0.06,0.385-0.138,0.739-0.23,1.065c-0.094,0.323-0.209,0.645-0.348,0.96
		c-0.137,0.317-0.298,0.681-0.485,1.091l3.564,4.129h-2.849l-1.95-2.283C154.768,172.068,154.019,172.708,153.07,173.138z
		 M148.684,165.391c-0.384,0.257-0.721,0.548-1.014,0.869c-0.292,0.326-0.521,0.689-0.694,1.091
		c-0.171,0.403-0.254,0.877-0.254,1.425c0,0.461,0.099,0.886,0.293,1.269c0.197,0.387,0.455,0.712,0.78,0.976
		c0.326,0.268,0.698,0.476,1.116,0.627c0.42,0.153,0.852,0.231,1.295,0.231c0.84,0,1.586-0.2,2.246-0.591
		c0.658-0.394,1.21-0.926,1.655-1.592l-4.208-5.052C149.476,164.885,149.07,165.134,148.684,165.391z M151.441,161.672
		c0.29-0.207,0.556-0.437,0.795-0.693s0.436-0.543,0.589-0.858c0.154-0.317,0.23-0.673,0.23-1.065c0-0.53-0.188-0.985-0.564-1.373
		c-0.376-0.383-0.89-0.574-1.539-0.574c-0.512,0-0.993,0.156-1.437,0.473c-0.445,0.316-0.667,0.811-0.667,1.475
		c0,0.273,0.056,0.548,0.167,0.822c0.112,0.271,0.252,0.543,0.422,0.805c0.171,0.267,0.358,0.526,0.564,0.783
		c0.206,0.255,0.411,0.514,0.617,0.77C150.878,162.064,151.151,161.876,151.441,161.672z"/>
	<path fill="#A7A9AC" d="M179.884,173.277c-1.06,0.419-2.127,0.628-3.205,0.628c-1.367,0-2.591-0.252-3.667-0.756
		c-1.078-0.507-1.993-1.186-2.743-2.041c-0.753-0.855-1.325-1.838-1.721-2.95c-0.39-1.11-0.589-2.263-0.589-3.462
		c0-1.335,0.185-2.604,0.554-3.81c0.369-1.201,0.913-2.259,1.64-3.164c0.727-0.907,1.634-1.63,2.719-2.166
		c1.085-0.54,2.355-0.809,3.808-0.809c0.992,0,1.93,0.115,2.81,0.345c0.88,0.23,1.668,0.597,2.359,1.092
		c0.693,0.496,1.276,1.124,1.747,1.886c0.468,0.76,0.788,1.676,0.959,2.755h-2.437c-0.119-0.698-0.342-1.304-0.667-1.808
		c-0.325-0.505-0.728-0.919-1.203-1.243c-0.481-0.326-1.021-0.571-1.632-0.732c-0.605-0.164-1.252-0.245-1.935-0.245
		c-1.109,0-2.066,0.222-2.858,0.667c-0.795,0.45-1.444,1.033-1.951,1.758c-0.504,0.728-0.877,1.557-1.113,2.489
		c-0.241,0.932-0.362,1.884-0.362,2.86c0,0.957,0.137,1.876,0.411,2.758c0.273,0.878,0.674,1.657,1.204,2.332
		s1.185,1.214,1.96,1.615c0.777,0.401,1.682,0.604,2.706,0.604c0.959,0,1.805-0.154,2.538-0.462c0.735-0.31,1.354-0.73,1.859-1.27
		c0.506-0.534,0.886-1.174,1.143-1.897c0.258-0.726,0.369-1.509,0.332-2.345h-5.846v-2.053h8.029v9.645h-1.54l-0.644-2.285
		C181.835,172.169,180.944,172.858,179.884,173.277z"/>
	<path fill="#A7A9AC" d="M197.353,172.647c-0.99,0.755-2.242,1.13-3.746,1.13c-1.061,0-1.979-0.173-2.756-0.516
		c-0.776-0.341-1.435-0.819-1.961-1.434c-0.531-0.616-0.928-1.352-1.193-2.205c-0.265-0.856-0.414-1.785-0.45-2.798
		c0-1.008,0.153-1.933,0.462-2.768c0.305-0.84,0.738-1.568,1.294-2.182c0.555-0.616,1.214-1.096,1.976-1.438
		c0.761-0.341,1.594-0.51,2.501-0.51c1.18,0,2.158,0.242,2.938,0.729c0.775,0.486,1.398,1.106,1.869,1.862
		c0.471,0.75,0.796,1.571,0.977,2.461c0.179,0.889,0.252,1.735,0.218,2.535h-9.926c-0.018,0.584,0.051,1.138,0.205,1.659
		c0.151,0.521,0.401,0.981,0.744,1.383c0.341,0.4,0.777,0.723,1.308,0.96c0.531,0.242,1.152,0.362,1.871,0.362
		c0.925,0,1.681-0.213,2.271-0.641s0.981-1.077,1.168-1.951h2.156C198.986,170.774,198.344,171.897,197.353,172.647z
		 M196.826,164.135c-0.197-0.464-0.463-0.86-0.796-1.191c-0.333-0.333-0.728-0.601-1.18-0.795c-0.452-0.197-0.953-0.297-1.499-0.297
		c-0.565,0-1.074,0.1-1.527,0.297c-0.451,0.197-0.842,0.466-1.168,0.809c-0.324,0.341-0.581,0.74-0.77,1.188
		c-0.188,0.455-0.296,0.938-0.332,1.45h7.616C197.137,165.082,197.023,164.594,196.826,164.135z"/>
	<path fill="#A7A9AC" d="M203.788,160.232v2.105h0.054c0.904-1.607,2.34-2.409,4.306-2.409c0.872,0,1.6,0.12,2.182,0.357
		c0.582,0.241,1.049,0.573,1.409,0.999c0.36,0.429,0.612,0.94,0.756,1.526c0.148,0.592,0.219,1.246,0.219,1.963v8.722h-2.179v-8.979
		c0-0.819-0.241-1.471-0.718-1.949c-0.479-0.479-1.138-0.717-1.974-0.717c-0.669,0-1.245,0.104-1.733,0.307
		c-0.486,0.204-0.895,0.498-1.218,0.871c-0.326,0.378-0.569,0.818-0.731,1.323c-0.163,0.504-0.245,1.056-0.245,1.652v7.491h-2.18
		v-13.264H203.788z"/>
	<path fill="#A7A9AC" d="M215.69,164.146c0.272-0.846,0.686-1.582,1.229-2.205c0.548-0.622,1.221-1.115,2.025-1.475
		c0.804-0.359,1.728-0.536,2.771-0.536c1.059,0,1.989,0.178,2.781,0.536c0.797,0.359,1.469,0.853,2.015,1.475
		c0.548,0.623,0.953,1.359,1.229,2.205c0.274,0.849,0.411,1.759,0.411,2.735c0,0.976-0.137,1.88-0.411,2.716
		c-0.276,0.842-0.682,1.573-1.229,2.194c-0.546,0.622-1.218,1.108-2.015,1.464c-0.792,0.349-1.723,0.526-2.781,0.526
		c-1.044,0-1.968-0.178-2.771-0.526c-0.805-0.355-1.478-0.842-2.025-1.464c-0.544-0.621-0.957-1.353-1.229-2.194
		c-0.272-0.836-0.413-1.742-0.413-2.716C215.277,165.906,215.418,164.992,215.69,164.146z M217.907,169.018
		c0.213,0.626,0.51,1.148,0.89,1.565c0.371,0.422,0.815,0.738,1.32,0.961c0.502,0.225,1.036,0.336,1.6,0.336
		c0.564,0,1.101-0.111,1.603-0.336c0.504-0.223,0.944-0.539,1.322-0.961c0.373-0.417,0.67-0.938,0.883-1.565
		c0.215-0.621,0.318-1.337,0.318-2.14c0-0.805-0.104-1.518-0.318-2.143c-0.213-0.624-0.51-1.148-0.883-1.578
		c-0.377-0.428-0.818-0.752-1.322-0.977c-0.507-0.223-1.038-0.332-1.603-0.332c-0.563,0-1.102,0.109-1.6,0.332
		c-0.505,0.225-0.947,0.549-1.32,0.977c-0.38,0.43-0.677,0.952-0.89,1.578c-0.212,0.625-0.32,1.338-0.32,2.143
		C217.586,167.681,217.695,168.396,217.907,169.018z"/>
	<path fill="#A7A9AC" d="M232.774,160.232v1.948h0.047c0.992-1.504,2.419-2.252,4.287-2.252c0.819,0,1.562,0.169,2.233,0.51
		c0.664,0.346,1.133,0.927,1.409,1.746c0.443-0.72,1.026-1.273,1.758-1.669c0.728-0.391,1.523-0.587,2.396-0.587
		c0.67,0,1.271,0.07,1.81,0.215c0.538,0.144,1.002,0.37,1.385,0.681c0.387,0.309,0.686,0.706,0.9,1.192
		c0.211,0.486,0.319,1.072,0.319,1.756v9.722h-2.18v-8.697c0-0.41-0.035-0.793-0.104-1.157c-0.065-0.355-0.196-0.669-0.383-0.935
		c-0.187-0.264-0.448-0.474-0.781-0.627c-0.334-0.153-0.767-0.229-1.295-0.229c-1.079,0-1.922,0.306-2.538,0.922
		c-0.617,0.615-0.927,1.437-0.927,2.465v8.259h-2.176v-8.697c0-0.429-0.042-0.819-0.118-1.179c-0.077-0.36-0.212-0.674-0.398-0.938
		c-0.189-0.265-0.44-0.472-0.755-0.615c-0.318-0.144-0.723-0.216-1.218-0.216c-0.635,0-1.178,0.126-1.628,0.383
		c-0.455,0.257-0.822,0.565-1.104,0.922c-0.285,0.362-0.487,0.731-0.613,1.117c-0.128,0.385-0.195,0.706-0.195,0.963v8.258h-2.177
		v-13.263h2.046V160.232z"/>
	<path fill="#A7A9AC" d="M261.987,172.647c-0.992,0.755-2.242,1.13-3.745,1.13c-1.059,0-1.979-0.173-2.756-0.516
		c-0.778-0.341-1.432-0.819-1.961-1.434c-0.534-0.616-0.93-1.352-1.189-2.205c-0.27-0.856-0.418-1.785-0.448-2.798
		c0-1.008,0.151-1.933,0.456-2.768c0.309-0.84,0.742-1.568,1.297-2.182c0.556-0.616,1.21-1.096,1.977-1.438
		c0.762-0.341,1.593-0.51,2.5-0.51c1.178,0,2.156,0.242,2.934,0.729c0.779,0.486,1.401,1.106,1.873,1.862
		c0.471,0.75,0.793,1.571,0.977,2.461c0.18,0.889,0.253,1.735,0.214,2.535h-9.922c-0.02,0.584,0.046,1.138,0.202,1.659
		c0.153,0.521,0.399,0.981,0.742,1.383c0.343,0.4,0.774,0.723,1.308,0.96c0.532,0.242,1.157,0.362,1.874,0.362
		c0.925,0,1.68-0.213,2.27-0.641c0.592-0.428,0.98-1.077,1.166-1.951h2.157C263.619,170.774,262.978,171.897,261.987,172.647z
		 M261.46,164.135c-0.196-0.464-0.462-0.86-0.795-1.191c-0.335-0.333-0.728-0.601-1.178-0.795c-0.456-0.197-0.957-0.297-1.504-0.297
		c-0.564,0-1.073,0.1-1.525,0.297s-0.844,0.466-1.168,0.809c-0.325,0.341-0.582,0.74-0.773,1.188
		c-0.184,0.455-0.297,0.938-0.329,1.45h7.617C261.771,165.082,261.658,164.594,261.46,164.135z"/>
	<path fill="#A7A9AC" d="M276.399,155.181v18.315h-2.435v-18.315H276.399L276.399,155.181z"/>
	<path fill="#A7A9AC" d="M282.198,160.232v2.105h0.047c0.908-1.607,2.346-2.409,4.31-2.409c0.875,0,1.598,0.12,2.18,0.357
		c0.582,0.241,1.053,0.573,1.413,0.999c0.36,0.429,0.609,0.94,0.754,1.526c0.146,0.592,0.219,1.246,0.219,1.963v8.722h-2.182v-8.979
		c0-0.819-0.236-1.471-0.716-1.949c-0.478-0.479-1.137-0.717-1.976-0.717c-0.669,0-1.247,0.104-1.733,0.307
		c-0.483,0.204-0.892,0.498-1.217,0.871c-0.324,0.378-0.567,0.818-0.728,1.323c-0.164,0.504-0.247,1.056-0.247,1.652v7.491h-2.178
		v-13.264H282.198z"/>
	<path fill="#A7A9AC" d="M300.071,160.232v1.924h-2.641v8.234c0,0.257,0.022,0.461,0.062,0.614c0.044,0.152,0.126,0.273,0.242,0.36
		c0.122,0.084,0.288,0.138,0.501,0.165c0.215,0.026,0.494,0.041,0.837,0.041h0.999v1.923h-1.667c-0.564,0-1.048-0.043-1.448-0.119
		c-0.402-0.076-0.728-0.216-0.977-0.425c-0.248-0.204-0.433-0.494-0.548-0.869c-0.121-0.373-0.182-0.872-0.182-1.485v-8.441h-2.257
		v-1.922h2.257v-3.976h2.181v3.976H300.071L300.071,160.232z"/>
	<path fill="#A7A9AC" d="M311.868,172.647c-0.988,0.755-2.238,1.13-3.745,1.13c-1.057,0-1.977-0.173-2.752-0.516
		c-0.778-0.341-1.434-0.819-1.963-1.434c-0.531-0.616-0.93-1.352-1.189-2.205c-0.269-0.856-0.418-1.785-0.451-2.798
		c0-1.008,0.155-1.933,0.462-2.768c0.306-0.84,0.739-1.568,1.294-2.182c0.554-0.616,1.215-1.096,1.977-1.438
		c0.763-0.341,1.593-0.51,2.501-0.51c1.175,0,2.159,0.242,2.938,0.729c0.777,0.486,1.4,1.106,1.869,1.862
		c0.471,0.75,0.794,1.571,0.975,2.461c0.181,0.889,0.252,1.735,0.22,2.535h-9.927c-0.018,0.584,0.052,1.138,0.203,1.659
		c0.152,0.521,0.402,0.981,0.742,1.383c0.348,0.4,0.778,0.723,1.312,0.96c0.53,0.242,1.152,0.362,1.87,0.362
		c0.926,0,1.682-0.213,2.271-0.641c0.591-0.428,0.978-1.077,1.165-1.951h2.157C313.502,170.774,312.864,171.897,311.868,172.647z
		 M311.345,164.135c-0.197-0.464-0.461-0.86-0.794-1.191c-0.338-0.333-0.729-0.601-1.182-0.795c-0.45-0.197-0.952-0.297-1.5-0.297
		c-0.566,0-1.076,0.1-1.526,0.297c-0.454,0.197-0.844,0.466-1.17,0.809c-0.325,0.341-0.578,0.74-0.771,1.188
		c-0.186,0.455-0.297,0.938-0.331,1.45h7.619C311.657,165.082,311.538,164.594,311.345,164.135z"/>
	<path fill="#A7A9AC" d="M318.233,160.232v2.797h0.05c0.532-1.078,1.179-1.87,1.949-2.383c0.769-0.514,1.746-0.756,2.921-0.718
		v2.306c-0.869,0-1.613,0.119-2.229,0.36c-0.616,0.241-1.112,0.59-1.489,1.049c-0.376,0.464-0.646,1.022-0.819,1.682
		c-0.174,0.659-0.26,1.417-0.26,2.271v5.899h-2.181v-13.264H318.233z"/>
	<path fill="#A7A9AC" d="M327.055,160.232v1.795h0.048c0.362-0.734,0.925-1.267,1.695-1.6c0.768-0.333,1.616-0.499,2.537-0.499
		c1.023,0,1.92,0.187,2.679,0.561c0.764,0.379,1.398,0.888,1.898,1.527c0.504,0.642,0.885,1.382,1.144,2.217
		c0.257,0.84,0.385,1.731,0.385,2.668c0,0.94-0.125,1.832-0.371,2.668c-0.247,0.835-0.621,1.567-1.126,2.19
		c-0.509,0.624-1.141,1.117-1.899,1.474c-0.762,0.361-1.646,0.539-2.658,0.539c-0.321,0-0.688-0.033-1.088-0.103
		c-0.401-0.066-0.8-0.179-1.194-0.333c-0.391-0.153-0.766-0.364-1.114-0.629c-0.349-0.264-0.644-0.593-0.885-0.987h-0.05v6.824
		h-2.179v-18.316h2.179V160.232z M334.887,164.94c-0.161-0.588-0.406-1.116-0.739-1.578c-0.335-0.461-0.763-0.828-1.286-1.101
		c-0.52-0.275-1.13-0.413-1.833-0.413c-0.737,0-1.357,0.145-1.87,0.436c-0.516,0.291-0.933,0.674-1.261,1.143
		c-0.323,0.474-0.559,1.007-0.702,1.604c-0.147,0.598-0.217,1.205-0.217,1.823c0,0.646,0.076,1.275,0.229,1.884
		s0.395,1.142,0.73,1.602c0.33,0.461,0.767,0.835,1.294,1.115c0.53,0.285,1.173,0.424,1.92,0.424c0.757,0,1.383-0.146,1.888-0.438
		c0.506-0.288,0.913-0.678,1.218-1.155c0.311-0.478,0.531-1.024,0.669-1.641c0.136-0.613,0.204-1.25,0.204-1.898
		C335.136,166.134,335.052,165.532,334.887,164.94z"/>
	<path fill="#A7A9AC" d="M341.979,160.232v2.797h0.054c0.527-1.078,1.179-1.87,1.945-2.383c0.77-0.514,1.746-0.756,2.926-0.718
		v2.306c-0.873,0-1.616,0.119-2.235,0.36c-0.609,0.241-1.107,0.59-1.485,1.049c-0.377,0.464-0.651,1.022-0.82,1.682
		c-0.173,0.659-0.257,1.417-0.257,2.271v5.899h-2.18v-13.264H341.979z"/>
	<path fill="#A7A9AC" d="M357.469,172.647c-0.992,0.755-2.24,1.13-3.739,1.13c-1.062,0-1.981-0.173-2.759-0.516
		c-0.778-0.341-1.433-0.819-1.961-1.434c-0.531-0.616-0.929-1.352-1.191-2.205c-0.268-0.856-0.417-1.785-0.451-2.798
		c0-1.008,0.157-1.933,0.463-2.768c0.307-0.84,0.741-1.568,1.295-2.182c0.559-0.616,1.214-1.096,1.976-1.438
		c0.76-0.341,1.593-0.51,2.501-0.51c1.18,0,2.159,0.242,2.936,0.729s1.403,1.106,1.872,1.862c0.474,0.75,0.795,1.571,0.974,2.461
		c0.182,0.889,0.252,1.735,0.216,2.535h-9.922c-0.021,0.584,0.047,1.138,0.204,1.659c0.151,0.521,0.399,0.981,0.743,1.383
		c0.343,0.4,0.775,0.723,1.31,0.96c0.53,0.242,1.152,0.362,1.872,0.362c0.921,0,1.68-0.213,2.266-0.641
		c0.594-0.428,0.979-1.077,1.17-1.951h2.157C359.105,170.774,358.465,171.897,357.469,172.647z M356.945,164.135
		c-0.197-0.464-0.46-0.86-0.797-1.191c-0.329-0.333-0.724-0.601-1.175-0.795c-0.456-0.197-0.955-0.297-1.503-0.297
		c-0.563,0-1.075,0.1-1.526,0.297c-0.452,0.197-0.843,0.466-1.167,0.809c-0.323,0.341-0.584,0.74-0.771,1.188
		c-0.188,0.455-0.299,0.938-0.329,1.45h7.616C357.257,165.082,357.14,164.594,356.945,164.135z"/>
	<path fill="#A7A9AC" d="M367.528,160.232v1.924h-2.641v8.234c0,0.257,0.019,0.461,0.065,0.614c0.04,0.152,0.12,0.273,0.237,0.36
		c0.123,0.084,0.287,0.138,0.501,0.165c0.215,0.026,0.494,0.041,0.835,0.041h1.002v1.923h-1.668c-0.566,0-1.049-0.043-1.451-0.119
		c-0.397-0.076-0.724-0.216-0.973-0.425c-0.25-0.204-0.433-0.494-0.552-0.869c-0.119-0.373-0.181-0.872-0.181-1.485v-8.441h-2.255
		v-1.922h2.255v-3.976h2.184v3.976H367.528L367.528,160.232z"/>
	<path fill="#A7A9AC" d="M380.119,173.777c-0.562,0-1.013-0.157-1.346-0.476c-0.333-0.317-0.498-0.835-0.498-1.55
		c-0.602,0.715-1.298,1.232-2.091,1.55c-0.794,0.318-1.654,0.476-2.577,0.476c-0.599,0-1.162-0.065-1.692-0.191
		c-0.531-0.131-0.996-0.344-1.398-0.644c-0.401-0.295-0.719-0.683-0.947-1.153c-0.23-0.471-0.347-1.036-0.347-1.706
		c0-0.751,0.126-1.368,0.383-1.847c0.256-0.479,0.597-0.864,1.015-1.164c0.417-0.299,0.896-0.529,1.437-0.682
		c0.538-0.153,1.088-0.284,1.654-0.386c0.599-0.118,1.166-0.209,1.704-0.27c0.538-0.057,1.014-0.144,1.425-0.255
		c0.411-0.112,0.734-0.274,0.972-0.488c0.242-0.214,0.362-0.524,0.362-0.935c0-0.482-0.088-0.864-0.271-1.158
		c-0.179-0.289-0.407-0.514-0.691-0.667c-0.284-0.152-0.602-0.257-0.947-0.304c-0.352-0.053-0.696-0.08-1.04-0.08
		c-0.925,0-1.689,0.175-2.309,0.528c-0.615,0.349-0.949,1.013-1.001,1.987h-2.18c0.035-0.821,0.203-1.513,0.514-2.08
		c0.306-0.562,0.72-1.02,1.229-1.37c0.518-0.35,1.104-0.602,1.771-0.758c0.667-0.153,1.369-0.228,2.101-0.228
		c0.602,0,1.195,0.04,1.784,0.123c0.591,0.089,1.123,0.265,1.603,0.529c0.479,0.264,0.864,0.639,1.155,1.113
		c0.287,0.483,0.437,1.104,0.437,1.873v6.823c0,0.513,0.031,0.888,0.092,1.127c0.058,0.237,0.258,0.36,0.6,0.36
		c0.188,0,0.411-0.043,0.668-0.126v1.689C381.308,173.666,380.786,173.777,380.119,173.777z M377.065,167.094
		c-0.445,0.097-0.907,0.174-1.394,0.23c-0.49,0.06-0.981,0.129-1.475,0.205c-0.498,0.077-0.942,0.201-1.337,0.369
		c-0.395,0.173-0.712,0.417-0.961,0.731c-0.245,0.318-0.371,0.751-0.371,1.295c0,0.36,0.072,0.666,0.218,0.91
		c0.146,0.25,0.333,0.451,0.563,0.605c0.231,0.154,0.504,0.268,0.823,0.336c0.314,0.066,0.633,0.102,0.959,0.102
		c0.718,0,1.335-0.098,1.846-0.296c0.516-0.196,0.935-0.445,1.259-0.742c0.324-0.298,0.561-0.624,0.719-0.978
		c0.153-0.35,0.229-0.679,0.229-0.982v-2.235C377.874,166.854,377.511,167.003,377.065,167.094z"/>
	<path fill="#A7A9AC" d="M389.381,160.232v1.924h-2.645v8.234c0,0.257,0.021,0.461,0.064,0.614c0.041,0.152,0.124,0.273,0.244,0.36
		c0.115,0.084,0.286,0.138,0.497,0.165c0.218,0.026,0.494,0.041,0.835,0.041h1.004v1.923h-1.672c-0.563,0-1.045-0.043-1.449-0.119
		c-0.399-0.076-0.725-0.216-0.974-0.425c-0.249-0.204-0.434-0.494-0.551-0.869c-0.117-0.373-0.181-0.872-0.181-1.485v-8.441h-2.256
		v-1.922h2.256v-3.976h2.182v3.976H389.381L389.381,160.232z"/>
	<path fill="#A7A9AC" d="M391.916,157.851v-2.668h2.181v2.668H391.916z M394.096,160.232v13.264h-2.181v-13.264H394.096z"/>
	<path fill="#A7A9AC" d="M397.174,164.146c0.274-0.846,0.687-1.582,1.235-2.205c0.541-0.622,1.219-1.115,2.022-1.475
		c0.801-0.359,1.727-0.536,2.77-0.536c1.061,0,1.989,0.178,2.784,0.536c0.796,0.359,1.466,0.853,2.013,1.475
		c0.547,0.623,0.957,1.359,1.229,2.205c0.273,0.849,0.414,1.759,0.414,2.735c0,0.976-0.141,1.88-0.414,2.716
		c-0.272,0.842-0.683,1.573-1.229,2.194c-0.547,0.622-1.217,1.108-2.013,1.464c-0.795,0.349-1.724,0.526-2.784,0.526
		c-1.043,0-1.969-0.178-2.77-0.526c-0.804-0.355-1.481-0.842-2.022-1.464c-0.549-0.621-0.961-1.353-1.235-2.194
		c-0.272-0.836-0.41-1.742-0.41-2.716C396.764,165.906,396.902,164.992,397.174,164.146z M399.395,169.018
		c0.211,0.626,0.508,1.148,0.884,1.565c0.376,0.422,0.815,0.738,1.321,0.961c0.504,0.225,1.038,0.336,1.602,0.336
		c0.566,0,1.099-0.111,1.601-0.336c0.509-0.223,0.945-0.539,1.324-0.961c0.376-0.417,0.67-0.938,0.884-1.565
		c0.212-0.621,0.321-1.337,0.321-2.14c0-0.805-0.109-1.518-0.321-2.143c-0.214-0.624-0.508-1.148-0.884-1.578
		c-0.375-0.428-0.815-0.752-1.324-0.977c-0.504-0.223-1.034-0.332-1.601-0.332c-0.563,0-1.1,0.109-1.602,0.332
		c-0.503,0.225-0.945,0.549-1.321,0.977c-0.376,0.43-0.673,0.952-0.884,1.578c-0.211,0.625-0.32,1.338-0.32,2.143
		C399.074,167.681,399.18,168.396,399.395,169.018z"/>
	<path fill="#A7A9AC" d="M414.257,160.232v2.105h0.05c0.907-1.607,2.342-2.409,4.305-2.409c0.876,0,1.601,0.12,2.184,0.357
		c0.581,0.241,1.052,0.573,1.411,0.999c0.36,0.429,0.613,0.94,0.759,1.526c0.142,0.592,0.217,1.246,0.217,1.963v8.722H421v-8.979
		c0-0.819-0.241-1.471-0.716-1.949c-0.479-0.479-1.138-0.717-1.977-0.717c-0.665,0-1.246,0.104-1.733,0.307
		c-0.483,0.204-0.894,0.498-1.215,0.871c-0.325,0.378-0.57,0.818-0.731,1.323c-0.165,0.504-0.245,1.056-0.245,1.652v7.491h-2.175
		v-13.264H414.257z"/>
</g>
</svg>
