<?xml version="1.0" encoding="utf-8"?>
<!-- Generator: Adobe Illustrator 16.0.0, SVG Export Plug-In . SVG Version: 6.00 Build 0)  -->
<!DOCTYPE svg PUBLIC "-//W3C//DTD SVG 1.1//EN" "http://www.w3.org/Graphics/SVG/1.1/DTD/svg11.dtd">
<svg version="1.1" id="Layer_1" xmlns="http://www.w3.org/2000/svg" xmlns:xlink="http://www.w3.org/1999/xlink" x="0px" y="0px"
	 width="72.831px" height="25px" viewBox="0 0 72.831 25" enable-background="new 0 0 72.831 25" xml:space="preserve">
<g>
	<g>
		<path fill="#A7A9AC" d="M5.719,6.11l4.322,12.706h0.052L14.182,6.11h5.719v18.477h-3.804V11.493h-0.052l-4.529,13.093H8.385
			L3.857,11.623H3.805v12.964H0V6.11H5.719z"/>
		<path fill="#A7A9AC" d="M32.686,6.11l6.909,18.477h-4.218l-1.397-4.113H27.07l-1.45,4.113h-4.088L28.519,6.11H32.686z
			 M32.917,17.444l-2.329-6.779h-0.052l-2.407,6.779H32.917z"/>
		<path fill="#A7A9AC" d="M52.146,24.445C51.264,24.815,50.377,25,49.479,25c-1.414,0-2.687-0.245-3.817-0.737
			c-1.13-0.491-2.083-1.169-2.86-2.032c-0.775-0.861-1.37-1.876-1.785-3.039c-0.414-1.166-0.622-2.421-0.622-3.765
			c0-1.38,0.208-2.662,0.622-3.843c0.415-1.181,1.009-2.212,1.785-3.093c0.777-0.879,1.73-1.569,2.86-2.07
			c1.13-0.5,2.403-0.75,3.817-0.75c0.948,0,1.868,0.142,2.756,0.427c0.889,0.285,1.69,0.704,2.407,1.255
			c0.716,0.553,1.308,1.233,1.772,2.044c0.466,0.811,0.75,1.743,0.854,2.794h-3.882c-0.241-1.035-0.708-1.811-1.398-2.329
			c-0.689-0.518-1.525-0.776-2.51-0.776c-0.914,0-1.691,0.177-2.329,0.531c-0.639,0.354-1.156,0.828-1.553,1.423
			c-0.396,0.595-0.686,1.272-0.866,2.031c-0.181,0.759-0.272,1.544-0.272,2.355c0,0.776,0.091,1.531,0.272,2.263
			c0.18,0.733,0.47,1.395,0.866,1.981c0.396,0.585,0.914,1.056,1.553,1.409c0.638,0.354,1.415,0.53,2.329,0.53
			c1.346,0,2.386-0.341,3.119-1.022c0.732-0.682,1.16-1.668,1.28-2.963H49.79v-3.027h7.764v9.988h-2.588l-0.414-2.096
			C53.828,23.422,53.026,24.074,52.146,24.445z"/>
		<path fill="#A7A9AC" d="M64.902,6.11v18.477H60.84V6.11H64.902z"/>
	</g>
	<g>
		
			<ellipse transform="matrix(0.8962 0.4437 -0.4437 0.8962 10.6073 -27.0404)" fill="#6A73B6" cx="63.088" cy="9.147" rx="9.194" ry="2.575"/>
		<path fill="#545E8F" d="M72.567,3.582c-0.28-0.455-3.683-3.401-3.987-3.55c-0.306-0.148-1.086,0.281-1.136,0.319
			c-0.045,0.033-6.769,5.257-8.302,6.449c-0.148,0.052-0.256,0.131-0.31,0.241c-0.325,0.658,1.314,2.135,3.666,3.298
			c2.35,1.164,4.519,1.574,4.845,0.916c0.031-0.062,0.044-0.133,0.04-0.21c0.237-1.241,1.456-7.571,1.615-7.777
			c0.176-0.229,2.738,1.608,2.738,1.608s0.741,1.819,0.965,1.37C72.922,5.797,72.848,4.036,72.567,3.582z"/>
	</g>
</g>
</svg>
